<svg width="370" height="370" viewBox="0 0 370 370" fill="none" xmlns="http://www.w3.org/2000/svg">
<path d="M370 282.976H0V283.161H370V282.976Z" fill="#EBEBEB"/>
<path d="M85.3452 290.021H66.9414V290.206H85.3452V290.021Z" fill="#EBEBEB"/>
<path d="M133.073 288.016H112.723V288.201H133.073V288.016Z" fill="#EBEBEB"/>
<path d="M78.2787 296.896H35.2773V297.081H78.2787V296.896Z" fill="#EBEBEB"/>
<path d="M332.925 295.652H316.941V295.837H332.925V295.652Z" fill="#EBEBEB"/>
<path d="M179.614 289.444H158.945V289.629H179.614V289.444Z" fill="#EBEBEB"/>
<path d="M274.459 292.53H222.496V292.715H274.459V292.53Z" fill="#EBEBEB"/>
<path d="M175.382 249.972H32.4953C31.376 249.97 30.3031 249.524 29.5123 248.732C28.7215 247.94 28.2773 246.866 28.2773 245.747V44.8886C28.2871 43.7757 28.7355 42.7115 29.5253 41.9273C30.3151 41.1431 31.3824 40.7021 32.4953 40.7002H175.382C176.503 40.7002 177.577 41.1454 178.37 41.9378C179.162 42.7302 179.607 43.8049 179.607 44.9256V245.747C179.607 246.867 179.162 247.942 178.37 248.735C177.577 249.527 176.503 249.972 175.382 249.972ZM32.4953 40.8482C31.425 40.8502 30.3993 41.2767 29.6431 42.0342C28.887 42.7917 28.4623 43.8183 28.4623 44.8886V245.747C28.4623 246.817 28.887 247.844 29.6431 248.601C30.3993 249.359 31.425 249.785 32.4953 249.787H175.382C176.453 249.785 177.479 249.359 178.237 248.602C178.994 247.844 179.42 246.818 179.422 245.747V44.8886C179.42 43.8176 178.994 42.7911 178.237 42.0338C177.479 41.2765 176.453 40.8502 175.382 40.8482H32.4953Z" fill="#EBEBEB"/>
<path d="M335.448 249.972H192.554C191.433 249.97 190.36 249.524 189.568 248.732C188.776 247.94 188.33 246.867 188.328 245.747V44.8886C188.34 43.775 188.79 42.7108 189.581 41.9268C190.372 41.1428 191.44 40.7021 192.554 40.7002H335.448C336.559 40.704 337.625 41.1459 338.413 41.9299C339.201 42.7139 339.648 43.7769 339.658 44.8886V245.747C339.658 246.865 339.215 247.937 338.426 248.729C337.637 249.521 336.566 249.968 335.448 249.972ZM192.554 40.8482C191.483 40.8502 190.456 41.2765 189.699 42.0338C188.941 42.7911 188.515 43.8176 188.513 44.8886V245.747C188.515 246.818 188.941 247.844 189.699 248.602C190.456 249.359 191.483 249.785 192.554 249.787H335.448C336.519 249.785 337.545 249.359 338.302 248.602C339.06 247.844 339.486 246.818 339.488 245.747V44.8886C339.486 43.8176 339.06 42.7911 338.302 42.0338C337.545 41.2765 336.519 40.8502 335.448 40.8482H192.554Z" fill="#EBEBEB"/>
<path d="M237.553 47.8188H23.5671C20.0524 47.8188 17.2031 50.6681 17.2031 54.1828V185.969C17.2031 189.484 20.0524 192.333 23.5671 192.333H237.553C241.068 192.333 243.917 189.484 243.917 185.969V54.1828C243.917 50.6681 241.068 47.8188 237.553 47.8188Z" fill="#EBEBEB"/>
<path d="M243.917 55.1304H17.2031V171.621H243.917V55.1304Z" fill="#FAFAFA"/>
<path d="M171.141 99.2637C171.145 97.8224 171.719 96.4412 172.738 95.4221C173.757 94.4029 175.138 93.8286 176.58 93.8247H346.04C347.481 93.8286 348.862 94.4029 349.881 95.4221C350.9 96.4412 351.475 97.8224 351.479 99.2637V116.772H171.141V99.2637Z" fill="#E6E6E6"/>
<path d="M215.126 109.417C217.398 109.417 219.241 107.575 219.241 105.302C219.241 103.03 217.398 101.188 215.126 101.188C212.854 101.188 211.012 103.03 211.012 105.302C211.012 107.575 212.854 109.417 215.126 109.417Z" fill="white"/>
<path d="M200.548 109.417C202.82 109.417 204.662 107.575 204.662 105.302C204.662 103.03 202.82 101.188 200.548 101.188C198.276 101.188 196.434 103.03 196.434 105.302C196.434 107.575 198.276 109.417 200.548 109.417Z" fill="white"/>
<path d="M185.978 109.417C188.25 109.417 190.092 107.575 190.092 105.302C190.092 103.03 188.25 101.188 185.978 101.188C183.705 101.188 181.863 103.03 181.863 105.302C181.863 107.575 183.705 109.417 185.978 109.417Z" fill="white"/>
<path d="M346.016 211.048H176.556C175.115 211.044 173.734 210.47 172.715 209.451C171.695 208.432 171.121 207.05 171.117 205.609V116.809H351.455V205.609C351.451 207.05 350.877 208.432 349.858 209.451C348.839 210.47 347.457 211.044 346.016 211.048Z" fill="#F5F5F5"/>
<path d="M146.926 129.552C146.93 128.11 147.504 126.729 148.523 125.71C149.542 124.691 150.923 124.117 152.365 124.113H321.825C323.266 124.117 324.647 124.691 325.666 125.71C326.686 126.729 327.26 128.11 327.264 129.552V147.06H146.926V129.552Z" fill="#F0F0F0"/>
<path d="M190.903 139.705C193.176 139.705 195.018 137.863 195.018 135.59C195.018 133.318 193.176 131.476 190.903 131.476C188.631 131.476 186.789 133.318 186.789 135.59C186.789 137.863 188.631 139.705 190.903 139.705Z" fill="#E6E6E6"/>
<path d="M176.325 139.705C178.598 139.705 180.44 137.863 180.44 135.59C180.44 133.318 178.598 131.476 176.325 131.476C174.053 131.476 172.211 133.318 172.211 135.59C172.211 137.863 174.053 139.705 176.325 139.705Z" fill="#E6E6E6"/>
<path d="M161.755 139.705C164.027 139.705 165.869 137.863 165.869 135.59C165.869 133.318 164.027 131.476 161.755 131.476C159.483 131.476 157.641 133.318 157.641 135.59C157.641 137.863 159.483 139.705 161.755 139.705Z" fill="#E6E6E6"/>
<path d="M321.797 241.336H152.337C150.896 241.332 149.515 240.758 148.496 239.739C147.477 238.72 146.902 237.338 146.898 235.897V147.097H327.236V235.897C327.233 237.338 326.658 238.72 325.639 239.739C324.62 240.758 323.239 241.332 321.797 241.336Z" fill="#FAFAFA"/>
<path d="M122.707 159.84C122.711 158.399 123.285 157.018 124.304 155.999C125.324 154.98 126.705 154.405 128.146 154.401H297.606C299.047 154.405 300.429 154.98 301.448 155.999C302.467 157.018 303.041 158.399 303.045 159.84V177.349H122.707V159.84Z" fill="#FAFAFA"/>
<path d="M166.685 169.993C168.957 169.993 170.799 168.151 170.799 165.879C170.799 163.606 168.957 161.764 166.685 161.764C164.412 161.764 162.57 163.606 162.57 165.879C162.57 168.151 164.412 169.993 166.685 169.993Z" fill="#F0F0F0"/>
<path d="M152.107 169.993C154.379 169.993 156.221 168.151 156.221 165.879C156.221 163.606 154.379 161.764 152.107 161.764C149.834 161.764 147.992 163.606 147.992 165.879C147.992 168.151 149.834 169.993 152.107 169.993Z" fill="#F0F0F0"/>
<path d="M137.536 169.993C139.809 169.993 141.651 168.151 141.651 165.879C141.651 163.606 139.809 161.764 137.536 161.764C135.264 161.764 133.422 163.606 133.422 165.879C133.422 168.151 135.264 169.993 137.536 169.993Z" fill="#F0F0F0"/>
<path d="M297.575 271.625H128.115C126.673 271.621 125.292 271.047 124.273 270.027C123.254 269.008 122.68 267.627 122.676 266.186V177.386H303.014V266.186C303.01 267.627 302.436 269.008 301.416 270.027C300.397 271.047 299.016 271.621 297.575 271.625Z" fill="#E6E6E6"/>
<path d="M184.998 316.394C264.239 316.394 328.477 312.644 328.477 308.017C328.477 303.391 264.239 299.641 184.998 299.641C105.757 299.641 41.5195 303.391 41.5195 308.017C41.5195 312.644 105.757 316.394 184.998 316.394Z" fill="#F5F5F5"/>
<path d="M141.46 61.0498H134.926V61.7898H141.46V61.0498Z" fill="#1D99F2"/>
<path d="M127.161 61.0498H111.125V61.7898H127.161V61.0498Z" fill="#1D99F2"/>
<path d="M66.8448 63.6396H303.156C305.512 63.6396 307.77 64.5752 309.436 66.2405C311.101 67.9059 312.036 70.1645 312.036 72.5196V276.552H57.9648V72.5196C57.9648 70.1645 58.9004 67.9059 60.5657 66.2405C62.2311 64.5752 64.4897 63.6396 66.8448 63.6396Z" fill="#1D99F2"/>
<path opacity="0.8" d="M312.029 76.96H57.9648V273.104H312.029V76.96Z" fill="white"/>
<path opacity="0.4" d="M312.029 76.96H57.9648V120.08H312.029V76.96Z" fill="#1D99F2"/>
<path opacity="0.4" d="M306.792 81.0815H296.188V91.6858H306.792V81.0815Z" fill="#1D99F2"/>
<path opacity="0.4" d="M291.057 81.0815H280.453V91.6858H291.057V81.0815Z" fill="#1D99F2"/>
<path opacity="0.4" d="M275.327 81.0815H264.723V91.6858H275.327V81.0815Z" fill="#1D99F2"/>
<path opacity="0.4" d="M106.034 266.03H95.4297V267.095H106.034V266.03Z" fill="#1D99F2"/>
<path opacity="0.4" d="M90.3034 266.03H79.6992V267.095H90.3034V266.03Z" fill="#1D99F2"/>
<path opacity="0.4" d="M74.569 266.03H63.9648V267.095H74.569V266.03Z" fill="#1D99F2"/>
<path d="M159.613 101.528H156.379L155.928 103.052H153.02L156.483 93.8242H159.598L163.061 103.052H160.101L159.613 101.528ZM159.021 99.537L158.007 96.1996L156.993 99.5222L159.021 99.537Z" fill="white"/>
<path d="M163.809 93.8242H166.399V97.021C166.641 96.7612 166.936 96.5567 167.264 96.4216C167.608 96.2828 167.975 96.2125 168.345 96.2144C168.725 96.2056 169.103 96.2799 169.452 96.4319C169.801 96.584 170.112 96.8103 170.365 97.095C170.94 97.8054 171.225 98.7066 171.164 99.6184C171.178 100.278 171.055 100.933 170.802 101.542C170.594 102.05 170.241 102.485 169.788 102.793C169.362 103.065 168.865 103.207 168.36 103.2C167.93 103.205 167.506 103.106 167.124 102.911C166.764 102.692 166.452 102.403 166.206 102.06V103.052H163.809V93.8242ZM166.376 99.6924C166.341 100.134 166.455 100.575 166.702 100.943C166.801 101.065 166.926 101.163 167.068 101.23C167.211 101.297 167.366 101.33 167.523 101.328C167.668 101.324 167.81 101.288 167.938 101.221C168.066 101.155 168.178 101.059 168.263 100.943C168.506 100.562 168.615 100.112 168.574 99.6628C168.605 99.2526 168.498 98.8438 168.271 98.501C168.184 98.387 168.072 98.2943 167.944 98.2302C167.815 98.1661 167.674 98.1321 167.531 98.131C167.369 98.1252 167.208 98.1569 167.06 98.2237C166.913 98.2904 166.782 98.3904 166.68 98.5158C166.443 98.8599 166.335 99.2767 166.376 99.6924Z" fill="white"/>
<path d="M172.072 99.7296C172.058 99.26 172.144 98.7927 172.322 98.358C172.5 97.9234 172.768 97.531 173.108 97.2062C173.483 96.863 173.923 96.5973 174.402 96.4246C174.881 96.2519 175.389 96.1755 175.897 96.1998C176.457 96.1605 177.018 96.2449 177.541 96.447C178.064 96.649 178.536 96.9639 178.924 97.369C179.492 98.057 179.787 98.9304 179.751 99.8219C179.716 100.713 179.353 101.561 178.732 102.201C178.347 102.544 177.899 102.807 177.413 102.976C176.926 103.145 176.411 103.216 175.897 103.185C174.961 103.228 174.039 102.939 173.293 102.371C172.9 102.054 172.585 101.651 172.374 101.193C172.162 100.735 172.059 100.234 172.072 99.7296ZM174.639 99.7296C174.604 100.2 174.732 100.668 175.002 101.054C175.115 101.186 175.254 101.291 175.411 101.363C175.568 101.435 175.739 101.473 175.912 101.473C176.085 101.473 176.256 101.435 176.413 101.363C176.57 101.291 176.71 101.186 176.822 101.054C177.093 100.657 177.219 100.179 177.178 99.7C177.221 99.2494 177.109 98.7975 176.859 98.4198C176.753 98.2873 176.617 98.1805 176.464 98.1075C176.31 98.0345 176.142 97.9971 175.971 97.998C175.795 97.9934 175.619 98.0297 175.459 98.1042C175.298 98.1786 175.157 98.2892 175.046 98.4272C174.763 98.7979 174.619 99.2562 174.639 99.7222V99.7296Z" fill="white"/>
<path d="M188.029 103.052H185.639V101.972C185.349 102.36 184.981 102.683 184.559 102.919C184.142 103.121 183.682 103.218 183.219 103.2C182.914 103.218 182.609 103.171 182.323 103.062C182.038 102.954 181.778 102.787 181.562 102.571C181.12 102.023 180.905 101.327 180.962 100.625V96.3701H183.523V100.07C183.492 100.386 183.573 100.703 183.752 100.966C183.835 101.056 183.937 101.127 184.051 101.173C184.165 101.219 184.288 101.239 184.411 101.232C184.553 101.234 184.694 101.203 184.822 101.141C184.95 101.079 185.063 100.989 185.151 100.877C185.389 100.5 185.493 100.054 185.447 99.6113V96.3997H188.007L188.029 103.052Z" fill="white"/>
<path d="M192.675 93.8242V96.3698H194.081V98.242H192.675V100.64C192.657 100.833 192.685 101.029 192.757 101.209C192.803 101.281 192.868 101.339 192.945 101.375C193.022 101.412 193.108 101.426 193.193 101.417C193.464 101.402 193.731 101.347 193.985 101.254L194.177 103.022C193.595 103.156 192.999 103.225 192.401 103.23C191.92 103.26 191.438 103.176 190.995 102.985C190.692 102.824 190.454 102.563 190.322 102.245C190.148 101.724 190.075 101.174 190.107 100.625V98.2716H189.16V96.3994H190.107V95.171L192.675 93.8242Z" fill="white"/>
<path d="M205.771 93.8245H208.613V99.3227C208.617 99.8488 208.532 100.372 208.361 100.869C208.194 101.346 207.92 101.779 207.562 102.135C207.238 102.458 206.85 102.711 206.422 102.875C205.778 103.09 205.103 103.192 204.424 103.178C203.929 103.177 203.435 103.145 202.944 103.082C202.484 103.04 202.035 102.915 201.62 102.712C201.242 102.514 200.907 102.242 200.635 101.913C200.361 101.607 200.154 101.246 200.029 100.855C199.867 100.349 199.78 99.8234 199.77 99.2931V93.7949H202.611V99.4263C202.599 99.6401 202.629 99.8541 202.701 100.056C202.772 100.258 202.882 100.444 203.026 100.603C203.181 100.748 203.363 100.861 203.563 100.933C203.763 101.006 203.975 101.037 204.187 101.025C204.398 101.039 204.609 101.009 204.808 100.938C205.006 100.867 205.188 100.755 205.342 100.61C205.488 100.452 205.601 100.265 205.674 100.062C205.746 99.858 205.777 99.6419 205.764 99.4263L205.771 93.8245Z" fill="white"/>
<path d="M209.879 101.195L212.425 100.958C212.496 101.214 212.65 101.44 212.861 101.602C213.082 101.741 213.34 101.811 213.601 101.802C213.885 101.821 214.167 101.742 214.4 101.58C214.468 101.535 214.524 101.475 214.563 101.404C214.601 101.333 214.622 101.254 214.622 101.173C214.621 101.081 214.593 100.991 214.542 100.915C214.491 100.839 214.418 100.779 214.334 100.743C213.976 100.617 213.607 100.527 213.231 100.477C212.603 100.386 211.985 100.243 211.381 100.048C211.033 99.9132 210.73 99.6822 210.508 99.3818C210.268 99.0735 210.14 98.6923 210.145 98.3014C210.139 97.8909 210.275 97.4908 210.53 97.1692C210.808 96.8299 211.174 96.5738 211.588 96.4292C212.173 96.2536 212.783 96.1737 213.394 96.1924C213.989 96.1715 214.584 96.2338 215.163 96.3774C215.52 96.4879 215.845 96.6834 216.11 96.9472C216.391 97.2448 216.608 97.5976 216.746 97.9832L214.311 98.22C214.268 98.03 214.158 97.862 214.001 97.7464C213.78 97.6062 213.522 97.5366 213.261 97.5466C213.04 97.5288 212.819 97.5833 212.632 97.702C212.571 97.7445 212.521 97.8009 212.486 97.8665C212.451 97.9321 212.433 98.0051 212.432 98.0794C212.432 98.1592 212.456 98.237 212.501 98.3029C212.546 98.3689 212.609 98.4199 212.684 98.4494C213.037 98.5716 213.405 98.6462 213.779 98.6714C214.428 98.7207 215.068 98.8576 215.68 99.0784C216.064 99.2264 216.396 99.4837 216.635 99.8184C216.849 100.127 216.962 100.494 216.961 100.869C216.955 101.27 216.834 101.66 216.613 101.994C216.341 102.389 215.957 102.693 215.51 102.867C214.854 103.106 214.158 103.214 213.46 103.185C212.561 103.258 211.659 103.078 210.856 102.667C210.351 102.322 210.001 101.794 209.879 101.195Z" fill="white"/>
<path d="M110.395 203.588C130.829 203.588 147.395 187.023 147.395 166.588C147.395 146.154 130.829 129.588 110.395 129.588C89.96 129.588 73.3945 146.154 73.3945 166.588C73.3945 187.023 89.96 203.588 110.395 203.588Z" fill="#1D99F2"/>
<path d="M135.181 191.374C148.87 177.684 148.87 155.489 135.181 141.8C121.491 128.111 99.2964 128.111 85.6071 141.8C71.9177 155.489 71.9177 177.684 85.6071 191.374C99.2964 205.063 121.491 205.063 135.181 191.374Z" fill="white"/>
<path d="M112.184 173.9L115.144 167.743C115.144 167.743 130.595 172.627 132.904 173.759C132.844 169.896 134.813 162.659 135.027 158.693C135.612 158.138 137.025 156.739 137.758 156.791C139.978 161.971 139.497 179.731 135.131 180.049C128.153 180.493 112.184 173.9 112.184 173.9Z" fill="#B55B52"/>
<path d="M110.26 172.938C112.043 177.119 126.688 180.841 126.688 180.841L129.648 171.843C129.648 171.843 124.068 167.61 118.274 166.241C112.347 164.827 108.292 168.35 110.26 172.938Z" fill="#1D99F2"/>
<path opacity="0.2" d="M110.52 173.426C112.259 176.053 118.726 178.436 122.937 179.76C120.132 174.314 116.351 171.31 110.52 173.426Z" fill="black"/>
<path d="M135.013 159.477L132.652 156.451L137.018 154.016C137.878 155.316 138.319 156.847 138.284 158.404L135.013 159.477Z" fill="#B55B52"/>
<path d="M132.012 152.262L136.267 151.574L137.022 154.016L132.656 156.45L132.012 152.262Z" fill="#B55B52"/>
<path d="M118.629 166.544C118.629 166.544 124.593 180.9 119.917 207.651H96.6067C96.3329 203.744 98.3235 184.711 94.1055 166.3C96.908 165.754 99.7434 165.393 102.593 165.219C106.194 165.012 109.804 165.012 113.405 165.219C117.179 165.567 118.629 166.544 118.629 166.544Z" fill="#1D99F2"/>
<path opacity="0.2" d="M99.7392 170.836C100.242 173.87 99.4654 181.115 96.7792 189.484C96.646 182.312 95.8833 175.166 94.5 168.128C96.202 167.921 99.2656 167.98 99.7392 170.836Z" fill="black"/>
<path d="M103.756 155.111C104.496 158.589 104.969 162.904 102.594 165.22C102.594 165.22 104.074 168.75 110.541 168.75C116.461 168.75 113.405 165.22 113.405 165.22C109.505 164.295 109.587 159.5 110.201 156.791L103.756 155.111Z" fill="#B55B52"/>
<path d="M110.846 168.468L112.252 170.022C112.3 170.076 112.333 170.141 112.348 170.211C112.364 170.281 112.361 170.353 112.341 170.422L111.89 171.791C111.864 171.866 111.817 171.932 111.753 171.979C111.69 172.027 111.614 172.054 111.534 172.057L110.054 172.131C109.983 172.136 109.912 172.121 109.848 172.088C109.784 172.056 109.73 172.007 109.692 171.946L108.782 170.622C108.728 170.55 108.699 170.463 108.699 170.374C108.699 170.284 108.728 170.197 108.782 170.126L110.262 168.468C110.339 168.391 110.444 168.348 110.554 168.348C110.663 168.348 110.768 168.391 110.846 168.468Z" fill="white"/>
<path d="M110.544 168.128C109.826 169.329 109.429 170.695 109.389 172.094C109.389 172.094 101.249 169.238 101.494 165.049C101.494 165.049 102.626 164.368 103.344 163.813C103.344 163.813 103.684 166.455 110.544 168.128Z" fill="#263238"/>
<path d="M110.543 168.127C111.311 169.253 111.875 170.506 112.208 171.827C112.208 171.827 115.819 169.341 114.613 165.204C113.935 164.933 113.237 164.713 112.526 164.546C112.526 164.546 113.074 167.239 110.543 168.127Z" fill="#263238"/>
<path d="M111.203 171.842C111.203 171.842 113.519 188.862 113.571 191.822C113.539 194.624 113.098 197.407 112.261 200.081C112.261 200.081 110.67 197.069 110.396 191.697C110.123 186.324 110.456 174.854 110.337 171.835L111.203 171.842Z" fill="white"/>
<path opacity="0.2" d="M110.204 156.799C109.727 158.681 109.783 160.659 110.366 162.511C109.764 162.418 109.178 162.239 108.627 161.979C106.407 160.943 105.29 159.322 104.113 156.917C104.01 156.295 103.891 155.696 103.766 155.111L110.204 156.799Z" fill="black"/>
<path d="M116.338 154.356C116.075 154.875 115.71 155.336 115.265 155.711C114.82 156.086 114.304 156.368 113.748 156.539C112.268 156.976 111.462 155.622 111.832 154.179C112.172 152.876 113.312 151.086 114.866 151.271C115.199 151.321 115.515 151.452 115.786 151.653C116.057 151.854 116.275 152.118 116.42 152.423C116.566 152.727 116.634 153.063 116.62 153.4C116.606 153.737 116.509 154.065 116.338 154.356Z" fill="#B55B52"/>
<path opacity="0.2" d="M116.338 154.356C116.075 154.875 115.71 155.336 115.265 155.711C114.82 156.086 114.304 156.368 113.748 156.539C112.268 156.976 111.462 155.622 111.832 154.179C112.172 152.876 113.312 151.086 114.866 151.271C115.199 151.321 115.515 151.452 115.786 151.653C116.057 151.854 116.275 152.118 116.42 152.423C116.566 152.727 116.634 153.063 116.62 153.4C116.606 153.737 116.509 154.065 116.338 154.356Z" fill="black"/>
<path d="M112.044 151.345C113.524 152.699 116.225 145.269 113.199 143.205C110.172 141.14 109.114 143.945 109.166 145.654C109.218 147.364 109.81 149.339 112.044 151.345Z" fill="#263238"/>
<path d="M101.935 150.094C102.63 154.8 102.801 157.59 105.368 159.862C109.224 163.273 114.796 160.713 115.499 155.917C116.135 151.596 114.892 144.618 110.164 143.041C109.128 142.69 108.019 142.613 106.945 142.82C105.871 143.027 104.87 143.511 104.039 144.222C103.209 144.934 102.578 145.85 102.209 146.879C101.84 147.909 101.746 149.017 101.935 150.094Z" fill="#B55B52"/>
<path d="M101.638 154.09C102.452 154.615 103.57 156.036 105.25 153.52C105.25 152.869 103.599 151.774 103.474 150.235C103.326 148.444 102.933 146.534 101.483 145.905C98.1752 144.425 97.5684 147.267 97.894 148.969C98.2196 150.671 99.1151 152.44 101.638 154.09Z" fill="#263238"/>
<path d="M101.196 147.563C109.003 146.35 113.613 146.083 115.959 143.16C118.305 140.237 114.701 136.619 110.779 136.204C110.498 137.729 106.524 141.739 100.419 143.478C100.079 143.572 99.7732 143.761 99.5381 144.024C99.303 144.286 99.1486 144.611 99.0931 144.959C99.0377 145.307 99.0837 145.664 99.2256 145.987C99.3676 146.309 99.5994 146.584 99.8934 146.779C100.641 147.26 101.196 147.563 101.196 147.563Z" fill="#263238"/>
<path d="M100.288 155.452C100.999 156.418 102.063 157.064 103.248 157.25C104.795 157.487 105.35 156.044 104.728 154.667C104.173 153.424 102.7 151.811 101.235 152.203C99.77 152.595 99.4222 154.26 100.288 155.452Z" fill="#B55B52"/>
<path d="M109.121 150.96C109.121 151.345 109.387 151.648 109.631 151.626C109.875 151.604 110.053 151.285 110.023 150.886C109.994 150.486 109.764 150.205 109.513 150.22C109.261 150.235 109.091 150.545 109.121 150.96Z" fill="#263238"/>
<path d="M113.413 150.642C113.45 151.026 113.68 151.322 113.924 151.308C114.168 151.293 114.346 150.967 114.316 150.568C114.287 150.168 114.05 149.879 113.806 149.902C113.561 149.924 113.384 150.257 113.413 150.642Z" fill="#263238"/>
<path d="M112.066 150.959C112.622 152.107 113.329 153.175 114.168 154.134C113.924 154.339 113.637 154.488 113.329 154.568C113.02 154.649 112.698 154.66 112.385 154.6L112.066 150.959Z" fill="#A02724"/>
<path d="M111.373 155.703C111.387 155.702 111.401 155.698 111.414 155.692C111.426 155.685 111.438 155.676 111.447 155.665C111.456 155.654 111.462 155.641 111.466 155.627C111.47 155.613 111.471 155.599 111.469 155.585C111.468 155.57 111.464 155.556 111.458 155.543C111.451 155.53 111.442 155.518 111.431 155.508C111.42 155.499 111.407 155.491 111.394 155.487C111.38 155.482 111.365 155.48 111.35 155.481C110.874 155.521 110.395 155.449 109.952 155.271C109.508 155.092 109.113 154.812 108.797 154.453C108.789 154.441 108.778 154.431 108.765 154.424C108.753 154.416 108.739 154.411 108.724 154.409C108.71 154.407 108.695 154.408 108.681 154.412C108.667 154.415 108.654 154.422 108.642 154.43C108.63 154.439 108.621 154.45 108.613 154.463C108.606 154.475 108.601 154.489 108.599 154.504C108.597 154.518 108.598 154.533 108.601 154.547C108.605 154.561 108.611 154.574 108.62 154.586C108.956 154.979 109.381 155.286 109.86 155.48C110.339 155.675 110.858 155.751 111.373 155.703Z" fill="#263238"/>
<path d="M107.707 149.613C107.741 149.612 107.775 149.603 107.804 149.586C107.834 149.569 107.859 149.546 107.877 149.517C108.018 149.275 108.216 149.07 108.453 148.921C108.69 148.771 108.96 148.681 109.239 148.658C109.268 148.659 109.298 148.654 109.325 148.644C109.352 148.633 109.377 148.617 109.398 148.596C109.419 148.575 109.435 148.55 109.446 148.523C109.457 148.495 109.462 148.466 109.461 148.436C109.461 148.376 109.437 148.317 109.394 148.274C109.351 148.231 109.292 148.207 109.231 148.207C108.878 148.228 108.535 148.335 108.233 148.519C107.931 148.704 107.679 148.96 107.5 149.265C107.484 149.29 107.473 149.318 107.468 149.348C107.463 149.377 107.464 149.407 107.471 149.436C107.478 149.465 107.49 149.493 107.508 149.517C107.526 149.541 107.548 149.561 107.574 149.576C107.592 149.591 107.614 149.602 107.637 149.608C107.66 149.614 107.684 149.616 107.707 149.613Z" fill="#263238"/>
<path d="M115.213 148.969L115.302 148.932C115.328 148.916 115.35 148.894 115.367 148.869C115.384 148.844 115.395 148.816 115.401 148.786C115.406 148.756 115.406 148.725 115.399 148.696C115.392 148.666 115.379 148.638 115.361 148.614C115.17 148.31 114.909 148.057 114.6 147.874C114.291 147.692 113.944 147.585 113.585 147.563C113.556 147.563 113.526 147.569 113.499 147.581C113.471 147.592 113.446 147.609 113.426 147.631C113.405 147.652 113.389 147.677 113.378 147.705C113.367 147.733 113.362 147.763 113.363 147.792C113.365 147.852 113.39 147.908 113.433 147.95C113.476 147.991 113.533 148.014 113.593 148.014C113.877 148.035 114.151 148.124 114.395 148.271C114.638 148.419 114.842 148.623 114.991 148.865C115.017 148.9 115.05 148.928 115.089 148.946C115.128 148.964 115.171 148.972 115.213 148.969Z" fill="#263238"/>
<path d="M91.4283 172.612L97.4223 176.135C97.4223 176.135 89.8595 190.935 90.6809 193.244C91.7983 196.352 93.4929 203.182 95.4761 206.564C95.2837 207.304 94.1737 209.102 93.5225 209.435C88.7569 206.238 83.5399 195.767 83.5547 192.777C83.6213 185.992 91.4283 172.612 91.4283 172.612Z" fill="#B55B52"/>
<path d="M94.109 166.3C89.6246 166.951 84.8516 182.58 84.8516 182.58L95.4632 185.962C97.3547 182.413 98.9942 178.736 100.369 174.958C102.338 169.186 98.919 165.597 94.109 166.3Z" fill="#1D99F2"/>
<path d="M94.3869 205.971L98.9083 205.646L96.6291 210.633C96.6291 210.633 92.6627 210.789 91.9375 207.762L94.3869 205.971Z" fill="#B55B52"/>
<path d="M102.638 207.94L100.344 212.357L96.6289 210.633L98.9081 205.646L102.638 207.94Z" fill="#B55B52"/>
<path d="M259.609 265.985C280.044 265.985 296.609 249.42 296.609 228.985C296.609 208.551 280.044 191.985 259.609 191.985C239.175 191.985 222.609 208.551 222.609 228.985C222.609 249.42 239.175 265.985 259.609 265.985Z" fill="#1D99F2"/>
<path d="M259.608 264.039C278.968 264.039 294.662 248.345 294.662 228.985C294.662 209.626 278.968 193.932 259.608 193.932C240.249 193.932 224.555 209.626 224.555 228.985C224.555 248.345 240.249 264.039 259.608 264.039Z" fill="white"/>
<path d="M257.991 202.346C252.73 201.872 249.451 209.968 250.547 222.326C257.207 226.107 264.836 222.326 270.941 225.367C276.587 216.731 275.085 197.254 257.991 202.346Z" fill="#263238"/>
<path d="M249.779 238.117C249.023 240.925 247.958 243.64 246.605 246.213C245.876 247.621 244.965 248.927 243.896 250.098C243.583 250.434 243.244 250.746 242.882 251.03C242.315 251.519 241.637 251.862 240.907 252.029C240.344 252.144 239.762 252.119 239.212 251.955C238.723 251.806 238.271 251.554 237.887 251.215C237.405 250.781 237.012 250.255 236.733 249.669C236.367 248.882 236.097 248.055 235.926 247.204C235.767 246.472 235.648 245.73 235.571 244.984C235.408 243.504 235.334 242.128 235.312 240.722C235.271 237.942 235.397 235.162 235.69 232.397L238.413 232.449C238.65 235.113 238.923 237.806 239.271 240.426C239.456 241.736 239.663 243.038 239.93 244.281C240.063 244.896 240.218 245.502 240.381 246.057C240.514 246.538 240.706 247 240.951 247.434C241.032 247.567 241.136 247.641 241.01 247.5C240.883 247.39 240.734 247.307 240.574 247.256C240.351 247.187 240.115 247.172 239.885 247.212C239.552 247.271 239.53 247.367 239.663 247.212C239.819 247.053 239.965 246.885 240.1 246.709C240.775 245.786 241.348 244.794 241.809 243.749C242.349 242.608 242.828 241.439 243.245 240.248C243.689 239.057 244.103 237.777 244.466 236.622L249.779 238.117Z" fill="#FFB573"/>
<path d="M246.122 230.991C243.902 231.561 242.348 240.693 242.348 240.693L250.835 246.465C250.835 246.465 254.328 235.638 252.619 233.196C250.909 230.754 249.378 230.14 246.122 230.991Z" fill="#263238"/>
<path opacity="0.2" d="M246.323 233.033L244.613 242.239L248.054 244.57L246.323 233.033Z" fill="black"/>
<path d="M238.531 233.211L239.655 227.535L235.141 228.845C235.141 228.845 234.697 232.774 236.518 234.069L238.531 233.211Z" fill="#FFB573"/>
<path d="M239.203 225.042L235.474 226.588L235.141 228.845L239.655 227.535L239.203 225.042Z" fill="#FFB573"/>
<path d="M246.122 230.991C246.122 230.991 243.554 231.901 248.697 263.499H270.564C270.201 254.619 270.186 249.106 274.441 230.836C271.379 230.206 268.275 229.798 265.154 229.615C261.848 229.378 258.53 229.378 255.223 229.615C250.961 230.007 246.122 230.991 246.122 230.991Z" fill="#263238"/>
<path opacity="0.2" d="M272.646 238.073C270.663 238.561 268.828 240.729 269.05 244.733C269.173 246.544 269.807 248.284 270.877 249.75C271.225 246.686 271.81 243.127 272.742 238.583L272.646 238.073Z" fill="black"/>
<path d="M256.379 236.622C256.379 236.622 259.96 239.582 259.96 242.713C262.92 240.53 266.953 234.573 267.36 230.791C267.375 230.638 267.358 230.483 267.31 230.337C267.263 230.19 267.187 230.055 267.086 229.939C266.985 229.823 266.861 229.728 266.723 229.661C266.584 229.594 266.434 229.555 266.28 229.548C266.012 229.53 265.745 229.495 265.481 229.444C265.369 229.421 265.254 229.423 265.144 229.451C265.033 229.48 264.931 229.533 264.844 229.607L256.379 236.622Z" fill="#FAFAFA"/>
<path d="M256.379 236.622C255.403 237.345 254.582 238.257 253.966 239.303C253.349 240.349 252.949 241.509 252.79 242.713C249.77 240.493 251.021 233.662 252.701 230.436C252.833 230.184 253.025 229.969 253.26 229.809C253.494 229.649 253.765 229.549 254.048 229.518C254.484 229.467 254.825 229.407 255.047 229.363C255.087 229.354 255.128 229.354 255.168 229.363C255.208 229.371 255.246 229.387 255.279 229.411C255.313 229.435 255.341 229.465 255.362 229.5C255.383 229.535 255.397 229.574 255.402 229.615L256.379 236.622Z" fill="#FAFAFA"/>
<path d="M264.179 218.433C263.558 221.63 262.929 227.483 265.163 229.615C262.74 232.518 259.755 234.902 256.387 236.622C251.947 233.078 255.233 229.615 255.233 229.615C258.799 228.764 258.703 226.122 258.082 223.635L264.179 218.433Z" fill="#FFB573"/>
<path opacity="0.2" d="M261.686 220.557L258.082 223.636C258.233 224.213 258.334 224.802 258.385 225.397C259.747 225.204 261.886 224.043 262.182 222.563C262.186 221.863 262.016 221.174 261.686 220.557Z" fill="black"/>
<path d="M269.528 213.297C268.048 218.433 267.537 220.638 264.311 222.732C259.464 225.87 253.477 222.932 253.389 217.456C253.307 212.528 255.742 204.958 261.299 204.018C262.524 203.805 263.782 203.909 264.955 204.319C266.128 204.73 267.177 205.433 268.001 206.363C268.826 207.293 269.399 208.418 269.666 209.632C269.933 210.845 269.886 212.107 269.528 213.297Z" fill="#FFB573"/>
<path d="M265.586 208.51C266.489 213.638 266.837 215.621 268.65 216.946C270.463 218.271 272.15 212.188 270.81 209.849C269.471 207.511 265.586 208.51 265.586 208.51Z" fill="#263238"/>
<path d="M257.062 203.7C255.974 204.988 258.209 207.681 260.377 208.562C260.243 208.279 260.146 207.981 260.088 207.674C261.654 208.744 263.413 209.498 265.268 209.894C265.059 209.629 264.919 209.316 264.861 208.984C264.861 208.732 270.204 212.269 270.981 209.724C271.758 207.178 269.109 203.848 265.061 202.782C261.613 201.917 258.401 202.109 257.062 203.7Z" fill="#263238"/>
<path d="M260.916 212.839C260.827 213.26 260.524 213.579 260.242 213.49C259.961 213.401 259.821 213.038 259.917 212.609C260.013 212.18 260.309 211.869 260.59 211.958C260.872 212.047 261.012 212.38 260.916 212.839Z" fill="#263238"/>
<path d="M256.129 211.773C256.033 212.195 255.729 212.513 255.455 212.424C255.182 212.336 255.026 211.973 255.122 211.544C255.219 211.115 255.515 210.804 255.796 210.893C256.077 210.981 256.218 211.344 256.129 211.773Z" fill="#263238"/>
<path d="M255.912 210.944L254.957 210.419C254.957 210.419 255.297 211.329 255.912 210.944Z" fill="#263238"/>
<path d="M257.429 212.861C256.838 213.743 256.128 214.54 255.32 215.229C255.505 215.437 255.734 215.6 255.99 215.708C256.246 215.815 256.523 215.864 256.8 215.85L257.429 212.861Z" fill="#ED893E"/>
<path d="M258.712 218.026C258.498 218.009 258.286 217.98 258.075 217.937C258.043 217.929 258.014 217.908 257.997 217.879C257.979 217.85 257.972 217.815 257.979 217.782C257.983 217.765 257.99 217.749 257.999 217.735C258.009 217.721 258.022 217.709 258.036 217.7C258.051 217.691 258.067 217.685 258.084 217.683C258.101 217.68 258.118 217.681 258.135 217.686C258.659 217.813 259.206 217.816 259.732 217.694C260.257 217.572 260.747 217.328 261.161 216.983C261.186 216.959 261.219 216.945 261.254 216.945C261.288 216.945 261.321 216.959 261.346 216.983C261.368 217.007 261.38 217.039 261.38 217.071C261.38 217.104 261.368 217.136 261.346 217.16C260.986 217.471 260.568 217.708 260.116 217.857C259.664 218.005 259.186 218.063 258.712 218.026Z" fill="#263238"/>
<path d="M269.871 218.426C269.291 219.278 268.397 219.866 267.384 220.061C266.038 220.313 265.483 219.077 265.964 217.841C266.393 216.753 267.606 215.318 268.924 215.621C269.21 215.692 269.475 215.833 269.692 216.033C269.91 216.232 270.073 216.484 270.168 216.763C270.262 217.043 270.284 217.342 270.232 217.633C270.181 217.923 270.056 218.196 269.871 218.426Z" fill="#FFB573"/>
<path d="M263.27 211.906C263.216 211.9 263.166 211.877 263.127 211.839C263.089 211.802 263.063 211.753 263.055 211.699C262.928 211.302 262.721 210.936 262.446 210.623C262.171 210.309 261.834 210.056 261.457 209.879C261.422 209.868 261.389 209.85 261.361 209.825C261.333 209.801 261.311 209.771 261.296 209.737C261.281 209.703 261.273 209.667 261.273 209.63C261.274 209.593 261.282 209.556 261.297 209.523C261.313 209.489 261.335 209.459 261.363 209.435C261.391 209.411 261.424 209.393 261.459 209.383C261.495 209.372 261.532 209.369 261.569 209.375C261.605 209.38 261.64 209.393 261.672 209.413C262.125 209.627 262.528 209.936 262.852 210.319C263.177 210.702 263.415 211.15 263.551 211.633C263.562 211.698 263.548 211.765 263.511 211.821C263.473 211.876 263.416 211.914 263.351 211.929L263.27 211.906Z" fill="#263238"/>
<path d="M255.181 208.377C255.135 208.378 255.091 208.368 255.051 208.347C255.01 208.326 254.976 208.296 254.951 208.258C254.915 208.201 254.902 208.132 254.916 208.065C254.929 207.999 254.969 207.941 255.025 207.903C255.359 207.673 255.742 207.526 256.144 207.475C256.545 207.423 256.953 207.469 257.334 207.607C257.366 207.62 257.394 207.639 257.419 207.663C257.443 207.688 257.461 207.717 257.474 207.748C257.486 207.78 257.492 207.814 257.491 207.849C257.49 207.883 257.482 207.916 257.467 207.947C257.454 207.977 257.434 208.005 257.41 208.027C257.386 208.05 257.358 208.068 257.327 208.079C257.296 208.091 257.263 208.096 257.23 208.095C257.197 208.094 257.164 208.087 257.134 208.073C256.83 207.971 256.507 207.941 256.19 207.986C255.872 208.031 255.57 208.15 255.306 208.332C255.269 208.358 255.226 208.373 255.181 208.377Z" fill="#263238"/>
<path d="M260.701 212.01L259.754 211.485C259.754 211.485 260.094 212.38 260.701 212.01Z" fill="#263238"/>
<path d="M270.896 262.219L271.451 264.173C271.533 264.328 271.348 264.484 271.096 264.484H248.585C248.386 264.484 248.223 264.38 248.215 264.262L248.016 262.301C248.016 262.167 248.171 262.049 248.386 262.049H270.541C270.61 262.044 270.679 262.056 270.742 262.086C270.804 262.116 270.857 262.162 270.896 262.219Z" fill="#1D99F2"/>
<path opacity="0.2" d="M270.896 262.219L271.451 264.173C271.533 264.328 271.348 264.484 271.096 264.484H248.585C248.386 264.484 248.223 264.38 248.215 264.262L248.016 262.301C248.016 262.167 248.171 262.049 248.386 262.049H270.541C270.61 262.044 270.679 262.056 270.742 262.086C270.804 262.116 270.857 262.162 270.896 262.219Z" fill="black"/>
<path d="M267.878 264.69H268.47C268.589 264.69 268.677 264.631 268.67 264.557L268.389 262.012C268.389 261.938 268.278 261.878 268.159 261.878H267.567C267.449 261.878 267.36 261.938 267.368 262.012L267.649 264.557C267.627 264.631 267.73 264.69 267.878 264.69Z" fill="#1D99F2"/>
<path opacity="0.4" d="M267.878 264.69H268.47C268.589 264.69 268.677 264.631 268.67 264.557L268.389 262.012C268.389 261.938 268.278 261.878 268.159 261.878H267.567C267.449 261.878 267.36 261.938 267.368 262.012L267.649 264.557C267.627 264.631 267.73 264.69 267.878 264.69Z" fill="black"/>
<path d="M250.254 264.69H250.846C250.964 264.69 251.06 264.631 251.053 264.557L250.772 262.012C250.772 261.938 250.661 261.878 250.542 261.878H249.95C249.832 261.878 249.743 261.938 249.75 262.012L250.024 264.557C250.032 264.631 250.12 264.69 250.254 264.69Z" fill="#1D99F2"/>
<path opacity="0.4" d="M250.254 264.69H250.846C250.964 264.69 251.06 264.631 251.053 264.557L250.772 262.012C250.772 261.938 250.661 261.878 250.542 261.878H249.95C249.832 261.878 249.743 261.938 249.75 262.012L250.024 264.557C250.032 264.631 250.12 264.69 250.254 264.69Z" fill="black"/>
<path d="M258.999 264.69H259.591C259.71 264.69 259.799 264.631 259.791 264.557L259.517 262.012C259.517 261.938 259.406 261.878 259.288 261.878H258.696C258.577 261.878 258.481 261.938 258.489 262.012L258.77 264.557C258.792 264.631 258.896 264.69 258.999 264.69Z" fill="#1D99F2"/>
<path opacity="0.4" d="M258.999 264.69H259.591C259.71 264.69 259.799 264.631 259.791 264.557L259.517 262.012C259.517 261.938 259.406 261.878 259.288 261.878H258.696C258.577 261.878 258.481 261.938 258.489 262.012L258.77 264.557C258.792 264.631 258.896 264.69 258.999 264.69Z" fill="black"/>
<path d="M257.423 267.88L252.117 265.505L253.597 270.766C253.597 270.766 256.972 271.506 258.437 269.841L257.423 267.88Z" fill="#FFB573"/>
<path d="M276.994 237.326C277.238 239.176 277.431 241.026 277.653 242.876L278.215 248.433C278.415 250.283 278.556 252.133 278.718 253.99L278.977 256.78L279.037 257.476C279.037 257.55 279.037 257.838 279.074 258.038C279.085 258.253 279.085 258.468 279.074 258.682C278.984 259.477 278.732 260.245 278.334 260.939C277.691 262.01 276.841 262.941 275.832 263.677C274.987 264.313 274.091 264.88 273.154 265.372C271.402 266.272 269.583 267.036 267.715 267.658C264.096 268.872 260.383 269.788 256.615 270.396L256.008 267.74C257.732 267.17 259.493 266.585 261.188 265.934C262.882 265.283 264.599 264.639 266.235 263.892C267.846 263.186 269.409 262.373 270.911 261.457C271.6 261.034 272.256 260.559 272.872 260.036C273.353 259.646 273.753 259.166 274.049 258.623C274.113 258.504 274.151 258.373 274.16 258.238L274.034 257.357L273.642 254.59C273.383 252.747 273.094 250.89 272.902 249.055L272.199 243.512C271.999 241.655 271.762 239.812 271.592 237.955L276.994 237.326Z" fill="#FFB573"/>
<path d="M274.442 230.836C276.662 231.502 279.267 239.05 279.267 239.05L271.578 246.946C271.578 246.946 267.642 238.806 268.567 236.001C269.543 233.048 271.941 230.081 274.442 230.836Z" fill="#263238"/>
<path d="M247.723 266.585L249.225 270.921L253.628 270.751L252.111 265.49L247.723 266.585Z" fill="#FFB573"/>
<path d="M256.405 163.052H159.243C158.391 163.052 157.574 162.713 156.972 162.111C156.37 161.509 156.031 160.692 156.031 159.84C156.031 159.419 156.114 159.001 156.276 158.612C156.437 158.223 156.674 157.869 156.972 157.572C157.271 157.274 157.625 157.038 158.014 156.878C158.404 156.717 158.821 156.635 159.243 156.636H256.405C257.255 156.636 258.07 156.973 258.671 157.574C259.271 158.175 259.609 158.99 259.609 159.84C259.61 160.261 259.528 160.679 259.367 161.068C259.207 161.458 258.971 161.812 258.673 162.11C258.376 162.409 258.022 162.645 257.633 162.807C257.243 162.968 256.826 163.052 256.405 163.052Z" fill="white"/>
<path d="M233.842 176.542H159.243C158.821 176.543 158.404 176.461 158.014 176.3C157.625 176.139 157.271 175.904 156.972 175.606C156.674 175.308 156.437 174.955 156.276 174.565C156.114 174.176 156.031 173.759 156.031 173.338C156.031 172.486 156.37 171.669 156.972 171.067C157.574 170.464 158.391 170.126 159.243 170.126H233.842C234.694 170.126 235.511 170.464 236.113 171.067C236.715 171.669 237.054 172.486 237.054 173.338C237.054 173.759 236.971 174.176 236.809 174.565C236.648 174.955 236.411 175.308 236.113 175.606C235.814 175.904 235.46 176.139 235.071 176.3C234.681 176.461 234.264 176.543 233.842 176.542Z" fill="white"/>
<path d="M173.692 225.448H210.759C211.611 225.448 212.428 225.11 213.03 224.507C213.632 223.905 213.971 223.088 213.971 222.236C213.971 221.815 213.888 221.398 213.726 221.009C213.565 220.619 213.328 220.266 213.03 219.968C212.731 219.67 212.377 219.435 211.988 219.274C211.598 219.113 211.18 219.031 210.759 219.032H173.692C172.843 219.032 172.028 219.37 171.427 219.971C170.826 220.572 170.488 221.387 170.488 222.236C170.487 222.658 170.569 223.075 170.73 223.465C170.891 223.855 171.127 224.209 171.424 224.507C171.722 224.805 172.075 225.042 172.465 225.203C172.854 225.365 173.271 225.448 173.692 225.448Z" fill="white"/>
<path d="M132.505 225.448H158.079C158.501 225.448 158.918 225.365 159.307 225.203C159.697 225.042 160.05 224.805 160.348 224.507C160.645 224.209 160.881 223.855 161.042 223.465C161.202 223.075 161.285 222.658 161.284 222.236C161.284 221.387 160.946 220.572 160.345 219.971C159.744 219.37 158.929 219.032 158.079 219.032H132.505C131.655 219.032 130.84 219.37 130.239 219.971C129.638 220.572 129.301 221.387 129.301 222.236C129.3 222.658 129.382 223.075 129.543 223.465C129.703 223.855 129.939 224.209 130.237 224.507C130.534 224.805 130.888 225.042 131.277 225.203C131.666 225.365 132.084 225.448 132.505 225.448Z" fill="white"/>
<path d="M113.599 238.938H210.761C211.182 238.939 211.6 238.857 211.989 238.696C212.379 238.536 212.733 238.3 213.031 238.002C213.33 237.705 213.566 237.351 213.728 236.962C213.889 236.573 213.972 236.155 213.972 235.734C213.972 234.882 213.634 234.065 213.032 233.463C212.429 232.861 211.613 232.522 210.761 232.522H113.599C113.177 232.522 112.76 232.606 112.371 232.767C111.982 232.929 111.628 233.165 111.33 233.464C111.033 233.762 110.797 234.116 110.636 234.506C110.476 234.895 110.394 235.313 110.395 235.734C110.395 236.584 110.732 237.399 111.333 238C111.934 238.601 112.749 238.938 113.599 238.938Z" fill="white"/>
<path d="M73.8747 70.2997C73.8747 70.9103 73.6936 71.5072 73.3542 72.0148C73.0148 72.5224 72.5324 72.9179 71.9681 73.1513C71.4038 73.3846 70.783 73.4453 70.1842 73.3256C69.5854 73.206 69.0356 72.9113 68.6043 72.479C68.1731 72.0467 67.8797 71.4962 67.7615 70.8971C67.6433 70.2981 67.7055 69.6774 67.9402 69.1137C68.1748 68.5499 68.5715 68.0685 69.0799 67.7303C69.5884 67.3921 70.1857 67.2124 70.7963 67.2139C71.6134 67.2158 72.3964 67.5418 72.9735 68.1203C73.5506 68.6988 73.8747 69.4826 73.8747 70.2997Z" fill="white"/>
<path d="M81.2811 73.3855C82.9853 73.3855 84.3669 72.0039 84.3669 70.2997C84.3669 68.5954 82.9853 67.2139 81.2811 67.2139C79.5769 67.2139 78.1953 68.5954 78.1953 70.2997C78.1953 72.0039 79.5769 73.3855 81.2811 73.3855Z" fill="white"/>
<path d="M91.7694 73.3855C93.4736 73.3855 94.8552 72.0039 94.8552 70.2997C94.8552 68.5954 93.4736 67.2139 91.7694 67.2139C90.0652 67.2139 88.6836 68.5954 88.6836 70.2997C88.6836 72.0039 90.0652 73.3855 91.7694 73.3855Z" fill="white"/>
</svg>
