<svg width="104" height="104" viewBox="0 0 104 104" fill="none" xmlns="http://www.w3.org/2000/svg">
<circle cx="52" cy="52" r="52" fill="#F6F7FA"/>
<mask id="mask0_114_12813" style="mask-type:alpha" maskUnits="userSpaceOnUse" x="0" y="0" width="104" height="104">
<circle cx="52" cy="52" r="52" fill="#DADADA"/>
</mask>
<g mask="url(#mask0_114_12813)">
<path d="M14.3003 104.001V98.6386C14.3003 88.683 18.2722 79.1353 25.3424 72.0956C32.4125 65.056 42.0016 61.1011 52.0003 61.1011C61.9989 61.1011 71.5881 65.056 78.6582 72.0956C85.7283 79.1353 89.7003 88.683 89.7003 98.6386V104.001H14.3003ZM52.0003 61.1011C57.7138 61.1011 63.1933 58.8412 67.2334 54.8186C71.2734 50.7959 73.5431 45.34 73.5431 39.6512C73.5431 33.9623 71.2734 28.5064 67.2334 24.4837C63.1933 20.4611 57.7138 18.2012 52.0003 18.2012C46.2868 18.2012 40.8072 20.4611 36.7672 24.4837C32.7271 28.5064 30.4574 33.9623 30.4574 39.6512C30.4574 45.34 32.7271 50.7959 36.7672 54.8186C40.8072 58.8412 46.2868 61.1011 52.0003 61.1011Z" fill="white"/>
</g>
</svg>
