<svg width="40" height="40" viewBox="0 0 40 40" fill="none" xmlns="http://www.w3.org/2000/svg">
<circle cx="20" cy="20" r="19.5" fill="white" stroke="#1D99F2"/>
<path d="M24 12.5L24 23L23.5 23C23.225 23 23 23.225 23 23.5L23 24.5C23 24.775 23.225 25 23.5 25L24 25L24 27.5C24 27.775 24.225 28 24.5 28L25.5 28C25.775 28 26 27.775 26 27.5L26 25L26.5 25C26.775 25 27 24.775 27 24.5L27 23.5C27 23.225 26.775 23 26.5 23L26 23L26 12.5C26 12.225 25.775 12 25.5 12L24.5 12C24.225 12 24 12.225 24 12.5ZM19 12.5L19 15L18.5 15C18.225 15 18 15.225 18 15.5L18 16.5C18 16.775 18.225 17 18.5 17L19 17L19 27.5C19 27.775 19.225 28 19.5 28L20.5 28C20.775 28 21 27.775 21 27.5L21 17L21.5 17C21.775 17 22 16.775 22 16.5L22 15.5C22 15.225 21.775 15 21.5 15L21 15L21 12.5C21 12.225 20.775 12 20.5 12L19.5 12C19.225 12 19 12.225 19 12.5ZM14 12.5L14 19L13.5 19C13.225 19 13 19.225 13 19.5L13 20.5C13 20.775 13.225 21 13.5 21L14 21L14 27.5C14 27.775 14.225 28 14.5 28L15.5 28C15.775 28 16 27.775 16 27.5L16 21L16.5 21C16.775 21 17 20.775 17 20.5L17 19.5C17 19.225 16.775 19 16.5 19L16 19L16 12.5C16 12.225 15.775 12 15.5 12L14.5 12C14.225 12 14 12.225 14 12.5Z" fill="#1D99F2"/>
</svg>
