<svg width="32" height="32" viewBox="0 0 32 32" fill="none" xmlns="http://www.w3.org/2000/svg">
<path d="M26.6227 9.88025C26.6028 9.6786 26.532 9.48531 26.417 9.31848C26.302 9.15165 26.1465 9.01673 25.9652 8.92634L16.3662 4.12685C16.1995 4.04343 16.0157 4 15.8293 4C15.6428 4 15.459 4.04343 15.2923 4.12685L5.69331 8.92634C5.51246 9.01724 5.35748 9.15233 5.24275 9.31908C5.12802 9.48583 5.05724 9.67885 5.03698 9.88025C5.02378 10.0086 3.8839 22.7993 15.3427 27.8952C15.4958 27.9643 15.6619 28 15.8299 28C15.9978 28 16.1639 27.9643 16.317 27.8952C27.7758 22.7993 26.6359 10.0098 26.6227 9.88025ZM15.8299 25.475C7.7079 21.549 7.32394 13.1703 7.38994 10.7622L15.8299 6.54219L24.2638 10.7598C24.3082 13.1463 23.8702 21.5802 15.8299 25.475Z" fill="#1D99F2"/>
<path d="M14.6296 16.7027L11.8783 13.9514L10.1816 15.648L14.6296 20.0959L21.4773 13.2483L19.7806 11.5516L14.6296 16.7027Z" fill="#1D99F2"/>
</svg>
