<svg width="20" height="16" viewBox="0 0 20 16" fill="none" xmlns="http://www.w3.org/2000/svg">
<path d="M9.99992 2.99996C13.1583 2.99996 15.9749 4.77496 17.3499 7.58329C16.8582 8.59996 16.1666 9.47496 15.3416 10.1833L16.5166 11.3583C17.6749 10.3333 18.5916 9.04996 19.1666 7.58329C17.7249 3.92496 14.1666 1.33329 9.99992 1.33329C8.94158 1.33329 7.92492 1.49996 6.96658 1.80829L8.34158 3.18329C8.88325 3.07496 9.43325 2.99996 9.99992 2.99996ZM9.10825 3.94996L10.8333 5.67496C11.3083 5.88329 11.6916 6.26663 11.8999 6.74163L13.6249 8.46663C13.6916 8.18329 13.7416 7.88329 13.7416 7.57496C13.7499 5.50829 12.0666 3.83329 9.99992 3.83329C9.69158 3.83329 9.39992 3.87496 9.10825 3.94996ZM1.67492 1.22496L3.90825 3.45829C2.54992 4.52496 1.47492 5.94163 0.833252 7.58329C2.27492 11.2416 5.83325 13.8333 9.99992 13.8333C11.2666 13.8333 12.4833 13.5916 13.5999 13.15L16.4499 16L17.6249 14.825L2.84992 0.041626L1.67492 1.22496ZM7.92492 7.47496L10.0999 9.64996C10.0666 9.65829 10.0333 9.66663 9.99992 9.66663C8.84992 9.66663 7.91658 8.73329 7.91658 7.58329C7.91658 7.54163 7.92492 7.51663 7.92492 7.47496ZM5.09159 4.64163L6.54992 6.09996C6.35825 6.55829 6.24992 7.05829 6.24992 7.58329C6.24992 9.64996 7.93325 11.3333 9.99992 11.3333C10.5249 11.3333 11.0249 11.225 11.4749 11.0333L12.2916 11.85C11.5583 12.05 10.7916 12.1666 9.99992 12.1666C6.84158 12.1666 4.02492 10.3916 2.64992 7.58329C3.23325 6.39163 4.08325 5.40829 5.09159 4.64163Z" fill="#979797"/>
</svg>
