<svg width="32" height="32" viewBox="0 0 32 32" fill="none" xmlns="http://www.w3.org/2000/svg">
<path d="M24.7987 7.90063H4V23.8997H24.7987V7.90063ZM23.1988 22.2998H5.5999V9.50054H23.1988V22.2998Z" fill="#1D99F2"/>
<path d="M26.4008 11.9003V25.4994H8.00195V27.0993H28.0007V11.9003H26.4008Z" fill="#1D99F2"/>
<path d="M14.4015 19.8232C16.3864 19.8232 18.0013 18.0665 18.0013 15.9071C18.0013 13.7478 16.3864 11.9911 14.4015 11.9911C12.4167 11.9911 10.8018 13.7478 10.8018 15.9071C10.8018 18.0665 12.4167 19.8232 14.4015 19.8232ZM14.4015 13.591C15.5043 13.591 16.4014 14.63 16.4014 15.9071C16.4014 17.1843 15.5043 18.2233 14.4015 18.2233C13.2988 18.2233 12.4017 17.1843 12.4017 15.9071C12.4017 14.63 13.2988 13.591 14.4015 13.591Z" fill="#1D99F2"/>
<path d="M7.2002 11.5006H8.8001V20.3001H7.2002V11.5006Z" fill="#1D99F2"/>
<path d="M19.998 11.5006H21.598V20.3001H19.998V11.5006Z" fill="#1D99F2"/>
</svg>
