<svg width="422" height="422" viewBox="0 0 422 422" fill="none" xmlns="http://www.w3.org/2000/svg">
<path d="M422 322.746H0V322.957H422V322.746Z" fill="#EBEBEB"/>
<path d="M57.83 330.78H44.2754V330.991H57.83V330.78Z" fill="#EBEBEB"/>
<path d="M189.621 328.493H144.441V328.704H189.621V328.493Z" fill="#EBEBEB"/>
<path d="M89.2708 338.621H58.6758V338.832H89.2708V338.621Z" fill="#EBEBEB"/>
<path d="M356.446 328.383H319.994V328.594H356.446V328.383Z" fill="#EBEBEB"/>
<path d="M369.309 328.383H363.967V328.594H369.309V328.383Z" fill="#EBEBEB"/>
<path d="M313.032 333.642H267.549V333.853H313.032V333.642Z" fill="#EBEBEB"/>
<path d="M200.029 285.103H37.0608C35.7841 285.101 34.5605 284.592 33.6585 283.689C32.7566 282.785 32.25 281.561 32.25 280.284V51.197C32.2611 49.9276 32.7726 48.7139 33.6734 47.8195C34.5741 46.925 35.7914 46.4221 37.0608 46.4199H200.029C201.307 46.4199 202.533 46.9277 203.436 47.8314C204.34 48.7352 204.848 49.961 204.848 51.2392V280.284C204.848 281.562 204.34 282.788 203.436 283.692C202.533 284.595 201.307 285.103 200.029 285.103ZM37.0608 46.5887C35.8401 46.591 34.6701 47.0775 33.8077 47.9414C32.9453 48.8054 32.461 49.9762 32.461 51.197V280.284C32.461 281.505 32.9453 282.675 33.8077 283.539C34.6701 284.403 35.8401 284.89 37.0608 284.892H200.029C201.25 284.89 202.421 284.404 203.285 283.54C204.149 282.676 204.635 281.505 204.637 280.284V51.197C204.635 49.9755 204.149 48.8046 203.285 47.9409C202.421 47.0772 201.25 46.591 200.029 46.5887H37.0608Z" fill="#EBEBEB"/>
<path d="M382.594 285.103H219.618C218.341 285.101 217.116 284.592 216.213 283.689C215.31 282.786 214.801 281.561 214.799 280.284V51.197C214.812 49.9268 215.326 48.7131 216.228 47.8189C217.13 46.9247 218.348 46.4221 219.618 46.4199H382.594C383.862 46.4243 385.078 46.9282 385.976 47.8224C386.875 48.7166 387.386 49.9291 387.397 51.197V280.284C387.397 281.559 386.891 282.782 385.991 283.686C385.091 284.589 383.87 285.099 382.594 285.103ZM219.618 46.5887C218.397 46.591 217.226 47.0772 216.362 47.9409C215.498 48.8046 215.012 49.9755 215.01 51.197V280.284C215.012 281.505 215.498 282.676 216.362 283.54C217.226 284.404 218.397 284.89 219.618 284.892H382.594C383.816 284.89 384.987 284.404 385.851 283.54C386.714 282.676 387.2 281.505 387.203 280.284V51.197C387.2 49.9755 386.714 48.8046 385.851 47.9409C384.987 47.0772 383.816 46.591 382.594 46.5887H219.618Z" fill="#EBEBEB"/>
<path d="M334.52 252.196H328.916V322.746H334.52V252.196Z" fill="#F5F5F5"/>
<path d="M336.958 252.196H332.08V322.746H336.958V252.196Z" fill="#F0F0F0"/>
<path d="M203.801 252.196H198.197V322.746H203.801V252.196Z" fill="#F5F5F5"/>
<path d="M206.24 252.196H201.361V322.746H206.24V252.196Z" fill="#F0F0F0"/>
<path d="M355.762 252.196H350.158V322.746H355.762V252.196Z" fill="#F5F5F5"/>
<path d="M358.203 252.196H353.324V322.746H358.203V252.196Z" fill="#F0F0F0"/>
<path d="M225.044 252.196H219.439V322.746H225.044V252.196Z" fill="#F5F5F5"/>
<path d="M198.204 253.529L358.201 253.529V250.854L198.204 250.854V253.529Z" fill="#F0F0F0"/>
<path d="M198.197 253.529H222.605V250.854H198.197V253.529Z" fill="#E6E6E6"/>
<path d="M227.484 252.196H222.605V322.746H227.484V252.196Z" fill="#F0F0F0"/>
<path d="M278.217 199.471H263.084V250.853H278.217V199.471Z" fill="#EBEBEB"/>
<path d="M319.252 250.854H269.017L261.43 190.719H311.665L319.252 250.854Z" fill="#E0E0E0"/>
<path d="M322.205 250.854H270.316L262.729 190.719H314.618L322.205 250.854Z" fill="#F0F0F0"/>
<path d="M293.096 250.854H283.027L285.863 190.719H295.932L293.096 250.854Z" fill="#FAFAFA"/>
<path d="M304.633 250.854H294.725L297.56 190.719H307.469L304.633 250.854Z" fill="#FAFAFA"/>
<path d="M363.723 61.1982H233.215V163.314H363.723V61.1982Z" fill="#E6E6E6"/>
<path d="M367.637 61.1982H235.045V163.314H367.637V61.1982Z" fill="#F0F0F0"/>
<path d="M363.723 163.314H233.215V166.732H363.723V163.314Z" fill="#E6E6E6"/>
<path d="M369.723 163.314H237.131V166.732H369.723V163.314Z" fill="#F0F0F0"/>
<path d="M362.16 157.828V66.6758L240.531 66.6758V157.828H362.16Z" fill="#FAFAFA"/>
<path d="M307.09 157.828L315.867 66.6846H331.059L322.282 157.828H307.09Z" fill="white"/>
<path d="M268.756 157.828L277.533 66.6846H292.725L283.948 157.828H268.756Z" fill="white"/>
<path d="M243.072 126.938C242.961 126.935 242.856 126.89 242.779 126.811C242.701 126.732 242.658 126.626 242.658 126.516V70.2462C242.658 70.1343 242.703 70.027 242.782 69.9478C242.861 69.8687 242.968 69.8242 243.08 69.8242C243.192 69.8242 243.299 69.8687 243.379 69.9478C243.458 70.027 243.502 70.1343 243.502 70.2462V126.516C243.502 126.572 243.491 126.627 243.469 126.679C243.448 126.731 243.416 126.778 243.376 126.817C243.336 126.856 243.288 126.887 243.236 126.908C243.184 126.929 243.128 126.939 243.072 126.938Z" fill="#F0F0F0"/>
<path d="M325.539 157.828L334.317 66.6846H340.242L331.464 157.828H325.539Z" fill="white"/>
<path d="M362.16 157.837V66.6846H361.468V157.837H362.16Z" fill="#E6E6E6"/>
<path opacity="0.5" d="M368.938 76.618H238.43L237.924 68.811H368.432L368.938 76.618Z" fill="#E0E0E0"/>
<path opacity="0.5" d="M368.938 89.4554H238.43L237.924 81.6484H368.432L368.938 89.4554Z" fill="#E0E0E0"/>
<path opacity="0.5" d="M368.938 102.293H238.43L237.924 94.4858H368.432L368.938 102.293Z" fill="#E0E0E0"/>
<path opacity="0.5" d="M368.938 115.13H238.43L237.924 107.323H368.432L368.938 115.13Z" fill="#E0E0E0"/>
<path opacity="0.5" d="M368.938 127.959H238.43L237.924 120.152H368.432L368.938 127.959Z" fill="#E0E0E0"/>
<path opacity="0.5" d="M368.938 140.796H238.43L237.924 132.989H368.432L368.938 140.796Z" fill="#E0E0E0"/>
<path opacity="0.5" d="M368.938 83.0409H238.43L237.924 75.2339H368.432L368.938 83.0409Z" fill="#E0E0E0"/>
<path opacity="0.5" d="M368.938 95.87H238.43L237.924 88.063H368.432L368.938 95.87Z" fill="#E0E0E0"/>
<path opacity="0.5" d="M368.938 108.707H238.43L237.924 100.9H368.432L368.938 108.707Z" fill="#E0E0E0"/>
<path opacity="0.5" d="M368.938 121.544H238.43L237.924 113.737H368.432L368.938 121.544Z" fill="#E0E0E0"/>
<path opacity="0.5" d="M368.938 134.382H238.43L237.924 126.575H368.432L368.938 134.382Z" fill="#E0E0E0"/>
<path opacity="0.5" d="M368.938 147.219H238.43L237.924 139.403H368.432L368.938 147.219Z" fill="#E0E0E0"/>
<path d="M83.7242 111.88H101.44C103.686 111.88 105.508 110.059 105.508 107.812V101.01C105.508 98.7629 103.686 96.9416 101.44 96.9416H83.7242C81.4774 96.9416 79.6561 98.7629 79.6561 101.01V107.812C79.6561 110.059 81.4774 111.88 83.7242 111.88Z" fill="#F5F5F5"/>
<path d="M83.7242 96.9331H101.44C103.686 96.9331 105.508 95.1118 105.508 92.865V86.0624C105.508 83.8156 103.686 81.9943 101.44 81.9943H83.7242C81.4774 81.9943 79.6561 83.8156 79.6561 86.0624V92.865C79.6561 95.1118 81.4774 96.9331 83.7242 96.9331Z" fill="#F5F5F5"/>
<path d="M89.5152 81.9946H95.6511C96.4295 81.9946 97.0605 81.3636 97.0605 80.5851V78.2304C97.0605 77.452 96.4295 76.8209 95.6511 76.8209H89.5152C88.7368 76.8209 88.1057 77.452 88.1057 78.2304V80.5851C88.1057 81.3636 88.7368 81.9946 89.5152 81.9946Z" fill="#E0E0E0"/>
<path d="M83.7242 126.811H101.44C103.686 126.811 105.508 124.99 105.508 122.743V115.94C105.508 113.694 103.686 111.872 101.44 111.872H83.7242C81.4774 111.872 79.6561 113.694 79.6561 115.94V122.743C79.6561 124.99 81.4774 126.811 83.7242 126.811Z" fill="#F5F5F5"/>
<path d="M177.679 116.472C177.679 116.472 176.835 126.853 144.012 126.853C111.188 126.853 110.336 116.472 110.336 116.472H177.679Z" fill="#F0F0F0"/>
<path d="M77.0062 128.921H50.9941V313.107H77.0062V128.921Z" fill="#F0F0F0"/>
<path d="M184.254 313.107H55.9824V322.745H184.254V313.107Z" fill="#F0F0F0"/>
<path d="M77.0064 313.099H189.25L189.25 128.912H77.0064L77.0064 313.099Z" fill="#F5F5F5"/>
<path d="M87.228 237.831H179.021V194.365H87.228V237.831Z" fill="#F0F0F0"/>
<path d="M87.228 290.994H179.021V247.528H87.228V290.994Z" fill="#F0F0F0"/>
<path d="M87.228 306.667H179.021V300.042H87.228V306.667Z" fill="#F0F0F0"/>
<path d="M156.453 197.808H109.796C108.83 197.806 107.904 197.421 107.221 196.738C106.537 196.054 106.153 195.128 106.15 194.162C106.155 193.197 106.541 192.273 107.224 191.592C107.907 190.91 108.832 190.527 109.796 190.524H156.453C157.418 190.527 158.343 190.91 159.026 191.592C159.709 192.273 160.094 193.197 160.099 194.162C160.097 195.128 159.712 196.054 159.029 196.738C158.345 197.421 157.419 197.806 156.453 197.808Z" fill="#F5F5F5"/>
<path d="M87.228 184.676H179.021V141.21H87.228V184.676Z" fill="#F0F0F0"/>
<path d="M156.453 144.653H109.796C108.83 144.651 107.904 144.266 107.221 143.583C106.537 142.899 106.153 141.973 106.15 141.007C106.153 140.041 106.537 139.115 107.221 138.431C107.904 137.748 108.83 137.363 109.796 137.361H156.453C157.419 137.363 158.345 137.748 159.029 138.431C159.712 139.115 160.097 140.041 160.099 141.007C160.097 141.973 159.712 142.899 159.029 143.583C158.345 144.266 157.419 144.651 156.453 144.653Z" fill="#F5F5F5"/>
<path d="M156.453 250.972H109.796C108.83 250.97 107.904 250.585 107.221 249.901C106.537 249.218 106.153 248.292 106.15 247.326C106.153 246.359 106.537 245.433 107.221 244.75C107.904 244.067 108.83 243.682 109.796 243.68H156.453C157.419 243.682 158.345 244.067 159.029 244.75C159.712 245.433 160.097 246.359 160.099 247.326C160.097 248.292 159.712 249.218 159.029 249.901C158.345 250.585 157.419 250.97 156.453 250.972Z" fill="#F5F5F5"/>
<path d="M192.71 126.819H76.998V128.921H192.71V126.819Z" fill="#F0F0F0"/>
<path d="M47.3646 128.921H77.0059V126.819H47.3646V128.921Z" fill="#E6E6E6"/>
<path d="M211.001 360.861C301.378 360.861 374.644 356.583 374.644 351.306C374.644 346.03 301.378 341.752 211.001 341.752C120.623 341.752 47.3574 346.03 47.3574 351.306C47.3574 356.583 120.623 360.861 211.001 360.861Z" fill="#F5F5F5"/>
<path d="M373.099 267.641H48.9013L42.9258 261.986H379.074L373.099 267.641Z" fill="#1D99F2"/>
<path opacity="0.5" d="M373.099 267.641H48.9013L42.9258 261.986H379.074L373.099 267.641Z" fill="white"/>
<path d="M345.297 270.688H76.7023L71.748 267.641H350.251L345.297 270.688Z" fill="#1D99F2"/>
<path opacity="0.5" d="M345.297 270.688H76.7023L71.748 267.641H350.251L345.297 270.688Z" fill="black"/>
<path d="M74.5758 351.306H70.7188L82.6782 270.688H91.2786L74.5758 351.306Z" fill="#1D99F2"/>
<path opacity="0.5" d="M74.5758 351.306H70.7188L82.6782 270.688H91.2786L74.5758 351.306Z" fill="black"/>
<path d="M95.4561 351.306H91.6074L103.567 270.688H112.167L95.4561 351.306Z" fill="#1D99F2"/>
<path opacity="0.5" d="M95.4561 351.306H91.6074L103.567 270.688H112.167L95.4561 351.306Z" fill="black"/>
<path d="M347.424 351.306H351.281L339.321 270.688H330.721L347.424 351.306Z" fill="#1D99F2"/>
<path opacity="0.5" d="M347.424 351.306H351.281L339.321 270.688H330.721L347.424 351.306Z" fill="black"/>
<path d="M326.543 351.306H330.392L318.432 270.688H309.832L326.543 351.306Z" fill="#1D99F2"/>
<path opacity="0.5" d="M326.543 351.306H330.392L318.432 270.688H309.832L326.543 351.306Z" fill="black"/>
<path d="M189.293 80.2982L200.189 81.0325C200.612 81.0586 201.019 81.1998 201.367 81.4408C201.715 81.6818 201.991 82.0134 202.164 82.3998L203.312 84.9318C203.561 85.4785 204.011 85.9078 204.569 86.1302C205.936 86.692 207.262 87.3491 208.536 88.0968C209.045 88.3958 209.647 88.4923 210.224 88.3668L212.959 87.7254C213.371 87.6303 213.801 87.6484 214.203 87.7776C214.606 87.9069 214.966 88.1425 215.246 88.4597L222.437 96.6802C222.716 97 222.902 97.3897 222.977 97.8075C223.051 98.2253 223.01 98.6555 222.859 99.0519L221.863 101.668C221.653 102.232 221.668 102.854 221.905 103.407C222.476 104.779 222.949 106.189 223.323 107.627C223.467 108.209 223.834 108.712 224.344 109.028L226.724 110.505C227.084 110.727 227.377 111.043 227.57 111.42C227.764 111.796 227.851 112.218 227.821 112.64L227.096 123.545C227.068 123.967 226.925 124.374 226.683 124.72C226.44 125.067 226.107 125.341 225.72 125.511L223.188 126.659C222.645 126.913 222.217 127.362 221.989 127.917C221.434 129.285 220.78 130.611 220.031 131.883C219.73 132.391 219.633 132.995 219.761 133.571L220.394 136.298C220.492 136.71 220.476 137.14 220.346 137.544C220.217 137.947 219.979 138.307 219.66 138.585L211.439 145.776C211.121 146.055 210.733 146.242 210.317 146.316C209.9 146.39 209.471 146.349 209.076 146.198L206.451 145.202C205.896 144.982 205.277 144.982 204.721 145.202C203.348 145.77 201.938 146.244 200.501 146.62C199.92 146.767 199.418 147.133 199.1 147.641L197.623 150.021C197.399 150.381 197.081 150.674 196.703 150.867C196.326 151.06 195.903 151.147 195.479 151.118L184.583 150.392C184.161 150.364 183.755 150.223 183.407 149.982C183.059 149.741 182.783 149.41 182.608 149.025L181.461 146.493C181.212 145.946 180.761 145.517 180.203 145.295C178.836 144.733 177.511 144.076 176.236 143.328C175.728 143.028 175.125 142.932 174.548 143.058L171.822 143.699C171.41 143.796 170.979 143.779 170.577 143.65C170.174 143.521 169.813 143.284 169.535 142.965L162.336 134.745C162.058 134.424 161.873 134.034 161.798 133.617C161.724 133.199 161.764 132.77 161.914 132.373L162.909 129.757C163.12 129.196 163.105 128.576 162.867 128.026C162.298 126.654 161.825 125.244 161.449 123.806C161.305 123.224 160.939 122.721 160.428 122.405L158.048 120.928C157.688 120.706 157.395 120.39 157.202 120.014C157.009 119.637 156.922 119.215 156.951 118.793L157.677 107.889C157.706 107.466 157.85 107.059 158.092 106.711C158.334 106.364 158.666 106.088 159.052 105.914L161.584 104.774C162.131 104.525 162.56 104.075 162.783 103.517C163.345 102.147 164.002 100.819 164.749 99.5414C165.051 99.0335 165.15 98.4311 165.028 97.8534L164.386 95.1273C164.29 94.7153 164.307 94.2847 164.436 93.8817C164.565 93.4787 164.802 93.1186 165.121 92.84L173.341 85.6492C173.659 85.3695 174.047 85.1817 174.463 85.1058C174.879 85.03 175.309 85.069 175.704 85.2187L178.329 86.2146C178.884 86.4385 179.505 86.4385 180.06 86.2146C181.431 85.6428 182.841 85.169 184.28 84.7967C184.857 84.6474 185.358 84.2858 185.681 83.7839L187.158 81.4038C187.381 81.0441 187.697 80.7513 188.073 80.5567C188.449 80.362 188.87 80.2727 189.293 80.2982ZM171.78 114.37C171.507 118.45 172.45 122.518 174.489 126.062C176.528 129.605 179.573 132.464 183.237 134.277C186.902 136.09 191.022 136.776 195.076 136.247C199.13 135.719 202.936 134 206.013 131.307C209.09 128.615 211.3 125.071 212.363 121.123C213.425 117.175 213.293 113.001 211.983 109.128C210.673 105.255 208.244 101.858 205.002 99.3656C201.761 96.8735 197.854 95.3985 193.775 95.1273C188.307 94.766 182.919 96.5897 178.795 100.198C174.671 103.806 172.148 108.903 171.78 114.37Z" fill="#1D99F2"/>
<path d="M232.481 126.364L236.22 125.098C236.417 125.033 236.629 125.022 236.832 125.067C237.036 125.111 237.223 125.209 237.376 125.351L237.992 125.942C238.208 126.135 238.487 126.243 238.777 126.246C239.291 126.245 239.804 126.279 240.313 126.347C240.46 126.371 240.611 126.365 240.755 126.33C240.9 126.296 241.037 126.232 241.157 126.144L241.849 125.646C242.02 125.527 242.219 125.455 242.427 125.438C242.635 125.422 242.844 125.462 243.031 125.553L246.567 127.309C246.753 127.4 246.911 127.54 247.024 127.714C247.137 127.888 247.201 128.089 247.209 128.296V129.14C247.22 129.433 247.34 129.71 247.546 129.917C247.91 130.278 248.249 130.665 248.559 131.073C248.736 131.303 248.991 131.46 249.276 131.512L250.12 131.647C250.325 131.681 250.517 131.771 250.675 131.906C250.832 132.042 250.95 132.218 251.015 132.415L252.281 136.154C252.35 136.351 252.363 136.563 252.32 136.767C252.277 136.97 252.179 137.159 252.036 137.31L251.445 137.927C251.251 138.142 251.142 138.421 251.142 138.711C251.142 139.225 251.108 139.738 251.04 140.248C251.016 140.394 251.02 140.544 251.053 140.689C251.087 140.834 251.148 140.971 251.234 141.092L251.732 141.784C251.855 141.951 251.93 142.149 251.948 142.356C251.966 142.563 251.926 142.771 251.834 142.957L250.078 146.502C249.987 146.688 249.847 146.846 249.673 146.959C249.499 147.072 249.298 147.135 249.091 147.143H248.247C247.957 147.152 247.681 147.273 247.479 147.481C247.111 147.838 246.725 148.176 246.322 148.493C246.092 148.67 245.936 148.926 245.883 149.211L245.748 150.055C245.714 150.26 245.624 150.452 245.489 150.609C245.354 150.767 245.178 150.885 244.98 150.949L241.241 152.215C241.044 152.283 240.832 152.295 240.628 152.251C240.424 152.206 240.236 152.106 240.085 151.962L239.461 151.38C239.249 151.18 238.967 151.071 238.676 151.076C238.165 151.076 237.654 151.042 237.148 150.975C237.002 150.95 236.851 150.954 236.707 150.987C236.562 151.021 236.425 151.082 236.304 151.169L235.612 151.667C235.443 151.79 235.243 151.864 235.035 151.882C234.827 151.9 234.618 151.86 234.43 151.768L230.894 150.013C230.707 149.921 230.548 149.779 230.435 149.604C230.322 149.428 230.259 149.225 230.253 149.017V148.173C230.239 147.884 230.119 147.61 229.915 147.405C229.553 147.041 229.215 146.655 228.902 146.248C228.817 146.132 228.71 146.033 228.587 145.957C228.464 145.882 228.327 145.832 228.185 145.81L227.341 145.674C227.136 145.637 226.945 145.547 226.786 145.412C226.627 145.277 226.507 145.103 226.438 144.906L225.172 141.159C225.107 140.963 225.096 140.752 225.14 140.55C225.185 140.348 225.283 140.162 225.425 140.011L226.016 139.395C226.211 139.177 226.319 138.895 226.32 138.602C226.319 138.088 226.353 137.575 226.421 137.066C226.467 136.769 226.394 136.465 226.218 136.222L225.729 135.53C225.606 135.362 225.531 135.164 225.513 134.957C225.496 134.75 225.535 134.542 225.627 134.356L227.383 130.812C227.473 130.625 227.613 130.468 227.787 130.356C227.962 130.244 228.163 130.183 228.37 130.179H229.214C229.506 130.167 229.784 130.047 229.991 129.841C230.354 129.479 230.74 129.141 231.147 128.828C231.377 128.652 231.534 128.396 231.586 128.111L231.721 127.267C231.753 127.061 231.841 126.868 231.975 126.709C232.109 126.55 232.284 126.431 232.481 126.364ZM234.717 140.02C234.986 140.809 235.483 141.501 236.144 142.009C236.806 142.516 237.603 142.816 238.436 142.871C239.268 142.926 240.098 142.733 240.82 142.316C241.543 141.9 242.125 141.278 242.495 140.531C242.865 139.783 243.005 138.943 242.897 138.116C242.79 137.289 242.439 136.512 241.891 135.884C241.342 135.256 240.62 134.805 239.815 134.587C239.01 134.369 238.158 134.394 237.367 134.66C236.841 134.837 236.355 135.117 235.936 135.482C235.518 135.847 235.176 136.292 234.93 136.79C234.683 137.288 234.538 137.829 234.501 138.384C234.465 138.938 234.538 139.494 234.717 140.02Z" fill="#1D99F2"/>
<path opacity="0.5" d="M232.481 126.364L236.22 125.098C236.417 125.033 236.629 125.022 236.832 125.067C237.036 125.111 237.223 125.209 237.376 125.351L237.992 125.942C238.208 126.135 238.487 126.243 238.777 126.246C239.291 126.245 239.804 126.279 240.313 126.347C240.46 126.371 240.611 126.365 240.755 126.33C240.9 126.296 241.037 126.232 241.157 126.144L241.849 125.646C242.02 125.527 242.219 125.455 242.427 125.438C242.635 125.422 242.844 125.462 243.031 125.553L246.567 127.309C246.753 127.4 246.911 127.54 247.024 127.714C247.137 127.888 247.201 128.089 247.209 128.296V129.14C247.22 129.433 247.34 129.71 247.546 129.917C247.91 130.278 248.249 130.665 248.559 131.073C248.736 131.303 248.991 131.46 249.276 131.512L250.12 131.647C250.325 131.681 250.517 131.771 250.675 131.906C250.832 132.042 250.95 132.218 251.015 132.415L252.281 136.154C252.35 136.351 252.363 136.563 252.32 136.767C252.277 136.97 252.179 137.159 252.036 137.31L251.445 137.927C251.251 138.142 251.142 138.421 251.142 138.711C251.142 139.225 251.108 139.738 251.04 140.248C251.016 140.394 251.02 140.544 251.053 140.689C251.087 140.834 251.148 140.971 251.234 141.092L251.732 141.784C251.855 141.951 251.93 142.149 251.948 142.356C251.966 142.563 251.926 142.771 251.834 142.957L250.078 146.502C249.987 146.688 249.847 146.846 249.673 146.959C249.499 147.072 249.298 147.135 249.091 147.143H248.247C247.957 147.152 247.681 147.273 247.479 147.481C247.111 147.838 246.725 148.176 246.322 148.493C246.092 148.67 245.936 148.926 245.883 149.211L245.748 150.055C245.714 150.26 245.624 150.452 245.489 150.609C245.354 150.767 245.178 150.885 244.98 150.949L241.241 152.215C241.044 152.283 240.832 152.295 240.628 152.251C240.424 152.206 240.236 152.106 240.085 151.962L239.461 151.38C239.249 151.18 238.967 151.071 238.676 151.076C238.165 151.076 237.654 151.042 237.148 150.975C237.002 150.95 236.851 150.954 236.707 150.987C236.562 151.021 236.425 151.082 236.304 151.169L235.612 151.667C235.443 151.79 235.243 151.864 235.035 151.882C234.827 151.9 234.618 151.86 234.43 151.768L230.894 150.013C230.707 149.921 230.548 149.779 230.435 149.604C230.322 149.428 230.259 149.225 230.253 149.017V148.173C230.239 147.884 230.119 147.61 229.915 147.405C229.553 147.041 229.215 146.655 228.902 146.248C228.817 146.132 228.71 146.033 228.587 145.957C228.464 145.882 228.327 145.832 228.185 145.81L227.341 145.674C227.136 145.637 226.945 145.547 226.786 145.412C226.627 145.277 226.507 145.103 226.438 144.906L225.172 141.159C225.107 140.963 225.096 140.752 225.14 140.55C225.185 140.348 225.283 140.162 225.425 140.011L226.016 139.395C226.211 139.177 226.319 138.895 226.32 138.602C226.319 138.088 226.353 137.575 226.421 137.066C226.467 136.769 226.394 136.465 226.218 136.222L225.729 135.53C225.606 135.362 225.531 135.164 225.513 134.957C225.496 134.75 225.535 134.542 225.627 134.356L227.383 130.812C227.473 130.625 227.613 130.468 227.787 130.356C227.962 130.244 228.163 130.183 228.37 130.179H229.214C229.506 130.167 229.784 130.047 229.991 129.841C230.354 129.479 230.74 129.141 231.147 128.828C231.377 128.652 231.534 128.396 231.586 128.111L231.721 127.267C231.753 127.061 231.841 126.868 231.975 126.709C232.109 126.55 232.284 126.431 232.481 126.364ZM234.717 140.02C234.986 140.809 235.483 141.501 236.144 142.009C236.806 142.516 237.603 142.816 238.436 142.871C239.268 142.926 240.098 142.733 240.82 142.316C241.543 141.9 242.125 141.278 242.495 140.531C242.865 139.783 243.005 138.943 242.897 138.116C242.79 137.289 242.439 136.512 241.891 135.884C241.342 135.256 240.62 134.805 239.815 134.587C239.01 134.369 238.158 134.394 237.367 134.66C236.841 134.837 236.355 135.117 235.936 135.482C235.518 135.847 235.176 136.292 234.93 136.79C234.683 137.288 234.538 137.829 234.501 138.384C234.465 138.938 234.538 139.494 234.717 140.02Z" fill="white"/>
<path d="M210.916 166.893L215.558 158.849C215.73 158.55 215.821 158.211 215.822 157.866C215.823 157.521 215.733 157.182 215.563 156.882C215.392 156.582 215.147 156.331 214.85 156.155C214.553 155.979 214.215 155.884 213.87 155.878H204.586C204.24 155.881 203.901 155.975 203.603 156.151C203.305 156.326 203.058 156.577 202.887 156.878C202.716 157.179 202.627 157.519 202.629 157.865C202.631 158.211 202.724 158.55 202.898 158.849L207.54 166.893C207.718 167.181 207.966 167.418 208.262 167.583C208.557 167.748 208.89 167.835 209.228 167.835C209.567 167.835 209.899 167.748 210.195 167.583C210.49 167.418 210.739 167.181 210.916 166.893Z" fill="#1D99F2"/>
<path d="M58.8183 258.618H172.598C172.989 258.62 173.375 258.542 173.735 258.391C174.095 258.239 174.421 258.016 174.693 257.736C174.965 257.455 175.177 257.122 175.318 256.758C175.458 256.393 175.523 256.004 175.51 255.614L172.817 174.269C172.781 173.464 172.438 172.704 171.859 172.144C171.28 171.583 170.509 171.266 169.703 171.256H55.9318C55.5401 171.253 55.1519 171.33 54.7907 171.482C54.4296 171.634 54.103 171.857 53.8308 172.139C53.5586 172.421 53.3463 172.755 53.207 173.121C53.0676 173.487 53.004 173.878 53.02 174.269L55.7039 255.614C55.7365 256.419 56.0784 257.181 56.6585 257.741C57.2386 258.3 58.0122 258.615 58.8183 258.618Z" fill="#1D99F2"/>
<path d="M59.7476 258.618H173.527C173.918 258.62 174.305 258.542 174.665 258.391C175.025 258.239 175.351 258.016 175.622 257.736C175.894 257.455 176.107 257.122 176.247 256.758C176.387 256.393 176.453 256.004 176.439 255.614L173.747 174.269C173.71 173.464 173.367 172.704 172.788 172.144C172.209 171.583 171.438 171.266 170.632 171.256H56.8611C56.4697 171.254 56.0821 171.332 55.7215 171.484C55.3609 171.637 55.0348 171.86 54.7629 172.142C54.4909 172.423 54.2786 172.757 54.1388 173.122C53.999 173.488 53.9345 173.878 53.9493 174.269L56.6417 255.614C56.6742 256.418 57.015 257.178 57.5933 257.738C58.1716 258.297 58.943 258.612 59.7476 258.618Z" fill="#1D99F2"/>
<g opacity="0.6">
<path opacity="0.6" d="M59.7476 258.618H173.527C173.918 258.62 174.305 258.542 174.665 258.391C175.025 258.239 175.351 258.016 175.622 257.736C175.894 257.455 176.107 257.122 176.247 256.758C176.387 256.393 176.453 256.004 176.439 255.614L173.747 174.269C173.71 173.464 173.367 172.704 172.788 172.144C172.209 171.583 171.438 171.266 170.632 171.256H56.8611C56.4697 171.254 56.0821 171.332 55.7215 171.484C55.3609 171.637 55.0348 171.86 54.7629 172.142C54.4909 172.423 54.2786 172.757 54.1388 173.122C53.999 173.488 53.9345 173.878 53.9493 174.269L56.6417 255.614C56.6742 256.418 57.015 257.178 57.5933 257.738C58.1716 258.297 58.943 258.612 59.7476 258.618Z" fill="#263238"/>
</g>
<path d="M61.216 258.475H198.628C199.303 258.474 199.966 258.664 200.539 259.022C201.112 259.381 201.573 259.893 201.869 260.5C201.944 260.659 201.979 260.835 201.968 261.01C201.957 261.186 201.902 261.356 201.808 261.505C201.713 261.653 201.582 261.775 201.428 261.86C201.273 261.944 201.099 261.987 200.923 261.986H58.9203C58.7435 261.989 58.569 261.946 58.4131 261.863C58.2573 261.779 58.1253 261.657 58.0298 261.508C57.9343 261.36 57.8783 261.189 57.8673 261.013C57.8562 260.836 57.8904 260.66 57.9666 260.5C58.264 259.892 58.7263 259.38 59.3008 259.021C59.8754 258.663 60.539 258.474 61.216 258.475Z" fill="#1D99F2"/>
<path opacity="0.6" d="M198.626 258.475H88.9738C88.2968 258.474 87.6332 258.663 87.0587 259.021C86.4841 259.38 86.0218 259.892 85.7244 260.5C85.6482 260.66 85.614 260.836 85.6251 261.013C85.6361 261.189 85.6921 261.36 85.7876 261.508C85.8831 261.657 86.0151 261.779 86.1709 261.863C86.3268 261.946 86.5014 261.989 86.6781 261.986H200.922C201.098 261.987 201.272 261.944 201.426 261.86C201.581 261.775 201.712 261.653 201.806 261.505C201.901 261.356 201.956 261.186 201.967 261.01C201.977 260.835 201.943 260.659 201.867 260.5C201.571 259.893 201.11 259.381 200.537 259.022C199.964 258.664 199.302 258.474 198.626 258.475Z" fill="#263238"/>
<path opacity="0.3" d="M133.082 260.703H161.609C161.948 260.705 162.272 260.841 162.511 261.082C162.749 261.322 162.883 261.647 162.883 261.986H131.799C131.799 261.646 131.934 261.319 132.175 261.079C132.415 260.838 132.741 260.703 133.082 260.703Z" fill="white"/>
<path opacity="0.9" d="M173.721 252.668L171.189 177.215C171.174 176.901 171.04 176.605 170.814 176.387C170.588 176.169 170.288 176.045 169.974 176.042H57.7976C57.6429 176.04 57.4895 176.071 57.3471 176.131C57.2047 176.192 57.0764 176.281 56.9702 176.394C56.864 176.506 56.7822 176.639 56.7299 176.785C56.6777 176.931 56.6562 177.086 56.6666 177.24L59.1986 252.694C59.2095 253.007 59.3412 253.304 59.5662 253.523C59.7911 253.742 60.0919 253.865 60.4056 253.867H172.658C172.806 253.858 172.952 253.82 173.086 253.755C173.22 253.69 173.339 253.6 173.438 253.488C173.537 253.377 173.613 253.247 173.661 253.107C173.71 252.966 173.73 252.817 173.721 252.668Z" fill="white"/>
<path d="M81.244 253.841H65.7734L83.6071 176.042H99.0777L81.244 253.841Z" fill="white"/>
<path d="M91.1017 253.841H85.5312L103.365 176.042H108.935L91.1017 253.841Z" fill="white"/>
<path d="M148.012 253.841H142.441L160.275 176.042H165.837L148.012 253.841Z" fill="white"/>
<path opacity="0.4" d="M112.943 173.78C112.964 174.008 113.069 174.221 113.237 174.376C113.405 174.532 113.626 174.62 113.855 174.624C114.079 174.624 114.293 174.535 114.452 174.376C114.61 174.218 114.699 174.003 114.699 173.78C114.682 173.55 114.578 173.335 114.409 173.178C114.24 173.022 114.018 172.935 113.787 172.936C113.564 172.936 113.349 173.024 113.191 173.183C113.032 173.341 112.943 173.556 112.943 173.78Z" fill="white"/>
<path d="M149.169 165.475C150.663 167.872 152.275 170.412 153.887 172.86C155.499 175.307 157.153 177.755 158.841 180.152C162.116 184.914 165.658 189.487 169.45 193.85C171.231 195.886 173.164 197.785 175.231 199.53L175.957 200.104C176.116 200.24 176.282 200.367 176.455 200.484C176.893 200.771 177.346 201.033 177.814 201.269C178.953 201.823 180.133 202.291 181.342 202.67C182.616 203.1 183.958 203.514 185.326 203.826C186.693 204.138 188.102 204.501 189.546 204.797C192.373 205.396 195.327 205.944 198.171 206.434V212.342C196.551 212.578 195.032 212.696 193.453 212.806C191.875 212.916 190.314 212.958 188.727 212.966C185.487 212.978 182.252 212.721 179.055 212.198C177.323 211.897 175.617 211.469 173.949 210.916C173.015 210.595 172.107 210.206 171.231 209.751C170.767 209.531 170.277 209.219 169.804 208.907L168.716 208.147C166.029 206.173 163.516 203.974 161.204 201.572C156.849 197.028 152.819 192.182 149.143 187.073C147.315 184.569 145.554 182.037 143.86 179.477C142.172 176.877 140.484 174.328 138.914 171.56L149.169 165.475Z" fill="#FFC3BD"/>
<path d="M134.965 167.112C134.121 174.522 151.786 192.229 151.786 192.229L163.737 182.253C160.234 176.327 156.358 170.63 152.132 165.196C145.338 156.781 135.885 158.731 134.965 167.112Z" fill="#1D99F2"/>
<path opacity="0.3" d="M144.619 172.37C139.901 167.306 137.647 165.998 134.93 168.015C135.293 175.839 151.81 192.212 151.81 192.212C152.89 183.815 148.611 178.413 144.619 172.37Z" fill="black"/>
<path d="M162.765 178.835L164.022 182.481L150.653 193.453L148.012 190.71L162.765 178.835Z" fill="#1D99F2"/>
<path opacity="0.3" d="M162.765 178.835L164.022 182.481L150.653 193.453L148.012 190.71L162.765 178.835Z" fill="#263238"/>
<path d="M197.538 206.315L206.822 207.911L201.715 216.064C200.5 216.258 195.655 213.633 193.512 210.375L197.538 206.315Z" fill="#FFC3BD"/>
<path d="M212.519 213.414L208.814 217.617L201.707 216.022L206.805 207.911L212.519 213.414Z" fill="#FFC3BD"/>
<path d="M144.578 160.014C144.578 160.014 154.706 183.831 147.414 228.192H105.214C104.699 221.718 107.67 190.127 100.369 159.608C105.015 158.707 109.715 158.112 114.439 157.828C120.412 157.481 126.4 157.481 132.374 157.828C136.492 158.241 140.572 158.971 144.578 160.014Z" fill="#1D99F2"/>
<path opacity="0.3" d="M109.796 167.112C110.64 172.176 109.509 184.144 105.205 198.036C104.875 186.121 103.488 174.258 101.061 162.588V162.529C103.812 162.301 108.96 162.436 109.796 167.112Z" fill="black"/>
<path d="M115.509 137.631C116.843 143.404 118.337 153.979 114.438 157.828C114.438 157.828 116.125 162.605 126.844 162.605C138.66 162.605 132.372 157.828 132.372 157.828C125.882 156.292 125.882 151.515 126.844 147.033L115.509 137.631Z" fill="#FFC3BD"/>
<path d="M127.57 163.052L130.102 165.728C130.179 165.807 130.23 165.907 130.248 166.016C130.266 166.124 130.25 166.236 130.203 166.335L128.937 168.977C128.897 169.067 128.832 169.144 128.75 169.199C128.668 169.254 128.572 169.286 128.473 169.289L126.557 169.382C126.466 169.386 126.376 169.366 126.294 169.325C126.213 169.283 126.144 169.222 126.093 169.146L124.321 166.614C124.249 166.519 124.211 166.403 124.211 166.285C124.211 166.166 124.249 166.05 124.321 165.956L126.751 163.077C126.799 163.016 126.86 162.965 126.93 162.93C127 162.894 127.077 162.875 127.155 162.872C127.233 162.87 127.311 162.885 127.383 162.916C127.454 162.947 127.518 162.993 127.57 163.052Z" fill="white"/>
<path d="M127.157 162.605C125.939 164.565 125.233 166.8 125.106 169.104C125.106 169.104 111.408 164.42 112.032 157.566C113.249 156.976 114.42 156.297 115.535 155.532C115.535 155.532 115.982 159.862 127.157 162.605Z" fill="#263238"/>
<path d="M127.156 162.605C128.375 164.463 129.252 166.524 129.747 168.69C129.747 168.69 136.094 164.343 134.288 157.566L130.558 156.764C130.558 156.764 131.342 161.136 127.156 162.605Z" fill="#263238"/>
<path d="M128.71 169.002C129.554 171.804 135.918 192.584 136.078 197.555C136.082 197.597 136.082 197.639 136.078 197.681C135.487 200.357 132.837 205.049 131.757 206.889C131.715 206.962 131.654 207.022 131.581 207.061C131.507 207.101 131.424 207.119 131.34 207.114C131.257 207.109 131.176 207.08 131.108 207.032C131.04 206.983 130.987 206.916 130.955 206.839C130.212 205.024 128.423 200.678 127.241 198.137C127.22 198.089 127.205 198.038 127.199 197.985C126.642 188.912 126.49 174.801 126.212 169.163C126.208 169.102 126.217 169.041 126.238 168.984C126.259 168.926 126.291 168.874 126.333 168.83C126.375 168.786 126.426 168.75 126.482 168.726C126.538 168.702 126.598 168.69 126.659 168.69H128.288C128.382 168.691 128.474 168.722 128.55 168.778C128.625 168.834 128.681 168.912 128.71 169.002Z" fill="white"/>
<path opacity="0.2" d="M120.135 141.462L126.845 147.024C126.602 148.07 126.452 149.134 126.398 150.206C123.925 149.852 120.49 147.159 120.11 144.585C119.924 143.552 119.933 142.493 120.135 141.462Z" fill="black"/>
<path d="M132.036 120.472C133.631 121.662 136.357 126.692 132.88 128.009C129.403 129.326 128.128 117.552 132.036 120.472Z" fill="#263238"/>
<path d="M113.434 130.71C115.029 138.399 115.577 142.965 120.076 146.501C121.526 147.669 123.267 148.417 125.111 148.666C126.956 148.915 128.833 148.654 130.541 147.913C132.248 147.172 133.72 145.977 134.797 144.46C135.874 142.942 136.516 141.158 136.652 139.302C137.31 132.17 134.576 120.802 126.524 118.556C124.794 118.026 122.956 117.96 121.192 118.365C119.429 118.769 117.803 119.63 116.477 120.861C115.151 122.092 114.172 123.65 113.638 125.379C113.104 127.107 113.033 128.946 113.434 130.71Z" fill="#FFC3BD"/>
<path d="M114.439 136.5L117.663 134.348L117.874 132.474C118.17 129.757 117.662 127.013 116.414 124.583C116.414 124.583 132.087 125.165 134.028 120.261C135.969 115.358 130.449 111.669 130.449 111.669C130.449 111.669 124.904 114.851 121.165 115.105C117.427 115.358 105.973 110.682 105.973 120.363C100.909 121.924 101.078 130.254 114.413 136.5" fill="#263238"/>
<path d="M106.539 120.742C106.539 120.742 104.462 119.097 106.007 114.066C104.108 115.012 103.196 120.152 106.539 120.742Z" fill="#263238"/>
<path d="M111.163 139.631C112.439 141.157 114.251 142.138 116.227 142.374C118.843 142.652 119.603 140.239 118.472 138.019C117.425 136.027 114.809 133.478 112.395 134.229C109.981 134.98 109.601 137.732 111.163 139.631Z" fill="#FFC3BD"/>
<path d="M150.974 253.841H124.009C121.586 239.206 119.637 228.192 119.637 228.192H147.413C147.413 228.192 148.974 239.02 150.974 253.841Z" fill="#263238"/>
<path d="M106.243 253.841C105.635 239.206 105.18 228.192 105.18 228.192H132.407C132.407 228.192 132.542 239.341 132.601 253.841H106.243Z" fill="#263238"/>
<path d="M125.528 131.579C125.621 132.212 126.026 132.685 126.44 132.643C126.854 132.601 127.115 132.044 127.022 131.419C126.93 130.794 126.524 130.313 126.111 130.356C125.697 130.398 125.436 130.946 125.528 131.579Z" fill="#263238"/>
<path d="M132.677 130.82C132.77 131.453 133.175 131.925 133.588 131.875C134.002 131.824 134.264 131.284 134.171 130.659C134.078 130.035 133.673 129.554 133.259 129.596C132.846 129.638 132.584 130.161 132.677 130.82Z" fill="#263238"/>
<path d="M130.449 131.36C131.485 133.209 132.762 134.912 134.247 136.424C133.285 137.589 131.31 137.319 131.31 137.319L130.449 131.36Z" fill="#ED847E"/>
<path d="M128.407 139.26C128.842 139.306 129.28 139.306 129.715 139.26C129.739 139.258 129.763 139.251 129.785 139.239C129.807 139.228 129.826 139.212 129.842 139.194C129.857 139.175 129.869 139.153 129.876 139.13C129.884 139.106 129.886 139.082 129.884 139.057C129.877 139.007 129.852 138.962 129.812 138.93C129.773 138.899 129.723 138.884 129.673 138.888C128.878 138.989 128.07 138.907 127.312 138.646C126.554 138.386 125.866 137.955 125.301 137.386C125.285 137.367 125.265 137.352 125.243 137.34C125.221 137.329 125.197 137.322 125.172 137.32C125.148 137.318 125.123 137.321 125.099 137.329C125.076 137.337 125.054 137.349 125.035 137.365C125.016 137.381 125.001 137.401 124.989 137.423C124.978 137.445 124.971 137.469 124.969 137.493C124.967 137.518 124.97 137.543 124.978 137.567C124.986 137.59 124.998 137.612 125.014 137.631C125.915 138.56 127.118 139.138 128.407 139.26Z" fill="#263238"/>
<path d="M122.946 129.52C123.018 129.529 123.091 129.516 123.156 129.483C123.22 129.45 123.274 129.398 123.309 129.334C123.525 128.926 123.838 128.577 124.221 128.318C124.603 128.06 125.044 127.898 125.503 127.849C125.602 127.842 125.695 127.797 125.761 127.723C125.827 127.649 125.862 127.551 125.857 127.452C125.855 127.403 125.843 127.355 125.823 127.311C125.802 127.267 125.773 127.227 125.737 127.194C125.701 127.161 125.659 127.136 125.613 127.119C125.567 127.103 125.518 127.095 125.469 127.098C124.884 127.156 124.322 127.356 123.832 127.681C123.342 128.006 122.939 128.446 122.659 128.963C122.633 129.006 122.617 129.053 122.611 129.103C122.604 129.152 122.608 129.203 122.621 129.251C122.634 129.299 122.657 129.344 122.688 129.383C122.72 129.422 122.758 129.454 122.802 129.478C122.845 129.504 122.895 129.519 122.946 129.52Z" fill="#263238"/>
<path d="M135.353 128.009C135.443 128.016 135.532 127.992 135.606 127.942C135.686 127.885 135.741 127.8 135.76 127.705C135.779 127.609 135.76 127.509 135.707 127.427C135.387 126.92 134.952 126.494 134.437 126.185C133.923 125.876 133.343 125.691 132.745 125.646C132.647 125.646 132.553 125.684 132.482 125.751C132.412 125.819 132.37 125.911 132.365 126.009C132.365 126.108 132.404 126.204 132.473 126.275C132.543 126.346 132.637 126.387 132.737 126.389C133.213 126.434 133.673 126.588 134.08 126.84C134.487 127.092 134.83 127.434 135.083 127.84C135.114 127.886 135.154 127.924 135.2 127.953C135.247 127.982 135.299 128.001 135.353 128.009Z" fill="#263238"/>
<path d="M108.428 171.467L106.555 174.708C105.925 175.833 105.308 176.959 104.706 178.084C103.491 180.335 102.326 182.602 101.212 184.887C100.115 187.174 99.0684 189.47 98.1316 191.782C97.6842 192.93 97.2285 194.086 96.8402 195.242L96.241 196.973L95.743 198.661L95.6164 199.091L95.5489 199.311C95.5489 199.387 95.5489 199.311 95.5489 199.361C95.5489 199.412 95.5489 199.454 95.4898 199.547C95.4553 199.878 95.4553 200.212 95.4898 200.543C95.5956 201.546 95.8049 202.536 96.1144 203.497C96.8553 205.808 97.7578 208.064 98.8152 210.249C100.951 214.832 103.55 219.457 106.107 223.972L101.44 227.618C99.4482 225.618 97.6589 223.584 95.9034 221.44C94.1479 219.296 92.5274 217.068 90.9322 214.688C89.3074 212.257 87.8955 209.69 86.7122 207.016C86.0378 205.491 85.5175 203.902 85.1593 202.273C84.9495 201.288 84.842 200.284 84.8386 199.277C84.8317 198.672 84.8769 198.068 84.9736 197.471L85.0411 197.032L85.1002 196.762L85.2099 196.213C85.7568 193.352 86.4984 190.533 87.4296 187.773C88.3243 185.055 89.3708 182.439 90.4849 179.856C91.599 177.274 92.8228 174.792 94.131 172.311C94.7893 171.087 95.4561 169.872 96.1566 168.656C96.8571 167.441 97.5492 166.293 98.3848 165.002L108.428 171.467Z" fill="#FFC3BD"/>
<path d="M100.377 159.609C92.95 160.697 85.2949 186.558 85.2949 186.558L101.28 195.411C101.28 195.411 107.754 183.106 110.843 173.974C114.075 164.403 108.336 158.444 100.377 159.609Z" fill="#1D99F2"/>
<path d="M85.6244 182.912L84.9492 186.71L101.373 195.749L103.559 192.618L85.6244 182.912Z" fill="#1D99F2"/>
<path opacity="0.3" d="M85.6244 182.912L84.9492 186.71L101.373 195.749L103.559 192.618L85.6244 182.912Z" fill="#263238"/>
<path d="M103.98 222.216L111.829 220.849L107.803 229.939C107.803 229.939 100.629 229.897 100.958 226.2L103.98 222.216Z" fill="#FFC3BD"/>
<path d="M117.696 225.415L114 232.758L107.805 229.939L111.831 220.849L117.696 225.415Z" fill="#FFC3BD"/>
<path d="M363.182 258.618H249.402C249.011 258.62 248.624 258.542 248.264 258.391C247.904 258.239 247.579 258.016 247.307 257.736C247.035 257.455 246.822 257.122 246.682 256.758C246.542 256.393 246.476 256.004 246.49 255.614L249.182 174.269C249.219 173.464 249.562 172.704 250.141 172.144C250.72 171.583 251.491 171.266 252.297 171.256H366.068C366.46 171.253 366.848 171.33 367.209 171.482C367.57 171.634 367.897 171.857 368.169 172.139C368.441 172.421 368.653 172.755 368.793 173.121C368.932 173.487 368.996 173.878 368.98 174.269L366.296 255.614C366.263 256.419 365.921 257.181 365.341 257.741C364.761 258.3 363.988 258.615 363.182 258.618Z" fill="#1D99F2"/>
<path opacity="0.6" d="M363.182 258.618H249.402C249.011 258.62 248.624 258.542 248.264 258.391C247.904 258.239 247.579 258.016 247.307 257.736C247.035 257.455 246.822 257.122 246.682 256.758C246.542 256.393 246.476 256.004 246.49 255.614L249.182 174.269C249.219 173.464 249.562 172.704 250.141 172.144C250.72 171.583 251.491 171.266 252.297 171.256H366.068C366.46 171.253 366.848 171.33 367.209 171.482C367.57 171.634 367.897 171.857 368.169 172.139C368.441 172.421 368.653 172.755 368.793 173.121C368.932 173.487 368.996 173.878 368.98 174.269L366.296 255.614C366.263 256.419 365.921 257.181 365.341 257.741C364.761 258.3 363.988 258.615 363.182 258.618Z" fill="#263238"/>
<path d="M362.254 258.619H248.474C248.083 258.62 247.697 258.543 247.337 258.391C246.977 258.239 246.651 258.017 246.379 257.736C246.107 257.455 245.895 257.123 245.754 256.758C245.614 256.394 245.549 256.005 245.562 255.614L248.255 174.269C248.291 173.465 248.634 172.704 249.213 172.144C249.792 171.584 250.563 171.266 251.369 171.256H365.14C365.532 171.255 365.919 171.333 366.28 171.485C366.64 171.637 366.966 171.861 367.238 172.142C367.51 172.424 367.723 172.757 367.863 173.123C368.002 173.488 368.067 173.878 368.052 174.269L365.36 255.614C365.327 256.418 364.986 257.179 364.408 257.738C363.83 258.298 363.058 258.613 362.254 258.619Z" fill="#1D99F2"/>
<path d="M360.785 258.475H223.374C222.698 258.475 222.036 258.665 221.462 259.023C220.889 259.381 220.429 259.893 220.133 260.501C220.057 260.66 220.022 260.835 220.033 261.011C220.044 261.187 220.099 261.357 220.194 261.505C220.288 261.654 220.419 261.776 220.574 261.86C220.728 261.944 220.902 261.988 221.078 261.986H363.081C363.258 261.989 363.432 261.947 363.588 261.863C363.744 261.78 363.876 261.658 363.971 261.509C364.067 261.36 364.123 261.19 364.134 261.013C364.145 260.837 364.111 260.66 364.035 260.501C363.737 259.892 363.275 259.38 362.7 259.022C362.126 258.664 361.462 258.474 360.785 258.475Z" fill="#1D99F2"/>
<path opacity="0.6" d="M360.785 258.475H339.685C339.008 258.474 338.344 258.664 337.77 259.022C337.195 259.38 336.733 259.892 336.435 260.501C336.359 260.66 336.325 260.837 336.336 261.013C336.347 261.19 336.403 261.36 336.499 261.509C336.594 261.658 336.726 261.78 336.882 261.863C337.038 261.947 337.212 261.989 337.389 261.986H363.038C363.215 261.989 363.39 261.947 363.545 261.863C363.701 261.78 363.833 261.658 363.929 261.509C364.024 261.36 364.08 261.19 364.091 261.013C364.102 260.837 364.068 260.66 363.992 260.501C363.698 259.899 363.242 259.391 362.676 259.033C362.109 258.675 361.455 258.482 360.785 258.475Z" fill="#263238"/>
<path opacity="0.2" d="M288.919 260.703H260.392C260.053 260.705 259.729 260.841 259.49 261.082C259.251 261.322 259.117 261.647 259.117 261.986H290.202C290.202 261.646 290.067 261.319 289.826 261.079C289.585 260.838 289.259 260.703 288.919 260.703Z" fill="black"/>
<path opacity="0.9" d="M248.28 252.668L250.812 177.215C250.827 176.901 250.961 176.605 251.187 176.387C251.413 176.169 251.714 176.045 252.027 176.042H364.279C364.432 176.04 364.583 176.07 364.724 176.129C364.864 176.188 364.991 176.275 365.097 176.385C365.203 176.495 365.285 176.625 365.339 176.768C365.393 176.91 365.417 177.062 365.41 177.215L362.878 252.668C362.868 252.982 362.736 253.279 362.511 253.498C362.286 253.716 361.985 253.839 361.671 253.841H249.419C249.267 253.843 249.115 253.813 248.974 253.754C248.833 253.695 248.705 253.608 248.599 253.498C248.492 253.389 248.409 253.259 248.354 253.116C248.3 252.973 248.274 252.821 248.28 252.668Z" fill="white"/>
<path d="M328.08 253.841H312.609L330.443 176.042H345.914L328.08 253.841Z" fill="white"/>
<path d="M260.906 253.841H255.336L273.17 176.042H278.732L260.906 253.841Z" fill="white"/>
<path d="M340.766 253.841H335.195L353.029 176.042H358.599L340.766 253.841Z" fill="white"/>
<path opacity="0.4" d="M309.056 173.78C309.035 174.008 308.931 174.221 308.762 174.376C308.594 174.532 308.374 174.62 308.145 174.624C307.921 174.624 307.706 174.535 307.548 174.376C307.39 174.218 307.301 174.003 307.301 173.78C307.318 173.55 307.421 173.335 307.59 173.178C307.76 173.022 307.982 172.935 308.212 172.936C308.436 172.936 308.651 173.024 308.809 173.183C308.967 173.341 309.056 173.556 309.056 173.78Z" fill="black"/>
<path d="M300.852 137.631C299.527 143.404 298.025 153.98 301.933 157.828C301.933 157.828 300.245 162.605 289.526 162.605C277.71 162.605 283.998 157.828 283.998 157.828C290.488 156.292 290.488 151.515 289.517 147.034L300.852 137.631Z" fill="#B55B52"/>
<path d="M318.029 165.053C318.873 166.344 319.565 167.475 320.257 168.707C320.949 169.939 321.632 171.138 322.291 172.362C323.591 174.826 324.823 177.333 325.937 179.907C327.051 182.481 328.098 185.106 328.984 187.824C329.918 190.583 330.662 193.403 331.212 196.264L331.322 196.812L331.372 197.083L331.448 197.521C331.537 198.119 331.582 198.723 331.583 199.328C331.571 200.334 331.464 201.337 331.263 202.324C330.902 203.953 330.379 205.542 329.701 207.067C328.521 209.743 327.109 212.31 325.481 214.739C323.911 217.094 322.257 219.322 320.502 221.491C318.761 223.642 316.913 225.704 314.965 227.669L310.306 224.023C312.838 219.508 315.463 214.883 317.598 210.3C318.653 208.115 319.553 205.859 320.291 203.548C320.6 202.587 320.809 201.597 320.915 200.594C320.953 200.263 320.953 199.929 320.915 199.598C320.915 199.505 320.915 199.42 320.848 199.412V199.361L320.788 199.142L320.662 198.711L320.155 197.023L319.565 195.293C319.168 194.137 318.721 192.981 318.265 191.833C317.328 189.52 316.282 187.225 315.193 184.937C314.104 182.65 312.906 180.388 311.699 178.135C311.102 177.009 310.486 175.884 309.85 174.759L307.977 171.526L318.029 165.053Z" fill="#B65B52"/>
<path d="M315.994 159.609C323.421 160.698 331.067 186.558 331.067 186.558L315.09 195.412C315.09 195.412 308.609 183.148 305.528 173.974C302.287 164.403 308.06 158.444 315.994 159.609Z" fill="#263238"/>
<path opacity="0.3" d="M311.158 173.78L309.951 184.836C311.158 187.495 312.34 189.9 313.26 191.799C313.606 187.368 313.597 180.16 311.158 173.78Z" fill="black"/>
<path d="M330.739 182.912L331.423 186.71L314.998 195.749L312.812 192.618L330.739 182.912Z" fill="#1D99F2"/>
<path opacity="0.3" d="M330.739 182.912L331.423 186.71L314.998 195.749L312.812 192.618L330.739 182.912Z" fill="#263238"/>
<path d="M312.391 222.217L304.533 220.85L308.568 229.939C308.568 229.939 315.733 229.897 315.404 226.201L312.391 222.217Z" fill="#B55B52"/>
<path d="M298.676 225.416L302.364 232.758L308.567 229.939L304.533 220.85L298.676 225.416Z" fill="#B55B52"/>
<path d="M271.769 160.014C271.769 160.014 261.641 183.832 268.942 228.192H311.142C311.657 221.719 308.677 190.128 315.986 159.609C311.346 158.709 306.652 158.114 301.934 157.828C295.961 157.482 289.972 157.482 283.999 157.828C279.872 158.24 275.783 158.971 271.769 160.014Z" fill="#263238"/>
<path opacity="0.3" d="M267.253 180.388C266.64 185.726 266.327 191.093 266.316 196.466C272.056 192.727 274.098 184.152 274.908 177.94L267.253 180.388Z" fill="black"/>
<path d="M277.49 171.569C275.878 174.337 274.249 176.886 272.544 179.485C270.84 182.085 269.092 184.608 267.261 187.081C263.582 192.191 259.549 197.036 255.192 201.581C252.881 203.98 250.371 206.18 247.689 208.156L246.591 208.916C246.119 209.203 245.629 209.515 245.174 209.76C244.294 210.213 243.383 210.602 242.447 210.924C240.779 211.477 239.073 211.906 237.341 212.207C234.144 212.73 230.909 212.987 227.669 212.975C226.091 212.975 224.512 212.975 222.951 212.815C221.39 212.655 219.845 212.587 218.225 212.351V206.443C221.069 205.953 224.023 205.405 226.842 204.805C228.26 204.51 229.669 204.189 231.062 203.835C232.454 203.48 233.78 203.109 235.046 202.678C236.255 202.302 237.435 201.833 238.573 201.277C239.041 201.042 239.495 200.78 239.932 200.493C240.143 200.366 240.27 200.231 240.439 200.113L241.165 199.539C243.228 197.789 245.16 195.891 246.946 193.859C250.733 189.492 254.274 184.919 257.555 180.161C259.243 177.764 260.872 175.316 262.509 172.868C264.147 170.421 265.725 167.88 267.227 165.483L277.49 171.569Z" fill="#B65B52"/>
<path d="M281.398 167.112C282.242 174.522 265.716 192.499 265.716 192.499L252.643 182.27C256.14 176.343 260.014 170.646 264.239 165.213C271.025 156.781 280.461 158.731 281.398 167.112Z" fill="#263238"/>
<path d="M253.605 178.835L252.348 182.482L265.708 193.454L268.358 190.711L253.605 178.835Z" fill="#1D99F2"/>
<path opacity="0.3" d="M253.605 178.835L252.348 182.482L265.708 193.454L268.358 190.711L253.605 178.835Z" fill="#263238"/>
<path d="M218.225 206.468L208.814 206.603L212.604 215.414C213.769 215.794 218.968 213.946 221.584 211.059L218.225 206.468Z" fill="#B55B52"/>
<path d="M202.324 211.169L207.464 217.617L212.604 215.406L208.815 206.603L202.324 211.169Z" fill="#B55B52"/>
<path d="M281.348 130.82C281.255 131.453 280.85 131.926 280.437 131.875C280.023 131.824 279.761 131.284 279.846 130.66C279.93 130.035 280.352 129.554 280.766 129.596C281.179 129.639 281.441 130.162 281.348 130.82Z" fill="#263238"/>
<path d="M281.525 131.36C280.488 133.211 279.208 134.914 277.719 136.424C278.689 137.589 280.664 137.319 280.664 137.319L281.525 131.36Z" fill="#A02724"/>
<path d="M280.454 136.019C279.045 136.019 277.77 133.985 277.542 131.385C277.327 129.94 277.678 128.468 278.521 127.275C278.666 127.101 278.846 126.959 279.05 126.86C279.254 126.761 279.477 126.707 279.703 126.701C281.112 126.701 282.387 128.727 282.615 131.326C282.839 132.772 282.494 134.248 281.653 135.445C281.507 135.618 281.326 135.758 281.123 135.857C280.919 135.956 280.697 136.011 280.471 136.019H280.454ZM279.695 127.123C279.532 127.132 279.373 127.175 279.227 127.249C279.082 127.324 278.954 127.427 278.851 127.554C278.096 128.666 277.795 130.024 278.007 131.352C278.209 133.656 279.349 135.572 280.539 135.572C280.702 135.561 280.861 135.516 281.007 135.441C281.152 135.365 281.28 135.26 281.383 135.133C282.141 134.025 282.443 132.668 282.227 131.343C281.982 129.064 280.842 127.123 279.695 127.123Z" fill="#263238"/>
<path d="M283.585 128.01C283.672 128.017 283.759 127.993 283.83 127.942C283.871 127.916 283.907 127.881 283.935 127.841C283.962 127.801 283.982 127.755 283.992 127.708C284.002 127.66 284.003 127.61 283.994 127.562C283.985 127.514 283.967 127.468 283.94 127.427C283.619 126.92 283.184 126.495 282.67 126.186C282.155 125.876 281.576 125.692 280.977 125.646C280.88 125.646 280.785 125.684 280.715 125.752C280.644 125.819 280.602 125.912 280.598 126.009C280.598 126.109 280.637 126.204 280.706 126.275C280.775 126.346 280.87 126.387 280.969 126.389C281.446 126.434 281.905 126.588 282.312 126.84C282.719 127.092 283.063 127.434 283.315 127.841C283.346 127.886 283.386 127.925 283.433 127.954C283.479 127.983 283.531 128.002 283.585 128.01Z" fill="#263238"/>
<path d="M302.938 130.71C301.334 138.399 300.794 142.965 296.287 146.501C294.837 147.666 293.097 148.413 291.253 148.66C289.41 148.908 287.534 148.647 285.829 147.906C284.123 147.165 282.652 145.971 281.575 144.455C280.499 142.939 279.857 141.157 279.719 139.302C279.061 132.17 281.787 120.802 289.847 118.557C291.577 118.029 293.415 117.965 295.177 118.371C296.939 118.776 298.564 119.637 299.889 120.867C301.214 122.098 302.193 123.654 302.728 125.381C303.263 127.109 303.335 128.946 302.938 130.71Z" fill="#B55B52"/>
<path d="M313.419 253.842C313.815 245.23 313.063 236.605 311.183 228.192H283.955C286.069 236.577 287.116 245.195 287.069 253.842H313.419Z" fill="#1D99F2"/>
<path opacity="0.3" d="M313.419 253.842C313.815 245.23 313.063 236.605 311.183 228.192H283.955C286.069 236.577 287.116 245.195 287.069 253.842H313.419Z" fill="white"/>
<path d="M286.261 133.023C284.758 132.272 282.885 124.769 283.4 122.102C283.914 119.434 289.966 116.565 295.916 117.645C301.866 118.726 304.424 120.81 305.58 126.229C306.77 131.85 302.432 141.21 300.288 141.936C299.017 142.386 297.665 142.56 296.322 142.446C294.979 142.333 293.675 141.934 292.498 141.277C290.582 140.104 289.586 131.478 286.261 133.023Z" fill="#263238"/>
<path d="M284.681 124.794C281.777 124.963 279.009 120.338 281.676 116.21C282.442 115.034 283.531 114.104 284.812 113.53C286.094 112.957 287.513 112.765 288.901 112.978C288.901 112.978 287.685 115.35 291.737 114.852C295.788 114.354 303.333 115.485 305.967 118.32C309.224 121.815 307.258 128.685 302.354 126.997C297.451 125.309 284.681 124.794 284.681 124.794Z" fill="#263238"/>
<path d="M283.905 124.912C283.298 124.883 282.704 124.725 282.162 124.449C281.621 124.172 281.145 123.783 280.765 123.308C280.007 122.402 279.515 121.302 279.346 120.132C279.176 118.962 279.334 117.768 279.803 116.683C279.814 116.657 279.829 116.633 279.849 116.613C279.869 116.593 279.892 116.577 279.918 116.566C279.944 116.555 279.972 116.55 280 116.549C280.028 116.549 280.056 116.554 280.082 116.565C280.108 116.575 280.131 116.591 280.152 116.611C280.172 116.63 280.188 116.654 280.198 116.68C280.209 116.706 280.215 116.733 280.215 116.761C280.216 116.79 280.21 116.817 280.2 116.843C279.754 117.854 279.601 118.97 279.758 120.063C279.915 121.157 280.375 122.185 281.086 123.03C281.477 123.553 282.004 123.959 282.61 124.204C283.215 124.448 283.877 124.521 284.521 124.414C284.575 124.403 284.63 124.413 284.677 124.441C284.724 124.469 284.759 124.514 284.774 124.566C284.787 124.621 284.779 124.679 284.751 124.727C284.722 124.776 284.677 124.812 284.622 124.828C284.388 124.885 284.147 124.913 283.905 124.912Z" fill="#263238"/>
<path d="M291.029 132.052C291.153 134.046 290.509 136.012 289.231 137.547C287.543 139.547 285.29 138.34 284.606 135.935C283.99 133.766 284.134 130.12 286.404 128.997C288.674 127.875 290.852 129.613 291.029 132.052Z" fill="#B55B52"/>
<path d="M265.396 253.842H295.654C297.118 245.374 297.478 236.753 296.726 228.192H268.958C268.958 228.192 267.397 239.021 265.396 253.842Z" fill="#1D99F2"/>
<path opacity="0.3" d="M265.396 253.842H295.654C297.118 245.374 297.478 236.753 296.726 228.192H268.958C268.958 228.192 267.397 239.021 265.396 253.842Z" fill="white"/>
</svg>
