<svg width="181" height="47" viewBox="0 0 181 47" fill="none" xmlns="http://www.w3.org/2000/svg">
<mask id="mask0_17_4181" style="mask-type:alpha" maskUnits="userSpaceOnUse" x="0" y="0" width="46" height="47">
<path fill-rule="evenodd" clip-rule="evenodd" d="M1 1H45.2241V46H1V1Z" fill="white" stroke="white"/>
</mask>
<g mask="url(#mask0_17_4181)">
<path fill-rule="evenodd" clip-rule="evenodd" d="M42.8071 32.3129C42.7261 32.5311 42.6376 32.7457 42.5488 32.9602C42.4584 33.1782 42.3632 33.3936 42.2649 33.6074C39.247 40.1773 32.532 44.7621 24.745 44.7621C20.7651 44.7621 16.9761 43.5858 13.7404 41.353L21.607 33.6074L22.2644 32.9602L22.922 32.3129L40.5048 15.0006C42.7724 18.1866 43.9671 21.9174 43.9671 25.8359C43.9671 28.11 43.557 30.2914 42.8071 32.3129ZM7.17981 32.3129L25.0692 14.6984H39.0334L21.1436 32.3129H7.17981ZM5.71993 31.9993C3.45172 28.8141 2.25699 25.0824 2.25699 21.1639C2.25699 18.8941 2.66557 16.7167 3.41317 14.6984C3.49394 14.4799 3.58203 14.2653 3.67077 14.0509C3.76101 13.8329 3.85578 13.6176 3.954 13.4037C6.96937 6.82785 13.6876 2.2377 21.4791 2.2377C25.4588 2.2377 29.248 3.41408 32.4838 5.64681L24.6057 13.4037L23.9485 14.0509L23.291 14.6984L5.71993 31.9993ZM41.3453 14.0509C41.2548 13.9276 41.1749 13.7991 41.0814 13.6774L40.8708 13.4036H40.3483H26.3841L34.4026 5.50826L33.8273 5.07902C30.2476 2.41069 25.9776 0.999756 21.4791 0.999756C12.9788 0.999756 5.67297 6.12646 2.57919 13.4036C2.48852 13.6172 2.40301 13.8337 2.31966 14.0509C2.23738 14.2646 2.16092 14.4809 2.08597 14.6983C1.38554 16.7294 1 18.9025 1 21.1639C1 25.1799 2.18935 29.0055 4.4302 32.3129C4.57817 32.5311 4.73088 32.7468 4.8879 32.9601C4.97577 33.0797 5.05331 33.2044 5.14399 33.3223L5.36303 33.6074H5.86509H19.8286L11.8215 41.4915L12.3968 41.9207C15.9765 44.589 20.2465 46 24.745 46C33.241 46 40.5438 40.8788 43.6402 33.6074C43.7313 33.3938 43.8164 33.1775 43.9 32.9601C43.9822 32.7463 44.0591 32.53 44.1341 32.3129C44.8371 30.2784 45.2241 28.1015 45.2241 25.8359C45.2241 21.8249 44.0376 18.0035 41.8028 14.6983C41.6552 14.4799 41.5021 14.2644 41.3453 14.0509Z" fill="#1D99F2"/>
<path d="M42.5488 32.9602L43.0106 33.1518L43.0108 33.1514L42.5488 32.9602ZM42.2649 33.6074L41.8106 33.3987L41.8106 33.3987L42.2649 33.6074ZM13.7404 41.353L13.3896 40.9967L12.9586 41.4211L13.4564 41.7646L13.7404 41.353ZM21.607 33.6074L21.9578 33.9637L21.9578 33.9637L21.607 33.6074ZM22.2644 32.9602L21.9136 32.6038L21.9136 32.6039L22.2644 32.9602ZM22.922 32.3129L23.2727 32.6692L23.2728 32.6692L22.922 32.3129ZM40.5048 15.0006L40.9122 14.7106L40.572 14.2327L40.154 14.6443L40.5048 15.0006ZM7.17981 32.3129L6.829 31.9566L5.95936 32.8129H7.17981V32.3129ZM25.0692 14.6984V14.1984H24.8643L24.7184 14.3421L25.0692 14.6984ZM39.0334 14.6984L39.3842 15.0547L40.2538 14.1984H39.0334V14.6984ZM21.1436 32.3129V32.8129H21.3484L21.4944 32.6692L21.1436 32.3129ZM5.71993 31.9993L5.31265 32.2893L5.65284 32.767L6.07073 32.3555L5.71993 31.9993ZM3.41317 14.6984L3.88204 14.8721L3.88214 14.8718L3.41317 14.6984ZM3.67077 14.0509L3.20878 13.8597L3.20877 13.8597L3.67077 14.0509ZM3.954 13.4037L4.40842 13.6122L4.40849 13.6121L3.954 13.4037ZM32.4838 5.64681L32.8346 6.00309L33.2655 5.57876L32.7677 5.23527L32.4838 5.64681ZM24.6057 13.4037L24.2549 13.0474L24.2548 13.0474L24.6057 13.4037ZM23.9485 14.0509L24.2993 14.4072L24.2994 14.4071L23.9485 14.0509ZM23.291 14.6984L23.6418 15.0547L23.6418 15.0547L23.291 14.6984ZM41.0814 13.6774L41.478 13.3729L41.4777 13.3725L41.0814 13.6774ZM40.8708 13.4036L41.2671 13.0987L41.117 12.9036H40.8708V13.4036ZM26.3841 13.4036L26.0333 13.0473L25.1636 13.9036H26.3841V13.4036ZM34.4026 5.50826L34.7534 5.86454L35.1685 5.45585L34.7016 5.10752L34.4026 5.50826ZM33.8273 5.07902L34.1263 4.67828L34.1261 4.67814L33.8273 5.07902ZM2.57919 13.4036L2.11905 13.208L2.11896 13.2082L2.57919 13.4036ZM2.31966 14.0509L2.78629 14.2305L2.78645 14.23L2.31966 14.0509ZM2.08597 14.6983L2.55865 14.8613L2.55865 14.8613L2.08597 14.6983ZM4.4302 32.3129L4.01627 32.5933L4.01637 32.5935L4.4302 32.3129ZM4.8879 32.9601L5.29084 32.6641L5.29059 32.6637L4.8879 32.9601ZM5.14399 33.3223L5.54044 33.0177L5.54034 33.0175L5.14399 33.3223ZM5.36303 33.6074L4.96658 33.912L5.11669 34.1074H5.36303V33.6074ZM19.8286 33.6074L20.1795 33.9636L21.0491 33.1074H19.8286V33.6074ZM11.8215 41.4915L11.4707 41.1352L11.0557 41.5439L11.5225 41.8922L11.8215 41.4915ZM12.3968 41.9207L12.0978 42.3214L12.098 42.3216L12.3968 41.9207ZM43.6402 33.6074L43.1803 33.4112L43.1802 33.4115L43.6402 33.6074ZM43.9 32.9601L43.4333 32.7805L43.4333 32.7807L43.9 32.9601ZM44.1341 32.3129L43.6615 32.1495L43.6614 32.1497L44.1341 32.3129ZM41.8028 14.6983L41.3884 14.9782L41.3886 14.9784L41.8028 14.6983ZM42.3383 32.1389C42.261 32.3472 42.1759 32.5537 42.0868 32.7689L43.0108 33.1514C43.0992 32.9378 43.1912 32.715 43.2758 32.4869L42.3383 32.1389ZM42.087 32.7685C41.9994 32.9796 41.9068 33.1893 41.8106 33.3987L42.7193 33.8162C42.8195 33.598 42.9173 33.3767 43.0106 33.1518L42.087 32.7685ZM41.8106 33.3987C38.8722 39.7953 32.332 44.2621 24.745 44.2621V45.2621C32.732 45.2621 39.6217 40.5592 42.7193 33.8161L41.8106 33.3987ZM24.745 44.2621C20.8655 44.2621 17.1757 43.116 14.0243 40.9415L13.4564 41.7646C16.7764 44.0555 20.6647 45.2621 24.745 45.2621V44.2621ZM14.0912 41.7093L21.9578 33.9637L21.2562 33.2511L13.3896 40.9967L14.0912 41.7093ZM21.9578 33.9637L22.6152 33.3164L21.9136 32.6039L21.2562 33.2511L21.9578 33.9637ZM22.6151 33.3165L23.2727 32.6692L22.5712 31.9566L21.9136 32.6038L22.6151 33.3165ZM23.2728 32.6692L40.8556 15.3569L40.154 14.6443L22.5712 31.9566L23.2728 32.6692ZM40.0975 15.2905C42.3048 18.3919 43.4671 22.0214 43.4671 25.8359H44.4671C44.4671 21.8134 43.2399 17.9812 40.9122 14.7106L40.0975 15.2905ZM43.4671 25.8359C43.4671 28.0494 43.068 30.172 42.3383 32.139L43.2758 32.4868C44.046 30.4108 44.4671 28.1706 44.4671 25.8359H43.4671ZM7.53062 32.6692L25.42 15.0547L24.7184 14.3421L6.829 31.9566L7.53062 32.6692ZM25.0692 15.1984H39.0334V14.1984H25.0692V15.1984ZM38.6826 14.3421L20.7928 31.9566L21.4944 32.6692L39.3842 15.0547L38.6826 14.3421ZM21.1436 31.8129H7.17981V32.8129H21.1436V31.8129ZM6.12721 31.7092C3.91929 28.6087 2.75699 24.9784 2.75699 21.1639H1.75699C1.75699 25.1864 2.98416 29.0195 5.31265 32.2893L6.12721 31.7092ZM2.75699 21.1639C2.75699 18.9545 3.15462 16.8359 3.88204 14.8721L2.9443 14.5247C2.17652 16.5975 1.75699 18.8336 1.75699 21.1639H2.75699ZM3.88214 14.8718C3.95922 14.6633 4.04397 14.4567 4.13276 14.2421L3.20877 13.8597C3.12009 14.074 3.02865 14.2966 2.9442 14.525L3.88214 14.8718ZM4.13275 14.2422C4.22018 14.0309 4.31235 13.8215 4.40842 13.6122L3.49958 13.1951C3.39921 13.4138 3.30185 13.6349 3.20878 13.8597L4.13275 14.2422ZM4.40849 13.6121C7.34434 7.20969 13.8877 2.7377 21.4791 2.7377V1.7377C13.4875 1.7377 6.5944 6.44602 3.4995 13.1953L4.40849 13.6121ZM21.4791 2.7377C25.3584 2.7377 29.0484 3.88379 32.1998 6.05834L32.7677 5.23527C29.4477 2.94437 25.5592 1.7377 21.4791 1.7377V2.7377ZM32.133 5.29052L24.2549 13.0474L24.9565 13.7599L32.8346 6.00309L32.133 5.29052ZM24.2548 13.0474L23.5977 13.6947L24.2994 14.4071L24.9565 13.7599L24.2548 13.0474ZM23.5977 13.6946L22.9401 14.3421L23.6418 15.0547L24.2993 14.4072L23.5977 13.6946ZM22.9401 14.3421L5.36913 31.643L6.07073 32.3555L23.6418 15.0547L22.9401 14.3421ZM41.7483 13.755C41.7092 13.7017 41.6724 13.6473 41.627 13.5811C41.5838 13.5179 41.5338 13.4455 41.478 13.3729L40.6849 13.9819C40.7226 14.031 40.7592 14.0837 40.802 14.1461C40.8425 14.2053 40.8909 14.2768 40.9422 14.3468L41.7483 13.755ZM41.4777 13.3725L41.2671 13.0987L40.4745 13.7085L40.6852 13.9823L41.4777 13.3725ZM40.8708 12.9036H40.3483V13.9036H40.8708V12.9036ZM40.3483 12.9036H26.3841V13.9036H40.3483V12.9036ZM26.7349 13.7599L34.7534 5.86454L34.0518 5.15198L26.0333 13.0473L26.7349 13.7599ZM34.7016 5.10752L34.1263 4.67828L33.5283 5.47976L34.1036 5.909L34.7016 5.10752ZM34.1261 4.67814C30.4594 1.94495 26.0845 0.499756 21.4791 0.499756V1.49976C25.8708 1.49976 30.0358 2.87643 33.5285 5.4799L34.1261 4.67814ZM21.4791 0.499756C12.7741 0.499756 5.28966 5.75011 2.11905 13.208L3.03934 13.5992C6.05628 6.50281 13.1835 1.49976 21.4791 1.49976V0.499756ZM2.11896 13.2082C2.02509 13.4293 1.93725 13.6518 1.85286 13.8717L2.78645 14.23C2.86877 14.0156 2.95195 13.805 3.03943 13.599L2.11896 13.2082ZM1.85303 13.8713C1.7676 14.0932 1.68891 14.316 1.61328 14.5353L2.55865 14.8613C2.63293 14.6459 2.70716 14.4361 2.78629 14.2305L1.85303 13.8713ZM1.61328 14.5353C0.895364 16.6171 0.5 18.8452 0.5 21.1639H1.5C1.5 18.9598 1.87571 16.8417 2.55865 14.8613L1.61328 14.5353ZM0.5 21.1639C0.5 25.2809 1.71991 29.2041 4.01627 32.5933L4.84414 32.0324C2.65879 28.807 1.5 25.0789 1.5 21.1639H0.5ZM4.01637 32.5935C4.16813 32.8173 4.32457 33.0382 4.4852 33.2565L5.29059 32.6637C5.1372 32.4553 4.98822 32.2449 4.84404 32.0322L4.01637 32.5935ZM4.48495 33.2561C4.52276 33.3076 4.55832 33.3601 4.60242 33.4245C4.64439 33.4857 4.69318 33.5563 4.74763 33.6271L5.54034 33.0175C5.50412 32.9704 5.4688 32.9197 5.42736 32.8592C5.38806 32.8019 5.34091 32.7322 5.29084 32.6641L4.48495 33.2561ZM4.74753 33.627L4.96658 33.912L5.75948 33.3027L5.54044 33.0177L4.74753 33.627ZM5.36303 34.1074H5.86509V33.1074H5.36303V34.1074ZM5.86509 34.1074H19.8286V33.1074H5.86509V34.1074ZM19.4778 33.2511L11.4707 41.1352L12.1723 41.8477L20.1795 33.9636L19.4778 33.2511ZM11.5225 41.8922L12.0978 42.3214L12.6958 41.52L12.1205 41.0907L11.5225 41.8922ZM12.098 42.3216C15.7647 45.0548 20.1397 46.5 24.745 46.5V45.5C20.3533 45.5 16.1883 44.1233 12.6956 41.5198L12.098 42.3216ZM24.745 46.5C33.4456 46.5 40.927 41.2553 44.1002 33.8033L43.1802 33.4115C40.1607 40.5023 33.0365 45.5 24.745 45.5V46.5ZM44.1001 33.8036C44.1947 33.5817 44.2823 33.3588 44.3667 33.1395L43.4333 32.7807C43.3504 32.9961 43.2679 33.2059 43.1803 33.4112L44.1001 33.8036ZM44.3666 33.1397C44.4518 32.9182 44.5309 32.6957 44.6067 32.476L43.6614 32.1497C43.5874 32.3643 43.5126 32.5745 43.4333 32.7805L44.3666 33.1397ZM44.6067 32.4762C45.3272 30.3909 45.7241 28.1589 45.7241 25.8359H44.7241C44.7241 28.0441 44.347 30.1659 43.6615 32.1495L44.6067 32.4762ZM45.7241 25.8359C45.7241 21.724 44.5071 17.8053 42.217 14.4183L41.3886 14.9784C43.5681 18.2018 44.7241 21.9258 44.7241 25.8359H45.7241ZM42.2171 14.4185C42.0652 14.1935 41.9081 13.9726 41.7483 13.7549L40.9423 14.3468C41.0961 14.5563 41.2453 14.7663 41.3884 14.9782L42.2171 14.4185Z" fill="#1D99F2"/>
</g>
<path fill-rule="evenodd" clip-rule="evenodd" d="M63.742 24.8849C63.4793 24.5945 63.1797 24.3455 62.8431 24.1368C62.5064 23.9287 62.1628 23.7426 61.8129 23.5787C61.4627 23.4146 61.1193 23.2593 60.7826 23.1124C60.446 22.9657 60.1447 22.8086 59.8788 22.6413C59.6126 22.4739 59.4006 22.2824 59.2424 22.0674C59.084 21.852 59.005 21.5979 59.005 21.3043C59.005 21.1061 59.0403 20.9181 59.111 20.7406C59.1817 20.5631 59.2894 20.411 59.4342 20.2846C59.579 20.1583 59.7591 20.0595 59.9746 19.9875C60.1901 19.916 60.4426 19.8798 60.7322 19.8798C61.1024 19.8798 61.4425 19.9261 61.7523 20.0181C62.0619 20.1103 62.3346 20.2131 62.5703 20.3257C62.806 20.4384 63.0047 20.5424 63.1663 20.6383C63.3279 20.7339 63.4456 20.7813 63.5199 20.7813C63.5938 20.7813 63.6528 20.761 63.6966 20.7199C63.7403 20.6792 63.7738 20.6143 63.7976 20.5256C63.8212 20.4369 63.838 20.324 63.8482 20.1872C63.8581 20.0506 63.8632 19.8835 63.8632 19.6853C63.8632 19.5078 63.8598 19.3594 63.853 19.2394C63.8463 19.1199 63.8346 19.021 63.8178 18.9424C63.8008 18.8642 63.7806 18.8007 63.7571 18.7531C63.7335 18.7052 63.6881 18.6471 63.6207 18.579C63.5534 18.5103 63.4152 18.425 63.2067 18.3227C62.9979 18.2202 62.7588 18.128 62.4896 18.0459C62.2201 17.9638 61.9307 17.899 61.6209 17.8512C61.3113 17.8036 61.0015 17.7797 60.6917 17.7797C60.0925 17.7797 59.5253 17.8583 58.99 18.0151C58.4547 18.1726 57.99 18.4097 57.5962 18.7274C57.2023 19.0451 56.8891 19.4443 56.6567 19.9261C56.4244 20.4078 56.3083 20.9661 56.3083 21.6013C56.3083 22.1545 56.3892 22.629 56.5508 23.0253C56.7124 23.4217 56.9228 23.7646 57.1819 24.0547C57.4411 24.3455 57.7357 24.5945 58.0659 24.8028C58.3956 25.0115 58.7356 25.1974 59.0859 25.3611C59.4359 25.5253 59.7761 25.6808 60.1058 25.8273C60.4358 25.9746 60.7303 26.1314 60.9898 26.2988C61.2489 26.4664 61.4593 26.6574 61.6209 26.8728C61.7825 27.0878 61.8634 27.3456 61.8634 27.6459C61.8634 27.9055 61.8163 28.1415 61.722 28.3533C61.6275 28.5648 61.4912 28.7423 61.313 28.8858C61.1344 29.0292 60.9172 29.1404 60.6615 29.2185C60.4054 29.2972 60.116 29.3364 59.7928 29.3364C59.3013 29.3364 58.8687 29.2804 58.495 29.1677C58.1213 29.0548 57.7998 28.9303 57.5305 28.7936C57.2611 28.657 57.0407 28.5325 56.8689 28.4196C56.6973 28.307 56.5642 28.2505 56.4699 28.2505C56.4026 28.2505 56.3438 28.2695 56.2932 28.307C56.2427 28.3444 56.2023 28.4078 56.172 28.4967C56.1418 28.5855 56.1197 28.7016 56.1064 28.845C56.0928 28.9881 56.0862 29.166 56.0862 29.3775C56.0862 29.6918 56.1047 29.9326 56.1418 30.1C56.1786 30.2673 56.241 30.3953 56.3285 30.484C56.416 30.5728 56.5591 30.6755 56.7578 30.7916C56.9564 30.9077 57.2037 31.0189 57.5002 31.1244C57.7964 31.2304 58.1381 31.3209 58.5254 31.3958C58.9125 31.471 59.3316 31.5085 59.7826 31.5085C60.4494 31.5085 61.0756 31.4197 61.6615 31.2422C62.2471 31.0645 62.7588 30.8 63.1967 30.4483C63.6343 30.0965 63.9809 29.6577 64.237 29.1315C64.4928 28.6055 64.6207 27.9944 64.6207 27.2976C64.6207 26.7651 64.54 26.3022 64.3784 25.9093C64.2168 25.5169 64.0047 25.1752 63.742 24.8849Z" fill="#1D99F2"/>
<path fill-rule="evenodd" clip-rule="evenodd" d="M69.8048 18.6515C69.7166 18.6185 69.5991 18.592 69.4521 18.572C69.3051 18.552 69.1172 18.5424 68.8879 18.5424C68.6646 18.5424 68.4794 18.552 68.3326 18.572C68.1856 18.592 68.0666 18.6185 67.9755 18.6515C67.8843 18.6845 67.8198 18.7277 67.7814 18.7803C67.7432 18.8337 67.7241 18.8932 67.7241 18.9594V31.0918C67.7241 31.1578 67.7432 31.2173 67.7814 31.2703C67.8198 31.3233 67.883 31.3661 67.971 31.3991C68.0592 31.4325 68.1782 31.459 68.3282 31.4786C68.4779 31.4987 68.6646 31.5085 68.8879 31.5085C69.1172 31.5085 69.3051 31.4987 69.4521 31.4786C69.5991 31.459 69.7166 31.4325 69.8048 31.3991C69.893 31.3661 69.9561 31.3233 69.9942 31.2703C70.0326 31.2173 70.0517 31.1578 70.0517 31.0918V18.9594C70.0517 18.8932 70.0326 18.8337 69.9942 18.7803C69.9561 18.7277 69.893 18.6845 69.8048 18.6515Z" fill="#1D99F2"/>
<path fill-rule="evenodd" clip-rule="evenodd" d="M88.41 18.8168C88.3241 18.7271 88.2144 18.6587 88.0807 18.6124C87.947 18.5658 87.7876 18.5424 87.6022 18.5424H85.7809C85.5271 18.5424 85.3041 18.5675 85.112 18.6174C84.9199 18.6673 84.7535 18.7521 84.6131 18.8718C84.4723 18.9913 84.3489 19.1477 84.2425 19.3402C84.1361 19.5332 84.0383 19.7695 83.9494 20.0484L80.9653 27.7185H80.9239L78.0428 20.0287C77.9606 19.7493 77.8643 19.5151 77.7549 19.3256C77.645 19.1358 77.5078 18.9831 77.3432 18.8668C77.1785 18.7506 76.983 18.6673 76.7567 18.6174C76.5302 18.5675 76.2591 18.5424 75.9437 18.5424H74.1739C73.8652 18.5424 73.6181 18.6321 73.4329 18.812C73.2477 18.9913 73.1552 19.2505 73.1552 19.5898V31.0899C73.1552 31.1564 73.174 31.2162 73.2118 31.2694C73.2493 31.3227 73.3181 31.3657 73.4176 31.3988C73.5169 31.4323 73.649 31.459 73.8137 31.4787C73.9783 31.4988 74.1843 31.5085 74.4311 31.5085C74.6849 31.5085 74.8923 31.4988 75.0537 31.4787C75.2147 31.459 75.3468 31.4323 75.4498 31.3988C75.5526 31.3657 75.6231 31.3227 75.6607 31.2694C75.6984 31.2162 75.7174 31.1564 75.7174 31.0899V20.5873H75.738L79.4628 31.0796C79.4834 31.153 79.5247 31.2162 79.5863 31.2694C79.6482 31.3227 79.7319 31.3678 79.8384 31.404C79.9448 31.4405 80.0802 31.4672 80.2449 31.4835C80.4095 31.5003 80.6083 31.5085 80.8417 31.5085C81.0749 31.5085 81.274 31.5036 81.4386 31.4938C81.6032 31.4835 81.7387 31.4623 81.8451 31.429C81.9513 31.3954 82.0355 31.3508 82.0971 31.2944C82.1588 31.2377 82.2033 31.1662 82.231 31.0796L86.0896 20.5873H86.1101V31.0899C86.1101 31.1564 86.1307 31.2162 86.172 31.2694C86.2131 31.3227 86.2817 31.3657 86.3777 31.3988C86.4738 31.4323 86.604 31.459 86.7689 31.4787C86.9333 31.4988 87.1392 31.5085 87.3863 31.5085C87.6398 31.5085 87.8492 31.4988 88.0139 31.4787C88.1785 31.459 88.3105 31.4323 88.41 31.3988C88.5093 31.3657 88.5781 31.3227 88.6157 31.2694C88.6534 31.2162 88.6724 31.1564 88.6724 31.0899V19.5898C88.6724 19.4239 88.6501 19.2757 88.6055 19.1456C88.5608 19.0163 88.4956 18.9066 88.41 18.8168Z" fill="#1D99F2"/>
<path fill-rule="evenodd" clip-rule="evenodd" d="M98.0494 23.5741C97.9513 23.8572 97.8075 24.0996 97.6186 24.3024C97.4292 24.5054 97.1858 24.6631 96.8882 24.7761C96.5904 24.8891 96.221 24.9457 95.7796 24.9457H94.5395V20.5672H95.7164C96.0036 20.5672 96.2822 20.5856 96.5519 20.6221C96.8215 20.6586 97.0788 20.7467 97.3243 20.8863C97.5693 21.026 97.7761 21.2422 97.9442 21.5345C98.1123 21.8274 98.1965 22.1996 98.1965 22.6519C98.1965 22.9843 98.1472 23.2915 98.0494 23.5741ZM100.182 19.9337C99.8881 19.6179 99.5327 19.357 99.1158 19.1509C98.6989 18.945 98.2873 18.8032 97.881 18.7271C97.4747 18.6506 97.1261 18.6004 96.8356 18.5772C96.5446 18.5543 96.2382 18.5424 95.9161 18.5424H92.7111C92.4307 18.5424 92.2047 18.6206 92.0333 18.7766C91.8614 18.933 91.7759 19.1672 91.7759 19.4799V31.0899C91.7759 31.1562 91.7966 31.2159 91.8388 31.2692C91.8808 31.3225 91.9544 31.3655 92.0596 31.3986C92.1645 31.4323 92.3065 31.459 92.4851 31.4785C92.6638 31.4986 92.886 31.5085 93.1523 31.5085C93.4255 31.5085 93.6498 31.4986 93.825 31.4785C94 31.459 94.1403 31.4323 94.2452 31.3986C94.3504 31.3655 94.4257 31.3225 94.4712 31.2692C94.5167 31.2159 94.5395 31.1562 94.5395 31.0899V26.9705H95.6744C96.5711 26.9705 97.3506 26.8707 98.0125 26.6713C98.6746 26.4717 99.2331 26.181 99.6886 25.7983C100.144 25.4163 100.491 24.9457 100.729 24.3871C100.967 23.8285 101.086 23.187 101.086 22.4621C101.086 21.9371 101.009 21.4634 100.855 21.041C100.701 20.6187 100.477 20.2497 100.182 19.9337Z" fill="#1D99F2"/>
<path fill-rule="evenodd" clip-rule="evenodd" d="M111.074 29.5787C111.041 29.4956 111.001 29.4357 110.951 29.3994C110.903 29.3625 110.845 29.3444 110.779 29.3444H106.782V18.9613C106.782 18.8951 106.761 18.8353 106.719 18.7816C106.676 18.7288 106.606 18.6854 106.507 18.6522C106.409 18.6189 106.278 18.5923 106.115 18.5723C105.951 18.5522 105.741 18.5424 105.486 18.5424C105.237 18.5424 105.029 18.5522 104.862 18.5723C104.695 18.5923 104.563 18.6189 104.465 18.6522C104.367 18.6854 104.296 18.7288 104.253 18.7816C104.211 18.8353 104.19 18.8951 104.19 18.9613V30.6808C104.19 30.9735 104.263 31.1845 104.411 31.3139C104.558 31.4439 104.739 31.5085 104.956 31.5085H110.779C110.845 31.5085 110.903 31.4887 110.951 31.4487C111.001 31.4091 111.041 31.3439 111.074 31.2541C111.107 31.1644 111.132 31.0513 111.148 30.915C111.164 30.7792 111.172 30.6108 111.172 30.4114C111.172 30.2119 111.164 30.0444 111.148 29.9079C111.132 29.7716 111.107 29.6617 111.074 29.5787Z" fill="#1D99F2"/>
<path fill-rule="evenodd" clip-rule="evenodd" d="M119.947 18.5672C119.724 18.5509 119.411 18.5424 119.008 18.5424C118.704 18.5424 118.46 18.5488 118.277 18.5624C118.093 18.5753 117.948 18.6018 117.842 18.6417C117.736 18.6814 117.656 18.7327 117.603 18.7955C117.55 18.8584 117.506 18.9427 117.471 19.0487L115.965 22.1862C115.83 22.4907 115.693 22.8115 115.551 23.149C115.41 23.4865 115.272 23.8339 115.138 24.1914H115.117C114.968 23.8209 114.821 23.4667 114.676 23.129C114.532 22.7915 114.385 22.4707 114.236 22.1661L112.709 19.0091C112.66 18.9162 112.609 18.8404 112.556 18.7803C112.503 18.7208 112.419 18.6732 112.306 18.6365C112.193 18.6002 112.04 18.5753 111.845 18.5624C111.651 18.5488 111.391 18.5424 111.066 18.5424C110.677 18.5424 110.373 18.5509 110.154 18.5672C109.935 18.5839 109.784 18.6267 109.703 18.696C109.622 18.7657 109.601 18.8684 109.64 19.0039C109.678 19.1395 109.765 19.3299 109.9 19.5749L113.653 26.5743V31.0918C113.653 31.1578 113.674 31.2173 113.717 31.2703C113.759 31.3233 113.835 31.3661 113.945 31.3993C114.054 31.4327 114.198 31.4592 114.374 31.4786C114.551 31.4987 114.777 31.5085 115.053 31.5085C115.322 31.5085 115.546 31.4987 115.726 31.4786C115.907 31.4592 116.05 31.4327 116.156 31.3993C116.262 31.3661 116.338 31.3233 116.384 31.2703C116.43 31.2173 116.453 31.1578 116.453 31.0918V26.5743L120.206 19.5749C120.334 19.3366 120.418 19.1481 120.461 19.0091C120.503 18.8701 120.484 18.7657 120.403 18.696C120.321 18.6267 120.169 18.5839 119.947 18.5672Z" fill="#1D99F2"/>
<path fill-rule="evenodd" clip-rule="evenodd" d="M134.345 24.8849C134.083 24.5945 133.783 24.3455 133.446 24.1368C133.11 23.9287 132.766 23.7426 132.416 23.5787C132.066 23.4146 131.722 23.2593 131.386 23.1124C131.049 22.9657 130.748 22.8086 130.482 22.6413C130.216 22.4739 130.004 22.2824 129.846 22.0674C129.687 21.852 129.608 21.5979 129.608 21.3043C129.608 21.1061 129.644 20.9181 129.714 20.7406C129.785 20.5631 129.893 20.411 130.038 20.2846C130.183 20.1583 130.362 20.0595 130.578 19.9875C130.793 19.916 131.046 19.8798 131.336 19.8798C131.706 19.8798 132.046 19.9261 132.356 20.0181C132.665 20.1103 132.938 20.2131 133.174 20.3257C133.409 20.4384 133.608 20.5424 133.77 20.6383C133.931 20.7339 134.049 20.7813 134.123 20.7813C134.197 20.7813 134.256 20.761 134.3 20.7199C134.344 20.6792 134.377 20.6143 134.401 20.5256C134.424 20.4369 134.441 20.324 134.451 20.1872C134.461 20.0506 134.467 19.8835 134.467 19.6853C134.467 19.5078 134.463 19.3594 134.456 19.2394C134.45 19.1199 134.438 19.021 134.421 18.9424C134.404 18.8642 134.384 18.8007 134.36 18.7531C134.337 18.7052 134.291 18.6471 134.224 18.579C134.157 18.5103 134.019 18.425 133.81 18.3227C133.601 18.2202 133.362 18.128 133.093 18.0459C132.823 17.9638 132.534 17.899 132.224 17.8512C131.915 17.8036 131.605 17.7797 131.295 17.7797C130.696 17.7797 130.129 17.8583 129.593 18.0151C129.058 18.1726 128.593 18.4097 128.2 18.7274C127.806 19.0451 127.493 19.4443 127.26 19.9261C127.028 20.4078 126.912 20.9661 126.912 21.6013C126.912 22.1545 126.993 22.629 127.154 23.0253C127.316 23.4217 127.526 23.7646 127.785 24.0547C128.045 24.3455 128.339 24.5945 128.669 24.8028C128.999 25.0115 129.339 25.1974 129.689 25.3611C130.039 25.5253 130.379 25.6808 130.709 25.8273C131.039 25.9746 131.334 26.1314 131.593 26.2988C131.852 26.4664 132.063 26.6574 132.224 26.8728C132.386 27.0878 132.467 27.3456 132.467 27.6459C132.467 27.9055 132.42 28.1415 132.325 28.3533C132.231 28.5648 132.094 28.7423 131.916 28.8858C131.738 29.0292 131.521 29.1404 131.265 29.2185C131.009 29.2972 130.719 29.3364 130.396 29.3364C129.905 29.3364 129.472 29.2804 129.098 29.1677C128.725 29.0548 128.403 28.9303 128.134 28.7936C127.865 28.657 127.644 28.5325 127.472 28.4196C127.301 28.307 127.168 28.2505 127.073 28.2505C127.006 28.2505 126.947 28.2695 126.897 28.307C126.846 28.3444 126.806 28.4078 126.776 28.4967C126.745 28.5855 126.723 28.7016 126.71 28.845C126.696 28.9881 126.69 29.166 126.69 29.3775C126.69 29.6918 126.708 29.9326 126.745 30.1C126.782 30.2673 126.844 30.3953 126.932 30.484C127.019 30.5728 127.163 30.6755 127.361 30.7916C127.56 30.9077 127.807 31.0189 128.103 31.1244C128.4 31.2304 128.741 31.3209 129.129 31.3958C129.516 31.471 129.935 31.5085 130.386 31.5085C131.053 31.5085 131.679 31.4197 132.265 31.2422C132.851 31.0645 133.362 30.8 133.8 30.4483C134.237 30.0965 134.584 29.6577 134.84 29.1315C135.096 28.6055 135.224 27.9944 135.224 27.2976C135.224 26.7651 135.143 26.3022 134.982 25.9093C134.82 25.5169 134.608 25.1752 134.345 24.8849Z" fill="#1D99F2"/>
<path fill-rule="evenodd" clip-rule="evenodd" d="M146.633 20.6269C146.684 20.5873 146.726 20.5258 146.76 20.4422C146.794 20.3596 146.82 20.2497 146.837 20.1134C146.854 19.9769 146.862 19.8123 146.862 19.6193C146.862 19.4199 146.854 19.2505 146.837 19.1108C146.82 18.9712 146.794 18.86 146.76 18.7766C146.726 18.6938 146.684 18.6336 146.633 18.5971C146.582 18.5606 146.526 18.5424 146.465 18.5424H137.173C137.106 18.5424 137.048 18.5606 137 18.5971C136.953 18.6336 136.912 18.6938 136.878 18.7766C136.844 18.86 136.819 18.9712 136.802 19.1108C136.785 19.2505 136.776 19.4199 136.776 19.6193C136.776 19.8123 136.785 19.9769 136.802 20.1134C136.819 20.2497 136.844 20.3596 136.878 20.4422C136.912 20.5258 136.953 20.5873 137 20.6269C137.048 20.6665 137.106 20.6867 137.173 20.6867H140.474V31.0897C140.474 31.1562 140.496 31.2159 140.541 31.2692C140.585 31.3225 140.658 31.3655 140.76 31.3986C140.862 31.4321 140.999 31.4588 141.172 31.4785C141.345 31.4986 141.561 31.5085 141.819 31.5085C142.077 31.5085 142.293 31.4986 142.466 31.4785C142.639 31.4588 142.777 31.4321 142.879 31.3986C142.981 31.3655 143.053 31.3225 143.098 31.2692C143.142 31.2159 143.164 31.1562 143.164 31.0897V20.6867H146.465C146.526 20.6867 146.582 20.6665 146.633 20.6269Z" fill="#1D99F2"/>
<path fill-rule="evenodd" clip-rule="evenodd" d="M149.454 26.5148L151.361 21.054H151.372L153.278 26.5148H149.454ZM157.561 30.4763L153.393 19.0882C153.351 18.9625 153.301 18.8636 153.242 18.7905C153.183 18.7177 153.086 18.663 152.95 18.6267C152.815 18.5904 152.625 18.5672 152.382 18.5574C152.139 18.5472 151.813 18.5424 151.403 18.5424C151.048 18.5424 150.764 18.5472 150.548 18.5574C150.333 18.5672 150.164 18.5904 150.043 18.6267C149.921 18.663 149.833 18.716 149.777 18.7857C149.722 18.855 149.673 18.9458 149.631 19.0583L145.474 30.4563C145.39 30.6877 145.338 30.8733 145.317 31.0123C145.297 31.1513 145.321 31.259 145.39 31.3348C145.46 31.411 145.585 31.459 145.766 31.4786C145.946 31.4986 146.196 31.5085 146.516 31.5085C146.814 31.5085 147.056 31.502 147.24 31.4888C147.424 31.4755 147.567 31.4504 147.667 31.4143C147.768 31.378 147.841 31.3283 147.886 31.2655C147.931 31.2027 147.968 31.1248 147.995 31.0319L148.85 28.5201H153.914L154.821 31.1016C154.848 31.1876 154.883 31.2574 154.925 31.31C154.966 31.363 155.039 31.4045 155.144 31.4342C155.248 31.464 155.399 31.4836 155.597 31.4938C155.795 31.5034 156.071 31.5085 156.425 31.5085C156.765 31.5085 157.033 31.5003 157.227 31.4836C157.422 31.4673 157.557 31.4241 157.634 31.3546C157.71 31.2851 157.738 31.181 157.717 31.0419C157.696 30.9029 157.644 30.7142 157.561 30.4763Z" fill="#1D99F2"/>
<path fill-rule="evenodd" clip-rule="evenodd" d="M166.429 23.1105C166.331 23.3366 166.184 23.5312 165.988 23.6941C165.792 23.8572 165.547 23.9832 165.252 24.073C164.958 24.1627 164.615 24.2076 164.223 24.2076H162.815V20.547H164.055C164.37 20.547 164.617 20.5569 164.795 20.577C164.974 20.5971 165.133 20.6238 165.274 20.6569C165.736 20.7764 166.068 20.983 166.272 21.2753C166.475 21.5682 166.576 21.9268 166.576 22.3525C166.576 22.6318 166.527 22.8845 166.429 23.1105ZM169.875 30.2818L168.73 27.7384C168.597 27.4325 168.46 27.1586 168.32 26.9156C168.18 26.6728 168.031 26.4566 167.874 26.2674C167.716 26.0776 167.548 25.9168 167.37 25.7837C167.191 25.6505 167 25.5375 166.797 25.4446C167.217 25.3179 167.592 25.1516 167.921 24.9457C168.25 24.7398 168.527 24.4968 168.751 24.2175C168.975 23.9382 169.145 23.6209 169.261 23.2648C169.376 22.9094 169.434 22.5154 169.434 22.0834C169.434 21.5714 169.353 21.1172 169.192 20.7215C169.031 20.3264 168.799 19.9836 168.494 19.6944C168.189 19.4052 167.818 19.1706 167.38 18.9911C166.942 18.8118 166.45 18.6852 165.904 18.6124C165.715 18.5923 165.504 18.5759 165.274 18.5625C165.042 18.5489 164.748 18.5424 164.391 18.5424H160.871C160.64 18.5424 160.446 18.6069 160.288 18.737C160.13 18.8668 160.052 19.0777 160.052 19.37V31.0899C160.052 31.1562 160.073 31.2159 160.115 31.2692C160.157 31.3225 160.23 31.3655 160.335 31.3986C160.441 31.4323 160.582 31.459 160.761 31.4785C160.939 31.4986 161.162 31.5085 161.428 31.5085C161.701 31.5085 161.925 31.4986 162.1 31.4785C162.275 31.459 162.416 31.4323 162.521 31.3986C162.626 31.3655 162.701 31.3225 162.747 31.2692C162.792 31.2159 162.815 31.1562 162.815 31.0899V26.1724H163.676C163.971 26.1724 164.23 26.2158 164.454 26.3022C164.678 26.3886 164.876 26.5167 165.048 26.6864C165.219 26.8558 165.375 27.0668 165.515 27.3194C165.655 27.5721 165.799 27.8613 165.946 28.1874L167.165 31.0698C167.192 31.1497 167.228 31.2176 167.27 31.2742C167.312 31.3306 167.383 31.3774 167.485 31.4139C167.586 31.4502 167.725 31.4753 167.9 31.4888C168.075 31.502 168.31 31.5085 168.604 31.5085C168.954 31.5085 169.231 31.502 169.434 31.4888C169.637 31.4753 169.791 31.4518 169.896 31.4187C170.001 31.3856 170.068 31.3443 170.096 31.2942C170.124 31.2443 170.138 31.1828 170.138 31.1094C170.138 31.0432 170.12 30.9519 170.085 30.8356C170.05 30.7192 169.98 30.5344 169.875 30.2818Z" fill="#1D99F2"/>
<path fill-rule="evenodd" clip-rule="evenodd" d="M180.771 20.6269C180.822 20.5873 180.864 20.5258 180.898 20.4422C180.932 20.3596 180.958 20.2497 180.975 20.1134C180.991 19.9769 181 19.8123 181 19.6193C181 19.4199 180.991 19.2505 180.975 19.1108C180.958 18.9712 180.932 18.86 180.898 18.7766C180.864 18.6938 180.822 18.6336 180.771 18.5971C180.72 18.5606 180.664 18.5424 180.603 18.5424H171.311C171.243 18.5424 171.186 18.5606 171.138 18.5971C171.091 18.6336 171.05 18.6938 171.016 18.7766C170.982 18.86 170.956 18.9712 170.94 19.1108C170.923 19.2505 170.914 19.4199 170.914 19.6193C170.914 19.8123 170.923 19.9769 170.94 20.1134C170.956 20.2497 170.982 20.3596 171.016 20.4422C171.05 20.5258 171.091 20.5873 171.138 20.6269C171.186 20.6665 171.243 20.6867 171.311 20.6867H174.612V31.0897C174.612 31.1562 174.634 31.2159 174.679 31.2692C174.723 31.3225 174.796 31.3655 174.898 31.3986C174.999 31.4321 175.137 31.4588 175.31 31.4785C175.483 31.4986 175.699 31.5085 175.957 31.5085C176.215 31.5085 176.431 31.4986 176.604 31.4785C176.777 31.4588 176.915 31.4321 177.017 31.3986C177.118 31.3655 177.191 31.3225 177.236 31.2692C177.28 31.2159 177.302 31.1562 177.302 31.0897V20.6867H180.603C180.664 20.6867 180.72 20.6665 180.771 20.6269Z" fill="#1D99F2"/>
</svg>
