<svg width="41" height="40" viewBox="0 0 41 40" fill="none" xmlns="http://www.w3.org/2000/svg">
<circle cx="20.5" cy="20" r="19.5" fill="white" stroke="#1D99F2"/>
<g clip-path="url(#clip0_719_473)">
<path d="M23.5063 25.3055L21.0314 27.7804C20.7385 28.0733 20.2637 28.0733 19.9708 27.7804L17.4959 25.3055C17.0234 24.833 17.3581 24.0251 18.0262 24.0252H19.6251L19.625 20.875H16.4749V22.4738C16.4749 23.142 15.6671 23.4766 15.1946 23.0042L12.7197 20.5293C12.4268 20.2364 12.4268 19.7615 12.7197 19.4686L15.1946 16.9938C15.667 16.5213 16.4749 16.8559 16.4749 17.5241V19.125H19.625V15.9749H18.0241C17.3559 15.9749 17.0213 15.1671 17.4937 14.6946L19.9686 12.2197C20.2615 11.9268 20.7364 11.9268 21.0293 12.2197L23.5041 14.6946C23.9766 15.167 23.642 15.9749 22.9738 15.9749H21.375V19.125H24.5251V17.5262C24.5251 16.858 25.333 16.5234 25.8054 16.9959L28.2803 19.4707C28.5732 19.7636 28.5732 20.2385 28.2803 20.5314L25.8054 23.0063C25.333 23.4787 24.5251 23.1441 24.5251 22.4759V20.875H21.375V24.0251H22.976C23.6442 24.0251 23.9788 24.833 23.5063 25.3055Z" fill="#1D99F2"/>
</g>
<defs>
<clipPath id="clip0_719_473">
<rect width="16" height="16" fill="white" transform="translate(12.5 12)"/>
</clipPath>
</defs>
</svg>
