<svg width="385" height="402" viewBox="0 0 385 402" fill="none" xmlns="http://www.w3.org/2000/svg">
<circle opacity="0.2" cx="192.161" cy="169.87" r="169.87" fill="#8ECCF9"/>
<path d="M64.4583 108.555C85.9188 62.8596 162.122 69.3085 191.53 101.461C220.938 133.613 230.5 154.19 257.026 142.199C283.552 130.208 317.38 133.406 319.286 171.53C321.193 209.655 290.178 254.72 240.846 268.056C191.515 281.392 191.53 328.595 126.242 319.071C90.6459 313.875 89.8389 275.366 94.8658 243.514C99.8927 211.661 39.5773 161.553 64.4583 108.555Z" fill="#1D99F2"/>
<path opacity="0.9" d="M64.4583 108.555C85.9188 62.8596 162.122 69.3085 191.53 101.461C220.938 133.613 230.5 154.19 257.026 142.199C283.552 130.208 317.38 133.406 319.286 171.53C321.193 209.655 290.178 254.72 240.846 268.056C191.515 281.392 191.53 328.595 126.242 319.071C90.6459 313.875 89.8389 275.366 94.8658 243.514C99.8927 211.661 39.5773 161.553 64.4583 108.555Z" fill="white"/>
<path d="M192.16 346.32C274.469 346.32 341.193 342.424 341.193 337.618C341.193 332.813 274.469 328.917 192.16 328.917C109.852 328.917 43.1284 332.813 43.1284 337.618C43.1284 342.424 109.852 346.32 192.16 346.32Z" fill="#F5F5F5"/>
<path d="M311.093 314.459H310.324C310.324 313.422 311.185 289.056 315.428 284.928C319.809 280.67 324.951 284.867 325.005 284.928L324.513 285.52C324.321 285.358 319.847 281.723 315.966 285.52C311.938 289.371 311.1 314.213 311.093 314.459Z" fill="#1D99F2"/>
<path d="M310.739 319.356L309.97 319.279C309.97 318.987 312.707 289.724 302.107 277.564L302.691 277.065C313.514 289.471 310.862 318.141 310.739 319.356Z" fill="#1D99F2"/>
<path d="M311.008 316.227C310.916 314.844 308.871 282.292 317.034 274.782L317.557 275.343C309.663 282.607 311.754 315.835 311.777 316.173L311.008 316.227Z" fill="#1D99F2"/>
<path d="M309.978 316.204C309.978 315.981 309.725 294.136 303.944 290.839C303.457 290.515 302.898 290.314 302.316 290.252C301.734 290.191 301.145 290.271 300.601 290.485C297.219 291.884 295.412 298.356 295.397 298.425L294.628 298.218C294.705 297.941 296.55 291.3 300.286 289.763C300.938 289.503 301.644 289.403 302.343 289.471C303.043 289.539 303.715 289.774 304.306 290.155C310.455 293.683 310.716 315.274 310.724 316.189L309.978 316.204Z" fill="#1D99F2"/>
<path d="M312.361 316.219C312.322 315.52 311.423 298.933 316.127 292.784C317.388 291.146 318.787 290.355 320.301 290.478C323.66 290.716 326.258 295.259 326.366 295.451L325.697 295.827C325.697 295.781 323.191 291.454 320.247 291.216C319.002 291.139 317.826 291.807 316.742 293.229C312.207 299.148 313.114 315.981 313.129 316.15L312.361 316.219Z" fill="#1D99F2"/>
<path d="M311.5 318.518L310.731 318.456C310.731 318.057 313.691 278.579 308.825 272.007L309.44 271.554C314.475 278.356 311.623 316.881 311.5 318.518Z" fill="#1D99F2"/>
<path d="M299.002 293.737C299.002 293.737 302.007 294.844 301.116 297.465C300.224 300.086 290.701 304.382 290.701 304.382C290.701 304.382 286.719 300.731 290.378 294.79C294.036 288.848 298.887 291.861 299.002 293.737Z" fill="#1D99F2"/>
<path opacity="0.5" d="M299.002 293.737C299.002 293.737 302.007 294.844 301.116 297.465C300.224 300.086 290.701 304.382 290.701 304.382C290.701 304.382 286.719 300.731 290.378 294.79C294.036 288.848 298.887 291.861 299.002 293.737Z" fill="white"/>
<path d="M312.069 288.748C312.069 288.748 308.864 288.618 308.679 291.377C308.495 294.136 315.597 301.777 315.597 301.777C315.597 301.777 320.685 299.94 319.586 293.053C318.487 286.166 312.837 287.05 312.069 288.748Z" fill="#1D99F2"/>
<path opacity="0.5" d="M312.069 288.748C312.069 288.748 308.864 288.618 308.679 291.377C308.495 294.136 315.597 301.777 315.597 301.777C315.597 301.777 320.685 299.94 319.586 293.053C318.487 286.166 312.837 287.05 312.069 288.748Z" fill="white"/>
<path d="M314.759 275.528C314.759 275.528 312.63 275.297 312.799 273.99C312.968 272.684 321.1 269.34 325.904 274.759C325.904 274.759 322.83 280.032 318.387 280.101C313.944 280.17 314.759 275.528 314.759 275.528Z" fill="#1D99F2"/>
<path opacity="0.5" d="M314.759 275.528C314.759 275.528 312.63 275.297 312.799 273.99C312.968 272.684 321.1 269.34 325.904 274.759C325.904 274.759 322.83 280.032 318.387 280.101C313.944 280.17 314.759 275.528 314.759 275.528Z" fill="white"/>
<path d="M310.785 272.368C310.785 272.368 312.714 273.306 313.26 272.107C313.806 270.908 308.648 263.767 301.73 265.827C301.73 265.827 301.546 271.93 305.282 274.344C309.017 276.757 310.785 272.368 310.785 272.368Z" fill="#1D99F2"/>
<path opacity="0.5" d="M310.785 272.368C310.785 272.368 312.714 273.306 313.26 272.107C313.806 270.908 308.648 263.767 301.73 265.827C301.73 265.827 301.546 271.93 305.282 274.344C309.017 276.757 310.785 272.368 310.785 272.368Z" fill="white"/>
<path d="M320.9 292.684C320.9 292.684 319.425 291.492 321.016 290.908C322.607 290.324 330.408 290.493 330.493 298.226C330.493 298.226 321.4 299.763 320.278 296.796C319.156 293.829 320.9 292.684 320.9 292.684Z" fill="#1D99F2"/>
<path opacity="0.5" d="M320.9 292.684C320.9 292.684 319.425 291.492 321.016 290.908C322.607 290.324 330.408 290.493 330.493 298.226C330.493 298.226 321.4 299.763 320.278 296.796C319.156 293.829 320.9 292.684 320.9 292.684Z" fill="white"/>
<path d="M302.353 275.335C302.353 275.335 303.829 274.144 302.238 273.568C300.647 272.991 292.837 273.145 292.76 280.885C292.76 280.885 301.854 282.422 302.976 279.448C304.098 276.473 302.353 275.335 302.353 275.335Z" fill="#1D99F2"/>
<path opacity="0.5" d="M302.353 275.335C302.353 275.335 303.829 274.144 302.238 273.568C300.647 272.991 292.837 273.145 292.76 280.885C292.76 280.885 301.854 282.422 302.976 279.448C304.098 276.473 302.353 275.335 302.353 275.335Z" fill="white"/>
<path d="M307.165 281.569C307.165 281.569 307.288 280.116 306.119 280.685C304.951 281.254 300.885 285.643 305.105 289.809C305.105 289.809 310.785 285.604 309.755 283.414C308.725 281.223 307.165 281.569 307.165 281.569Z" fill="#1D99F2"/>
<path opacity="0.5" d="M307.165 281.569C307.165 281.569 307.288 280.116 306.119 280.685C304.951 281.254 300.885 285.643 305.105 289.809C305.105 289.809 310.785 285.604 309.755 283.414C308.725 281.223 307.165 281.569 307.165 281.569Z" fill="white"/>
<path d="M322.215 283.629C322.215 283.629 321.331 282.476 322.622 282.33C323.914 282.184 329.702 283.729 328.356 289.509C328.356 289.509 321.308 288.979 321 286.581C320.693 284.182 322.215 283.629 322.215 283.629Z" fill="#1D99F2"/>
<path opacity="0.5" d="M322.215 283.629C322.215 283.629 321.331 282.476 322.622 282.33C323.914 282.184 329.702 283.729 328.356 289.509C328.356 289.509 321.308 288.979 321 286.581C320.693 284.182 322.215 283.629 322.215 283.629Z" fill="white"/>
<path d="M298.402 337.634H322.584L325.197 311.162H295.797L298.402 337.634Z" fill="#263238"/>
<path opacity="0.2" d="M298.402 337.634H322.584L325.197 311.162H295.797L298.402 337.634Z" fill="white"/>
<path d="M294.505 314.083H326.489V308.241H294.505V314.083Z" fill="#263238"/>
<path opacity="0.4" d="M294.505 314.083H326.489V308.241H294.505V314.083Z" fill="white"/>
<path d="M80.277 280.554C80.1156 281.684 83.1748 282.422 85.6575 282.86C85.4577 284.913 84.1202 286.98 82.2063 288.917C79.8389 287.58 76.4492 285.843 75.8266 286.25C75.204 286.658 78.609 288.963 80.7766 290.278C79.2286 291.632 77.5874 292.875 75.865 293.998C74.8043 293.006 73.5591 292.138 72.7904 292.607C72.0218 293.076 72.2293 294.628 72.606 296.004C70.031 297.541 68.094 298.425 68.094 298.425C67.3436 296.029 66.7681 293.58 66.3723 291.1C66.5029 290.839 66.6336 290.578 66.7489 290.332C67.164 289.371 66.7489 288.956 66.0725 288.794C65.8883 287.039 65.8883 285.269 66.0725 283.514C68.9933 282.907 72.5445 281.769 71.2147 280.016C70.4461 278.963 68.9088 278.84 67.3715 279.109C67.5815 278.76 67.8234 278.431 68.094 278.126C73.413 272.269 77.1179 278.126 77.1179 278.126C80.1925 275.551 84.543 276.25 85.4807 280.27C83.782 279.786 80.4769 279.14 80.277 280.554Z" fill="#1D99F2"/>
<path opacity="0.3" d="M80.277 280.554C80.1156 281.684 83.1748 282.422 85.6575 282.86C85.4577 284.913 84.1202 286.98 82.2063 288.917C79.8389 287.58 76.4492 285.843 75.8266 286.25C75.204 286.658 78.609 288.963 80.7766 290.278C79.2286 291.632 77.5874 292.875 75.865 293.998C74.8043 293.006 73.5591 292.138 72.7904 292.607C72.0218 293.076 72.2293 294.628 72.606 296.004C70.031 297.541 68.094 298.425 68.094 298.425C67.3436 296.029 66.7681 293.58 66.3723 291.1C66.5029 290.839 66.6336 290.578 66.7489 290.332C67.164 289.371 66.7489 288.956 66.0725 288.794C65.8883 287.039 65.8883 285.269 66.0725 283.514C68.9933 282.907 72.5445 281.769 71.2147 280.016C70.4461 278.963 68.9088 278.84 67.3715 279.109C67.5815 278.76 67.8234 278.431 68.094 278.126C73.413 272.269 77.1179 278.126 77.1179 278.126C80.1925 275.551 84.543 276.25 85.4807 280.27C83.782 279.786 80.4769 279.14 80.277 280.554Z" fill="white"/>
<path d="M73.6435 323.598L74.4121 323.537C74.4121 323.145 71.2607 283.936 80.0617 280.239C80.4805 280.042 80.9396 279.945 81.4025 279.955C81.8655 279.966 82.3196 280.084 82.7288 280.301C85.911 281.961 87.4329 288.825 87.4483 288.894L88.2169 288.725C88.1478 288.433 86.6028 281.446 83.0978 279.624C82.5886 279.355 82.0241 279.207 81.4483 279.191C80.8724 279.175 80.3007 279.292 79.7773 279.532C70.4536 283.406 73.5128 321.931 73.6435 323.598Z" fill="#1D99F2"/>
<path d="M72.5367 322.722C72.6904 320.954 76.28 279.471 69.5697 275.066C67.9556 274.013 66.4952 273.783 65.3038 274.405C62.1293 276.004 61.7142 282.791 61.6912 283.076L62.4598 283.122C62.4598 283.053 62.8672 276.488 65.6497 275.089C66.6028 274.605 67.7788 274.813 69.147 275.712C75.4806 279.863 71.8065 322.223 71.7681 322.653L72.5367 322.722Z" fill="#1D99F2"/>
<path d="M71.5222 326.073C71.576 324.721 72.6828 292.968 66.5644 290.186C65.9953 289.92 65.3748 289.782 64.7466 289.782C64.1185 289.782 63.4979 289.92 62.9288 290.186C58.732 292.03 56.1417 299.847 56.011 300.178L56.7412 300.416C56.7412 300.339 59.3315 292.591 63.2132 290.885C63.6838 290.661 64.1985 290.545 64.7197 290.545C65.2409 290.545 65.7556 290.661 66.2262 290.885C70.915 293.022 71.0687 317.019 70.7305 326.043L71.5222 326.073Z" fill="#1D99F2"/>
<path d="M73.0825 324.621L73.8511 324.536C72.775 315.082 70.715 289.901 74.0817 286.873C74.2442 286.675 74.4609 286.528 74.7054 286.452C74.9498 286.376 75.2112 286.372 75.4576 286.442C77.7097 287.311 79.0856 295.505 79.4238 298.587L80.1924 298.502C80.0617 297.319 78.8319 286.919 75.7343 285.727C75.3566 285.603 74.951 285.59 74.5664 285.691C74.1818 285.792 73.8346 286.002 73.5667 286.296C69.1778 290.201 72.9211 323.222 73.0825 324.621Z" fill="#1D99F2"/>
<path d="M85.911 306.704H58.2937L60.5996 337.634H83.6051L85.911 306.704Z" fill="#1D99F2"/>
<path opacity="0.2" d="M77.5175 306.704L76.7488 337.634H60.5996L58.2937 306.704H77.5175Z" fill="white"/>
<path d="M82.1448 295.351C82.4369 296.119 84.5814 295.512 86.2647 294.913C86.8412 296.25 86.7105 297.987 86.2109 299.84C84.2893 299.84 81.599 299.894 81.3608 300.378C81.1225 300.862 84.0049 301.093 85.7958 301.146C85.3063 302.513 84.7206 303.844 84.0433 305.128C83.0441 304.882 81.9834 304.767 81.6836 305.312C81.3838 305.858 82.0372 306.757 82.7366 307.472C81.6605 309.279 80.7843 310.508 80.7843 310.508C79.5003 309.287 78.3058 307.974 77.2101 306.581C77.2101 306.381 77.2101 306.173 77.2101 305.966C77.1409 305.197 76.7489 305.113 76.28 305.266C75.5479 304.27 74.9195 303.201 74.4046 302.076C75.9956 300.693 77.7943 298.779 76.3723 298.156C75.5191 297.78 74.5737 298.21 73.7205 298.925C73.7326 298.638 73.7686 298.353 73.8281 298.072C75.0963 292.638 79.393 294.997 79.393 294.997C80.4153 292.345 83.3285 291.292 85.2885 293.46C84.0664 293.691 81.7912 294.39 82.1448 295.351Z" fill="#1D99F2"/>
<path opacity="0.3" d="M82.1448 295.351C82.4369 296.119 84.5814 295.512 86.2647 294.913C86.8412 296.25 86.7105 297.987 86.2109 299.84C84.2893 299.84 81.599 299.894 81.3608 300.378C81.1225 300.862 84.0049 301.093 85.7958 301.146C85.3063 302.513 84.7206 303.844 84.0433 305.128C83.0441 304.882 81.9834 304.767 81.6836 305.312C81.3838 305.858 82.0372 306.757 82.7366 307.472C81.6605 309.279 80.7843 310.508 80.7843 310.508C79.5003 309.287 78.3058 307.974 77.2101 306.581C77.2101 306.381 77.2101 306.173 77.2101 305.966C77.1409 305.197 76.7489 305.113 76.28 305.266C75.5479 304.27 74.9195 303.201 74.4046 302.076C75.9956 300.693 77.7943 298.779 76.3723 298.156C75.5191 297.78 74.5737 298.21 73.7205 298.925C73.7326 298.638 73.7686 298.353 73.8281 298.072C75.0963 292.638 79.393 294.997 79.393 294.997C80.4153 292.345 83.3285 291.292 85.2885 293.46C84.0664 293.691 81.7912 294.39 82.1448 295.351Z" fill="white"/>
<path d="M61.645 299.002C62.5042 299.073 63.3511 299.251 64.1662 299.532C64.3888 298.95 64.5134 298.334 64.5351 297.711C64.7119 292.138 60.6919 294.482 58.6166 292.853C58.1412 292.43 57.5817 292.113 56.9749 291.922C56.3682 291.731 55.7279 291.671 55.0962 291.746C55.2749 292.053 55.4341 292.372 55.5728 292.699C55.6217 292.821 55.6425 292.953 55.6336 293.084C55.6247 293.215 55.5864 293.343 55.5214 293.458C55.4564 293.572 55.3665 293.67 55.2583 293.745C55.1501 293.82 55.0263 293.87 54.8963 293.89C54.3772 293.991 53.8396 293.927 53.3591 293.706C53.2144 293.625 53.078 293.529 52.9517 293.422C52.6144 294.008 52.356 294.636 52.183 295.289C51.97 296.067 51.8488 296.866 51.8218 297.672C52.1368 297.74 52.4474 297.828 52.7518 297.933C52.8736 297.985 52.982 298.063 53.0686 298.163C53.1551 298.263 53.2176 298.381 53.251 298.509C53.2844 298.637 53.288 298.771 53.2614 298.9C53.2349 299.03 53.1788 299.151 53.0977 299.256C52.7674 299.591 52.3795 299.864 51.9524 300.063C52.0946 300.956 52.329 301.831 52.6519 302.676L52.9363 302.714C53.1388 302.755 53.3389 302.806 53.5359 302.868C53.6512 302.898 53.7642 302.937 53.8741 302.983C54.0102 303.043 54.129 303.137 54.2191 303.255C54.3092 303.373 54.3677 303.513 54.389 303.66C54.4125 303.811 54.3949 303.966 54.3381 304.108C54.2813 304.25 54.1874 304.374 54.0662 304.467C53.9342 304.561 53.7955 304.646 53.6512 304.721C54.1815 305.642 54.9415 306.41 55.8572 306.95C56.6487 306.579 57.4186 306.163 58.1631 305.704C57.994 305.482 57.8326 305.259 57.6788 305.028C57.4952 304.778 57.4103 304.468 57.4406 304.159C57.4857 303.854 57.6484 303.578 57.8941 303.391C58.1442 303.203 58.4578 303.121 58.768 303.161C59.0781 303.201 59.3603 303.361 59.5543 303.606C59.7388 303.883 59.9386 304.144 60.1385 304.375C61.2217 303.607 62.1942 302.694 63.0286 301.661H62.944C62.4409 301.527 61.9262 301.439 61.4068 301.4C61.0949 301.359 60.8119 301.196 60.6202 300.947C60.4285 300.698 60.3437 300.382 60.3845 300.07C60.4252 299.758 60.5882 299.475 60.8376 299.284C61.087 299.092 61.4023 299.007 61.7142 299.048L61.645 299.002Z" fill="#1D99F2"/>
<path opacity="0.5" d="M61.645 299.002C62.5042 299.073 63.3511 299.251 64.1662 299.532C64.3888 298.95 64.5134 298.334 64.5351 297.711C64.7119 292.138 60.6919 294.482 58.6166 292.853C58.1412 292.43 57.5817 292.113 56.9749 291.922C56.3682 291.731 55.7279 291.671 55.0962 291.746C55.2749 292.053 55.4341 292.372 55.5728 292.699C55.6217 292.821 55.6425 292.953 55.6336 293.084C55.6247 293.215 55.5864 293.343 55.5214 293.458C55.4564 293.572 55.3665 293.67 55.2583 293.745C55.1501 293.82 55.0263 293.87 54.8963 293.89C54.3772 293.991 53.8396 293.927 53.3591 293.706C53.2144 293.625 53.078 293.529 52.9517 293.422C52.6144 294.008 52.356 294.636 52.183 295.289C51.97 296.067 51.8488 296.866 51.8218 297.672C52.1368 297.74 52.4474 297.828 52.7518 297.933C52.8736 297.985 52.982 298.063 53.0686 298.163C53.1551 298.263 53.2176 298.381 53.251 298.509C53.2844 298.637 53.288 298.771 53.2614 298.9C53.2349 299.03 53.1788 299.151 53.0977 299.256C52.7674 299.591 52.3795 299.864 51.9524 300.063C52.0946 300.956 52.329 301.831 52.6519 302.676L52.9363 302.714C53.1388 302.755 53.3389 302.806 53.5359 302.868C53.6512 302.898 53.7642 302.937 53.8741 302.983C54.0102 303.043 54.129 303.137 54.2191 303.255C54.3092 303.373 54.3677 303.513 54.389 303.66C54.4125 303.811 54.3949 303.966 54.3381 304.108C54.2813 304.25 54.1874 304.374 54.0662 304.467C53.9342 304.561 53.7955 304.646 53.6512 304.721C54.1815 305.642 54.9415 306.41 55.8572 306.95C56.6487 306.579 57.4186 306.163 58.1631 305.704C57.994 305.482 57.8326 305.259 57.6788 305.028C57.4952 304.778 57.4103 304.468 57.4406 304.159C57.4857 303.854 57.6484 303.578 57.8941 303.391C58.1442 303.203 58.4578 303.121 58.768 303.161C59.0781 303.201 59.3603 303.361 59.5543 303.606C59.7388 303.883 59.9386 304.144 60.1385 304.375C61.2217 303.607 62.1942 302.694 63.0286 301.661H62.944C62.4409 301.527 61.9262 301.439 61.4068 301.4C61.0949 301.359 60.8119 301.196 60.6202 300.947C60.4285 300.698 60.3437 300.382 60.3845 300.07C60.4252 299.758 60.5882 299.475 60.8376 299.284C61.087 299.092 61.4023 299.007 61.7142 299.048L61.645 299.002Z" fill="white"/>
<path d="M60.0461 279.824C59.5682 279.488 59.0522 279.209 58.5089 278.994C58.6512 278.591 58.8561 278.212 59.1161 277.872C61.4681 274.867 62.5365 277.872 64.3582 277.918C64.789 277.909 65.2169 277.99 65.6141 278.157C66.0113 278.324 66.3691 278.573 66.6641 278.887C66.4352 278.969 66.2118 279.067 65.9954 279.179C65.916 279.221 65.8472 279.281 65.794 279.354C65.7409 279.427 65.7049 279.51 65.6887 279.599C65.6724 279.688 65.6764 279.779 65.7002 279.866C65.724 279.953 65.7671 280.033 65.8263 280.101C66.0614 280.384 66.3781 280.588 66.7333 280.685C66.8432 280.697 66.954 280.697 67.0638 280.685C66.9855 281.14 66.8459 281.582 66.6488 282C66.4183 282.499 66.132 282.971 65.7956 283.406C65.5982 283.305 65.3955 283.216 65.1883 283.137C65.1012 283.11 65.009 283.103 64.9189 283.117C64.8287 283.132 64.743 283.166 64.6686 283.219C64.5942 283.272 64.533 283.341 64.4898 283.422C64.4466 283.502 64.4226 283.592 64.4197 283.683C64.4433 284.005 64.5267 284.321 64.6657 284.613C64.1895 285.016 63.6746 285.372 63.1284 285.674L62.9593 285.574C62.8363 285.505 62.7056 285.443 62.5826 285.389C62.5099 285.351 62.4323 285.323 62.3521 285.305C62.2523 285.271 62.1452 285.264 62.0419 285.285C61.9386 285.306 61.8428 285.354 61.7645 285.425C61.6861 285.495 61.628 285.585 61.5962 285.686C61.5643 285.786 61.5599 285.894 61.5834 285.996C61.6112 286.104 61.6472 286.209 61.691 286.312C61.0078 286.561 60.2718 286.63 59.5542 286.511C59.2927 285.965 59.0643 285.402 58.8701 284.828L59.4235 284.69C59.6292 284.658 59.817 284.554 59.9539 284.398C60.0654 284.213 60.1038 283.994 60.0615 283.783C60.0138 283.573 59.8852 283.391 59.7038 283.276C59.5224 283.161 59.3029 283.122 59.093 283.168C58.8778 283.229 58.6549 283.283 58.432 283.329C58.2158 282.452 58.1227 281.549 58.1553 280.647H58.2091C58.5384 280.801 58.8524 280.987 59.1468 281.2C59.3304 281.311 59.5498 281.347 59.759 281.299C59.9682 281.252 60.151 281.126 60.269 280.946C60.3848 280.767 60.4263 280.55 60.3847 280.34C60.3431 280.131 60.2217 279.946 60.0461 279.824Z" fill="#1D99F2"/>
<path opacity="0.3" d="M60.0461 279.824C59.5682 279.488 59.0522 279.209 58.5089 278.994C58.6512 278.591 58.8561 278.212 59.1161 277.872C61.4681 274.867 62.5365 277.872 64.3582 277.918C64.789 277.909 65.2169 277.99 65.6141 278.157C66.0113 278.324 66.3691 278.573 66.6641 278.887C66.4352 278.969 66.2118 279.067 65.9954 279.179C65.916 279.221 65.8472 279.281 65.794 279.354C65.7409 279.427 65.7049 279.51 65.6887 279.599C65.6724 279.688 65.6764 279.779 65.7002 279.866C65.724 279.953 65.7671 280.033 65.8263 280.101C66.0614 280.384 66.3781 280.588 66.7333 280.685C66.8432 280.697 66.954 280.697 67.0638 280.685C66.9855 281.14 66.8459 281.582 66.6488 282C66.4183 282.499 66.132 282.971 65.7956 283.406C65.5982 283.305 65.3955 283.216 65.1883 283.137C65.1012 283.11 65.009 283.103 64.9189 283.117C64.8287 283.132 64.743 283.166 64.6686 283.219C64.5942 283.272 64.533 283.341 64.4898 283.422C64.4466 283.502 64.4226 283.592 64.4197 283.683C64.4433 284.005 64.5267 284.321 64.6657 284.613C64.1895 285.016 63.6746 285.372 63.1284 285.674L62.9593 285.574C62.8363 285.505 62.7056 285.443 62.5826 285.389C62.5099 285.351 62.4323 285.323 62.3521 285.305C62.2523 285.271 62.1452 285.264 62.0419 285.285C61.9386 285.306 61.8428 285.354 61.7645 285.425C61.6861 285.495 61.628 285.585 61.5962 285.686C61.5643 285.786 61.5599 285.894 61.5834 285.996C61.6112 286.104 61.6472 286.209 61.691 286.312C61.0078 286.561 60.2718 286.63 59.5542 286.511C59.2927 285.965 59.0643 285.402 58.8701 284.828L59.4235 284.69C59.6292 284.658 59.817 284.554 59.9539 284.398C60.0654 284.213 60.1038 283.994 60.0615 283.783C60.0138 283.573 59.8852 283.391 59.7038 283.276C59.5224 283.161 59.3029 283.122 59.093 283.168C58.8778 283.229 58.6549 283.283 58.432 283.329C58.2158 282.452 58.1227 281.549 58.1553 280.647H58.2091C58.5384 280.801 58.8524 280.987 59.1468 281.2C59.3304 281.311 59.5498 281.347 59.759 281.299C59.9682 281.252 60.151 281.126 60.269 280.946C60.3848 280.767 60.4263 280.55 60.3847 280.34C60.3431 280.131 60.2217 279.946 60.0461 279.824Z" fill="white"/>
<path d="M82.5521 285.397C82.7135 286.527 79.6467 287.272 77.1716 287.703C77.3715 289.755 78.7089 291.83 80.6228 293.767C82.9979 292.43 86.38 290.693 87.0026 291.093C87.6252 291.492 84.2201 293.806 82.0525 295.128C83.602 296.48 85.2431 297.723 86.9641 298.848C88.0249 297.849 89.2701 296.98 90.0387 297.449C90.8073 297.918 90.5998 299.478 90.2232 300.847C92.8058 302.384 94.7351 303.268 94.7351 303.268C95.4856 300.871 96.061 298.423 96.4569 295.943C96.3262 295.689 96.1955 295.428 96.0802 295.174C95.6652 294.213 96.0802 293.806 96.7566 293.637C96.9408 291.884 96.9408 290.117 96.7566 288.364C93.8435 287.749 90.2924 286.619 91.6221 284.867C92.3907 283.806 93.8896 283.691 95.4192 283.952C95.2092 283.602 94.9673 283.273 94.6967 282.968C89.3854 277.119 85.6728 282.968 85.6728 282.968C82.5982 280.401 78.2477 281.092 77.31 285.112C79.0317 284.667 82.3523 284.006 82.5521 285.397Z" fill="#1D99F2"/>
<path opacity="0.5" d="M82.5521 285.397C82.7135 286.527 79.6467 287.272 77.1716 287.703C77.3715 289.755 78.7089 291.83 80.6228 293.767C82.9979 292.43 86.38 290.693 87.0026 291.093C87.6252 291.492 84.2201 293.806 82.0525 295.128C83.602 296.48 85.2431 297.723 86.9641 298.848C88.0249 297.849 89.2701 296.98 90.0387 297.449C90.8073 297.918 90.5998 299.478 90.2232 300.847C92.8058 302.384 94.7351 303.268 94.7351 303.268C95.4856 300.871 96.061 298.423 96.4569 295.943C96.3262 295.689 96.1955 295.428 96.0802 295.174C95.6652 294.213 96.0802 293.806 96.7566 293.637C96.9408 291.884 96.9408 290.117 96.7566 288.364C93.8435 287.749 90.2924 286.619 91.6221 284.867C92.3907 283.806 93.8896 283.691 95.4192 283.952C95.2092 283.602 94.9673 283.273 94.6967 282.968C89.3854 277.119 85.6728 282.968 85.6728 282.968C82.5982 280.401 78.2477 281.092 77.31 285.112C79.0317 284.667 82.3523 284.006 82.5521 285.397Z" fill="white"/>
<path d="M223.26 161.722C223.06 162.875 222.852 163.836 222.599 164.874C222.345 165.911 222.076 166.895 221.776 167.895C221.191 169.915 220.488 171.899 219.67 173.836C217.995 177.726 215.927 181.63 212.468 184.974C211.576 185.832 210.594 186.592 209.54 187.241C209.271 187.395 208.971 187.58 208.725 187.71L208.018 188.071C207.541 188.31 207.08 188.533 206.603 188.74C204.72 189.593 202.86 190.362 200.969 191.046C197.222 192.456 193.402 193.662 189.524 194.659L188.079 190.985C191.5 189.063 194.997 187.211 198.379 185.358C200.07 184.42 201.769 183.506 203.383 182.537C203.782 182.299 204.151 182.068 204.574 181.822L205.158 181.461C205.335 181.346 205.45 181.254 205.596 181.154C206.193 180.724 206.742 180.232 207.234 179.686C209.347 177.418 211 174.19 212.307 170.823C212.983 169.14 213.544 167.38 214.082 165.612C214.344 164.72 214.59 163.828 214.851 162.929C215.112 162.03 215.297 161.092 215.458 160.316L223.26 161.722Z" fill="#CE7A63"/>
<path d="M207.211 172.245L215.512 178.44C215.512 178.44 215.835 178.087 216.358 177.48C216.742 177.034 217.241 176.442 217.81 175.75C221.039 171.815 225.758 164.643 225.796 161.146C225.85 155.904 220.416 155.135 214.313 160.493C211.677 162.798 210.301 166.642 208.932 169.017C208.487 169.785 208.118 170.493 207.826 171.023C207.441 171.784 207.211 172.245 207.211 172.245Z" fill="#1D99F2"/>
<path opacity="0.3" d="M225.85 161.73C223.975 160.493 222.606 163.705 218.894 166.419C217.241 167.626 213.621 175.512 213.913 177.249L215.52 178.44C215.52 178.44 225.889 166.957 225.85 161.73Z" fill="black"/>
<path d="M189.555 190.569L182.691 188.756L183.175 195.558C183.175 195.558 189.878 196.234 190.5 194.221L189.555 190.569Z" fill="#CE7A63"/>
<path d="M177.41 192.276L178.971 196.918L183.175 195.558L182.691 188.756L177.41 192.276Z" fill="#CE7A63"/>
<path d="M217.58 202.66H245.689C245.881 200.154 245.305 191.984 245.735 181.592C246.005 173.883 246.938 166.212 248.525 158.663L248.917 156.972C248.917 156.972 247.495 156.68 245.451 156.38C243.76 156.134 241.607 155.881 239.547 155.781C235.569 155.554 231.581 155.554 227.603 155.781C225.766 155.95 223.975 156.257 222.545 156.549C220.716 156.918 219.632 157.233 219.632 157.233C219.632 157.233 212.714 173.114 217.58 202.66Z" fill="#1D99F2"/>
<path opacity="0.3" d="M245.735 181.592C246.005 173.885 246.938 166.217 248.525 158.671C246.65 158.502 243.437 158.671 242.906 161.745C242.33 164.981 243.052 172.652 245.735 181.592Z" fill="black"/>
<path d="M239.294 143.736L236.096 146.388L231.746 150.001C231.87 150.582 231.962 151.169 232.023 151.761C232.253 154.12 231.646 154.935 228.179 155.758C228.179 155.758 224.059 158.486 230.17 158.986C230.193 159.649 230.296 160.307 230.478 160.946C231.015 160.201 231.681 159.558 232.445 159.047C239.132 158.932 240.016 155.835 240.016 155.835C237.403 153.244 238.41 147.579 239.294 143.736Z" fill="#CE7A63"/>
<path opacity="0.2" d="M231.746 149.977C231.87 150.559 231.962 151.146 232.022 151.738C233.644 151.415 235.812 149.685 236.042 148.025C236.119 147.475 236.137 146.919 236.096 146.365L231.746 149.977Z" fill="black"/>
<path d="M220.078 332.207L214.167 332.83L213.867 329.402L213.06 320.078L218.971 319.448L219.87 329.755L220.078 332.207Z" fill="#9F5B53"/>
<path d="M249.586 331.462H243.86L243.806 330.163L243.798 330.001L243.506 321.692L243.498 321.523L243.383 318.333H249.125L249.586 331.462Z" fill="#9F5B53"/>
<path opacity="0.2" d="M218.971 319.448L219.87 329.755L213.867 329.402L213.06 320.078L218.971 319.448Z" fill="black"/>
<path opacity="0.2" d="M249.555 330.731H249.548L243.806 330.001H243.798L243.498 321.984H243.506L249.255 322.438L249.548 330.478L249.555 330.731Z" fill="black"/>
<path d="M243.068 331.116H249.986C250.1 331.115 250.212 331.153 250.301 331.225C250.391 331.296 250.453 331.396 250.478 331.508L251.608 336.612C251.653 336.831 251.61 337.059 251.487 337.246C251.365 337.433 251.173 337.565 250.954 337.611H250.77C248.518 337.572 246.873 337.434 244.044 337.434C242.307 337.434 237.049 337.611 234.644 337.611C232.238 337.611 231.923 335.236 232.906 335.02C237.326 334.06 240.647 332.715 242.061 331.454C242.339 331.212 242.701 331.091 243.068 331.116Z" fill="#263238"/>
<path d="M213.536 330.931H220.5C220.615 330.93 220.726 330.969 220.816 331.04C220.905 331.112 220.968 331.211 220.992 331.323L222.122 336.427C222.168 336.646 222.125 336.874 222.002 337.062C221.88 337.249 221.688 337.38 221.469 337.426H221.284C219.032 337.426 217.387 337.25 214.559 337.25C212.814 337.25 207.564 337.434 205.158 337.434C202.752 337.434 202.437 335.059 203.421 334.836C207.841 333.875 211.161 332.53 212.576 331.269C212.841 331.039 213.185 330.918 213.536 330.931Z" fill="#263238"/>
<path d="M250.316 329.271H242.022C242.022 329.271 235.335 293.506 232.691 275.282C232.284 272.453 231.838 268.74 231.392 264.421C230.693 257.426 229.97 249.048 229.324 240.977C227.341 246.311 225.827 253.929 224.659 262.576C220.5 293.552 220.923 328.541 220.923 328.541H212.514C206.027 278.971 214.689 217.972 217.58 202.66H245.681C245.727 206.304 247.272 258.002 248.356 277.472C249.332 295.382 250.316 329.271 250.316 329.271Z" fill="#263238"/>
<path d="M211.569 326.173L211.984 328.541H221.915V326.358L211.569 326.173Z" fill="#1D99F2"/>
<path d="M241.062 327.08L242.015 329.271H250.347L250.893 327.08H241.062Z" fill="#1D99F2"/>
<path d="M239.455 144.197C239.455 144.197 241.162 145.043 241.677 144.067C242.192 143.09 241.677 141.584 242.514 141.3C243.352 141.015 245.166 140.977 245.051 139.954C244.936 138.932 243.783 138.11 244.574 137.449C245.366 136.788 246.988 135.85 246.265 135.05C245.543 134.251 244.874 132.937 245.497 132.46C246.119 131.984 245.305 129.255 243.69 129.439C242.076 129.624 242.345 128.302 242.384 127.133C242.422 125.965 240.016 124.989 239.448 126.15C238.879 127.31 237.641 125.834 237.303 124.804C236.965 123.774 236.273 123.421 234.82 124.143C233.368 124.866 233.152 127.303 232.407 125.896C231.661 124.489 230.009 123.59 229.202 124.359C228.394 125.127 228.879 126.142 227.61 126.088C226.342 126.034 224.582 128.333 225.205 128.686C225.827 129.04 225.735 129.67 224.882 130.362C224.029 131.054 223.037 132.176 224.152 132.668C225.266 133.16 225.197 133.974 224.866 134.305C224.536 134.635 225.535 136.242 227.034 136.15C228.533 136.057 239.455 144.197 239.455 144.197Z" fill="#263238"/>
<path d="M226.273 129.685C226.273 129.685 223.414 136.472 226.473 140.139C229.532 143.805 232.853 130.662 232.853 130.662L226.273 129.685Z" fill="#263238"/>
<path d="M235.973 148.494C234.896 149.458 233.531 150.041 232.089 150.154C230.648 150.266 229.209 149.902 227.995 149.117C226.4 148.136 225.242 146.582 224.759 144.774C224.69 144.528 224.636 144.274 224.59 144.005C223.821 139.224 225.151 131.53 230.431 129.854C231.594 129.48 232.834 129.41 234.032 129.649C235.23 129.888 236.347 130.43 237.278 131.222C238.208 132.014 238.92 133.031 239.347 134.176C239.774 135.321 239.901 136.556 239.717 137.764C238.963 142.967 238.786 146.042 235.973 148.494Z" fill="#CE7A63"/>
<path d="M231.646 138.609C231.646 139.032 231.361 139.378 231.077 139.339C230.793 139.301 230.608 138.955 230.639 138.525C230.67 138.094 230.923 137.756 231.2 137.802C231.477 137.848 231.676 138.179 231.646 138.609Z" fill="#263238"/>
<path d="M226.842 138.233C226.842 138.655 226.55 139.001 226.281 138.963C226.012 138.924 225.804 138.579 225.835 138.148C225.866 137.718 226.127 137.379 226.396 137.426C226.665 137.472 226.872 137.833 226.842 138.233Z" fill="#263238"/>
<path d="M228.348 138.563C227.745 139.823 226.969 140.992 226.042 142.037C226.318 142.269 226.642 142.437 226.99 142.53C227.338 142.623 227.702 142.639 228.056 142.575L228.348 138.563Z" fill="#BA4D3C"/>
<path d="M225.212 136.127C225.251 136.151 225.297 136.164 225.343 136.164C225.389 136.164 225.434 136.151 225.474 136.127C225.738 135.958 226.038 135.853 226.35 135.82C226.662 135.787 226.978 135.826 227.272 135.934C227.302 135.949 227.334 135.958 227.366 135.96C227.399 135.962 227.432 135.957 227.463 135.947C227.494 135.936 227.523 135.919 227.547 135.897C227.571 135.875 227.591 135.848 227.605 135.818C227.619 135.788 227.627 135.756 227.628 135.723C227.629 135.69 227.624 135.658 227.612 135.627C227.6 135.596 227.583 135.568 227.56 135.544C227.537 135.521 227.51 135.502 227.48 135.489C227.111 135.343 226.713 135.288 226.319 135.326C225.925 135.365 225.545 135.497 225.212 135.712C225.156 135.745 225.115 135.799 225.098 135.862C225.081 135.925 225.089 135.992 225.12 136.05C225.147 136.079 225.178 136.105 225.212 136.127Z" fill="#263238"/>
<path d="M232.737 136.772C232.785 136.788 232.836 136.788 232.883 136.772C232.929 136.725 232.955 136.661 232.955 136.595C232.955 136.529 232.929 136.466 232.883 136.419C232.612 136.129 232.275 135.907 231.9 135.774C231.526 135.64 231.125 135.598 230.731 135.65C230.666 135.665 230.61 135.704 230.574 135.761C230.538 135.817 230.525 135.885 230.539 135.95C230.554 136.013 230.592 136.068 230.647 136.104C230.701 136.14 230.767 136.153 230.831 136.142C231.144 136.108 231.46 136.147 231.755 136.256C232.05 136.366 232.315 136.542 232.53 136.772C232.562 136.787 232.598 136.795 232.633 136.795C232.669 136.795 232.705 136.787 232.737 136.772Z" fill="#263238"/>
<path d="M236.357 130.969L235.781 131.891C237.426 132.66 236.834 134.62 236.373 135.473C235.389 137.303 236.104 140.431 237.434 141.807C237.434 141.807 237.58 140.977 238.264 141.261C238.948 141.545 238.264 145.104 238.264 145.104C238.264 145.104 238.856 146.127 240.608 141.715C242.222 137.633 242.806 134.143 242.145 132.399L236.357 130.969Z" fill="#263238"/>
<path d="M241.615 142.199C241.288 142.766 240.85 143.261 240.329 143.657C239.808 144.053 239.213 144.341 238.579 144.505C236.88 144.935 236.081 143.406 236.588 141.83C237.049 140.431 238.487 138.479 240.17 138.755C240.536 138.82 240.88 138.976 241.17 139.208C241.46 139.439 241.687 139.741 241.831 140.083C241.975 140.426 242.031 140.799 241.993 141.169C241.955 141.538 241.825 141.892 241.615 142.199Z" fill="#CE7A63"/>
<path d="M228.287 143.621C228.691 144.263 229.049 144.933 229.355 145.627L229.74 145.519C231.484 145.043 232.138 144.243 232.33 143.506C232.42 143.142 232.42 142.762 232.33 142.399C232.282 142.192 232.207 141.993 232.107 141.807C231.162 142.582 230.061 143.143 228.879 143.452C228.51 143.567 228.287 143.621 228.287 143.621Z" fill="#263238"/>
<path d="M228.871 143.452L229.202 144.036C230.846 143.582 231.938 143.037 232.322 142.399C232.274 142.192 232.199 141.993 232.099 141.807C231.155 142.582 230.053 143.143 228.871 143.452Z" fill="white"/>
<path d="M229.732 145.519C231.477 145.043 232.13 144.243 232.322 143.506C231.663 143.7 231.044 144.01 230.493 144.42C230.129 144.697 229.863 145.082 229.732 145.519Z" fill="#DE5753"/>
<path d="M232.576 127.871C232.576 127.871 229.755 127.871 228.318 129.047C226.88 130.223 225.912 132.045 226.427 132.214C226.942 132.383 228.418 131.538 228.802 131.722C229.186 131.907 229.186 134.143 230.608 133.383C232.03 132.622 231.231 132.614 232.384 132.337C233.537 132.06 234.19 133.49 234.69 133.39C235.053 133.297 235.394 133.135 235.697 132.914C235.697 132.914 234.159 132.406 234.075 131.914C233.99 131.422 232.538 131.146 232.538 131.146C232.538 131.146 234.375 130.523 234.943 131.038C235.512 131.553 235.182 132.691 236.681 132.66C238.179 132.629 240.524 133.944 240.739 132.037C240.954 130.131 235.973 126.611 232.576 127.871Z" fill="#263238"/>
<path d="M240.009 153.206L232.853 156.28L230.47 160.923L232.853 159.355L235.781 162.168L241.976 155.958L240.009 153.206Z" fill="#1D99F2"/>
<path d="M230.47 160.923L229.701 156.811C229.701 156.811 229.77 155.604 231.392 154.428L228.84 153.206C228.84 153.206 224.889 157.956 224.651 160.892L228.11 158.586L230.47 160.923Z" fill="#1D99F2"/>
<path opacity="0.2" d="M240.009 153.206L232.853 156.28L230.47 160.923L232.853 159.355L235.781 162.168L241.976 155.958L240.009 153.206Z" fill="white"/>
<path opacity="0.2" d="M230.47 160.923L229.701 156.811C229.701 156.811 229.77 155.604 231.392 154.428L228.84 153.206C228.84 153.206 224.889 157.956 224.651 160.892L228.11 158.586L230.47 160.923Z" fill="white"/>
<path d="M209.786 331.369C209.734 331.262 209.712 331.142 209.723 331.023C209.734 330.904 209.777 330.79 209.847 330.693C209.882 330.622 209.935 330.561 210.002 330.518C210.068 330.475 210.145 330.45 210.224 330.447C210.908 330.409 212.015 331.831 212.138 331.984C212.151 332.005 212.158 332.029 212.158 332.053C212.158 332.078 212.151 332.102 212.138 332.123C212.125 332.142 212.108 332.157 212.088 332.168C212.068 332.179 212.045 332.184 212.022 332.184C211.551 332.15 211.085 332.065 210.631 331.93C210.289 331.855 209.988 331.655 209.786 331.369ZM210.239 330.693C210.2 330.693 210.161 330.705 210.128 330.727C210.096 330.748 210.07 330.78 210.055 330.816C210.009 330.878 209.979 330.951 209.97 331.028C209.96 331.105 209.971 331.183 210.001 331.254C210.162 331.562 210.808 331.808 211.761 331.915C211.3 331.362 210.608 330.67 210.239 330.693Z" fill="#1D99F2"/>
<path d="M211.945 332.153C211.546 331.692 211.138 330.409 211.431 329.901C211.481 329.808 211.562 329.736 211.661 329.697C211.759 329.657 211.868 329.654 211.969 329.686C212.062 329.702 212.15 329.739 212.226 329.795C212.303 329.851 212.364 329.924 212.407 330.009C212.753 330.655 212.176 332.054 212.153 332.115C212.145 332.134 212.132 332.151 212.116 332.165C212.1 332.178 212.081 332.187 212.061 332.192H211.999L211.945 332.153ZM211.945 329.924C211.769 329.886 211.7 329.924 211.669 330.024C211.556 330.645 211.685 331.286 212.03 331.815C212.272 331.286 212.337 330.693 212.215 330.124C212.193 330.081 212.163 330.042 212.126 330.01C212.089 329.978 212.046 329.954 211.999 329.94L211.945 329.924Z" fill="#1D99F2"/>
<path d="M239.309 331.369C239.257 331.262 239.236 331.142 239.246 331.023C239.257 330.904 239.3 330.79 239.371 330.693C239.405 330.622 239.459 330.561 239.525 330.518C239.591 330.475 239.668 330.45 239.747 330.447C240.439 330.409 241.538 331.831 241.661 331.984C241.674 332.005 241.681 332.029 241.681 332.053C241.681 332.078 241.674 332.102 241.661 332.123C241.648 332.142 241.631 332.157 241.611 332.168C241.591 332.179 241.569 332.184 241.546 332.184C241.074 332.149 240.608 332.064 240.155 331.93C239.814 331.853 239.513 331.654 239.309 331.369ZM239.763 330.693C239.723 330.693 239.685 330.705 239.652 330.727C239.619 330.748 239.593 330.78 239.578 330.816C239.532 330.878 239.503 330.951 239.493 331.028C239.484 331.105 239.495 331.183 239.524 331.254C239.686 331.562 240.331 331.808 241.285 331.915C240.823 331.362 240.132 330.67 239.763 330.693Z" fill="#1D99F2"/>
<path d="M241.469 332.153C241.069 331.692 240.7 330.409 240.954 329.901C241.005 329.808 241.086 329.736 241.184 329.697C241.282 329.657 241.391 329.654 241.492 329.686C241.585 329.702 241.674 329.739 241.75 329.795C241.826 329.851 241.888 329.924 241.93 330.009C242.276 330.655 241.7 332.054 241.677 332.115C241.668 332.134 241.656 332.151 241.64 332.165C241.624 332.178 241.605 332.187 241.584 332.192H241.523L241.469 332.153ZM241.469 329.924C241.292 329.886 241.223 329.924 241.192 330.024C241.079 330.645 241.208 331.286 241.554 331.815C241.796 331.286 241.86 330.693 241.738 330.124C241.717 330.08 241.687 330.041 241.65 330.009C241.613 329.977 241.57 329.954 241.523 329.94L241.469 329.924Z" fill="#1D99F2"/>
<path opacity="0.3" d="M229.325 240.977C227.342 246.311 225.827 253.929 224.659 262.576C221.838 251.046 228.594 229.624 228.594 229.624L229.325 240.977Z" fill="black"/>
<path d="M268.295 200.147C270.662 201.015 271.369 204.966 269.909 208.979C268.448 212.991 265.297 215.52 262.991 214.651C260.685 213.783 259.916 209.824 261.377 205.819C262.837 201.815 265.95 199.271 268.295 200.147Z" fill="#263238"/>
<path d="M261.592 194.121C261.368 193.587 260.947 193.16 260.416 192.929C258.11 192.076 254.39 196.327 252.145 202.422C249.901 208.517 249.97 214.151 252.291 215.005C252.838 215.178 253.431 215.131 253.944 214.874C254.131 215.078 254.363 215.235 254.62 215.335C254.89 215.42 255.173 215.45 255.454 215.425C255.735 215.4 256.008 215.32 256.258 215.189C256.448 215.399 256.685 215.562 256.949 215.666C257.219 215.746 257.502 215.772 257.782 215.742C258.062 215.711 258.333 215.625 258.579 215.489C258.762 215.713 259.001 215.885 259.271 215.989C259.542 216.072 259.828 216.099 260.11 216.065C260.392 216.032 260.664 215.941 260.908 215.796C261.087 216.03 261.326 216.21 261.6 216.319C263.529 217.034 266.611 213.498 268.518 208.433C270.424 203.367 270.324 198.679 268.395 197.964C268.115 197.865 267.814 197.849 267.526 197.918C267.433 197.651 267.286 197.406 267.095 197.198C266.903 196.99 266.67 196.825 266.411 196.711C266.138 196.614 265.844 196.591 265.558 196.642C265.456 196.379 265.302 196.14 265.105 195.938C264.908 195.736 264.673 195.575 264.413 195.466C264.145 195.368 263.857 195.339 263.575 195.381C263.471 195.12 263.316 194.881 263.119 194.679C262.923 194.478 262.689 194.316 262.43 194.205C262.161 194.111 261.874 194.082 261.592 194.121Z" fill="#263238"/>
<path opacity="0.2" d="M261.592 194.121C261.368 193.587 260.947 193.16 260.416 192.929C258.11 192.076 254.39 196.327 252.145 202.422C249.901 208.517 249.97 214.151 252.291 215.005C252.838 215.178 253.431 215.131 253.944 214.874C254.131 215.078 254.363 215.235 254.62 215.335C254.89 215.42 255.173 215.45 255.454 215.425C255.735 215.4 256.008 215.32 256.258 215.189C256.448 215.399 256.685 215.562 256.949 215.666C257.219 215.746 257.502 215.772 257.782 215.742C258.062 215.711 258.333 215.625 258.579 215.489C258.762 215.713 259.001 215.885 259.271 215.989C259.542 216.072 259.828 216.099 260.11 216.065C260.392 216.032 260.664 215.941 260.908 215.796C261.087 216.03 261.326 216.21 261.6 216.319C263.529 217.034 266.611 213.498 268.518 208.433C270.424 203.367 270.324 198.679 268.395 197.964C268.115 197.865 267.814 197.849 267.526 197.918C267.433 197.651 267.286 197.406 267.095 197.198C266.903 196.99 266.67 196.825 266.411 196.711C266.138 196.614 265.844 196.591 265.558 196.642C265.456 196.379 265.302 196.14 265.105 195.938C264.908 195.736 264.673 195.575 264.413 195.466C264.145 195.368 263.857 195.339 263.575 195.381C263.471 195.12 263.316 194.881 263.119 194.679C262.923 194.478 262.689 194.316 262.43 194.205C262.161 194.111 261.874 194.082 261.592 194.121Z" fill="white"/>
<path d="M244.336 177.38C241.043 176.166 237.496 175.805 234.025 176.33C230.555 176.855 227.273 178.249 224.486 180.382C221.699 182.516 219.497 185.319 218.084 188.533C216.671 191.746 216.094 195.264 216.406 198.76C216.718 202.256 217.909 205.616 219.868 208.529C221.827 211.441 224.491 213.811 227.612 215.417C230.732 217.024 234.209 217.815 237.717 217.717C241.226 217.619 244.653 216.636 247.68 214.859C248.16 214.57 248.705 214.403 249.265 214.374C249.825 214.344 250.384 214.453 250.893 214.689C250.942 214.717 250.993 214.74 251.046 214.759C253.406 215.627 257.195 211.315 259.448 205.12C261.7 198.925 261.661 193.206 259.302 192.337L259.14 192.291C258.595 192.139 258.096 191.855 257.686 191.465C257.276 191.075 256.968 190.591 256.788 190.055C255.78 187.152 254.14 184.509 251.987 182.317C249.834 180.125 247.22 178.439 244.336 177.38Z" fill="#1D99F2"/>
<path opacity="0.7" d="M244.336 177.38C241.043 176.166 237.496 175.805 234.025 176.33C230.555 176.855 227.273 178.249 224.486 180.382C221.699 182.516 219.497 185.319 218.084 188.533C216.671 191.746 216.094 195.264 216.406 198.76C216.718 202.256 217.909 205.616 219.868 208.529C221.827 211.441 224.491 213.811 227.612 215.417C230.732 217.024 234.209 217.815 237.717 217.717C241.226 217.619 244.653 216.636 247.68 214.859C248.16 214.57 248.705 214.403 249.265 214.374C249.825 214.344 250.384 214.453 250.893 214.689C250.942 214.717 250.993 214.74 251.046 214.759C253.406 215.627 257.195 211.315 259.448 205.12C261.7 198.925 261.661 193.206 259.302 192.337L259.14 192.291C258.595 192.139 258.096 191.855 257.686 191.465C257.276 191.075 256.968 190.591 256.788 190.055C255.78 187.152 254.14 184.509 251.987 182.317C249.834 180.125 247.22 178.439 244.336 177.38Z" fill="white"/>
<path d="M239.97 209.224C239.939 209.225 239.908 209.219 239.879 209.207C239.85 209.195 239.823 209.177 239.801 209.155C239.763 209.123 239.736 209.08 239.723 209.032C239.711 208.984 239.714 208.933 239.732 208.886L241.031 205.366L238.817 203.283C238.784 203.251 238.759 203.21 238.747 203.166C238.735 203.121 238.735 203.074 238.748 203.029C238.763 202.983 238.79 202.943 238.827 202.912C238.864 202.88 238.908 202.86 238.956 202.852L243.86 202.138L240.585 198.417C240.555 198.382 240.536 198.338 240.529 198.292C240.522 198.246 240.528 198.199 240.547 198.156C240.564 198.114 240.592 198.077 240.629 198.05C240.665 198.023 240.709 198.006 240.754 198.002L246.196 197.487L242.353 193.567C242.319 193.534 242.296 193.491 242.286 193.445C242.276 193.398 242.281 193.35 242.299 193.306C242.318 193.261 242.348 193.222 242.388 193.193C242.427 193.165 242.474 193.148 242.522 193.144L245.551 192.998L246.85 189.478C246.867 189.425 246.901 189.38 246.947 189.349C246.993 189.319 247.048 189.304 247.103 189.309C247.158 189.315 247.209 189.338 247.249 189.376C247.289 189.413 247.316 189.462 247.326 189.516C248.364 195.335 257.265 200.193 257.357 200.239C257.415 200.271 257.458 200.324 257.477 200.387C257.496 200.451 257.488 200.519 257.457 200.577C257.425 200.635 257.372 200.678 257.308 200.697C257.245 200.716 257.177 200.709 257.119 200.677C256.765 200.485 248.702 196.065 247.026 190.423L245.966 193.321C245.949 193.368 245.919 193.409 245.88 193.439C245.84 193.469 245.792 193.487 245.743 193.49L243.099 193.621L246.888 197.518C246.92 197.551 246.943 197.592 246.952 197.637C246.962 197.682 246.958 197.729 246.942 197.772C246.926 197.816 246.898 197.855 246.861 197.885C246.825 197.915 246.781 197.934 246.734 197.941L241.254 198.448L244.505 202.153C244.536 202.186 244.557 202.228 244.566 202.273C244.574 202.318 244.569 202.364 244.551 202.407C244.536 202.448 244.51 202.484 244.477 202.513C244.443 202.541 244.402 202.56 244.359 202.568L239.509 203.275L241.461 205.112C241.497 205.146 241.521 205.19 241.532 205.238C241.543 205.285 241.54 205.335 241.523 205.381L240.378 208.502C242.245 207.733 248.556 205.427 254.597 207.641C254.658 207.667 254.706 207.714 254.734 207.774C254.761 207.834 254.764 207.902 254.744 207.964C254.732 207.995 254.715 208.024 254.693 208.048C254.67 208.072 254.643 208.092 254.613 208.106C254.583 208.119 254.55 208.127 254.517 208.127C254.484 208.128 254.451 208.122 254.421 208.11C247.503 205.55 240.124 209.155 240.047 209.194C240.023 209.208 239.997 209.218 239.97 209.224Z" fill="#263238"/>
<path d="M249.578 159.278C250.47 159.947 251.185 160.523 251.946 161.184C252.707 161.845 253.429 162.483 254.144 163.152C255.589 164.509 256.957 165.946 258.241 167.456C259.567 169.003 260.775 170.648 261.854 172.376C263.011 174.198 263.936 176.158 264.605 178.21C264.759 178.755 264.928 179.294 265.043 179.87C265.195 180.521 265.285 181.185 265.312 181.853C265.347 183.013 265.252 184.173 265.028 185.312C264.654 187.289 264.119 189.233 263.429 191.123C262.136 194.73 260.537 198.22 258.648 201.553L255.013 200.016C255.92 196.519 256.834 192.937 257.526 189.478C257.873 187.827 258.119 186.156 258.264 184.474C258.319 183.783 258.306 183.088 258.226 182.399C258.19 182.136 258.126 181.879 258.033 181.63C257.935 181.291 257.82 180.958 257.688 180.631C256.358 177.698 254.538 175.013 252.307 172.691C251.169 171.423 249.932 170.216 248.671 169.024C248.041 168.425 247.395 167.848 246.742 167.28C246.089 166.711 245.389 166.127 244.813 165.666L249.578 159.278Z" fill="#CE7A63"/>
<path d="M243.037 167.871C245.245 171.052 247.637 174.101 250.201 177.003C250.762 177.656 251.277 178.24 251.692 178.709C252.461 179.532 252.883 180.024 252.883 180.024L261.646 171.569C261.646 171.569 261.4 171.169 260.969 170.508C260.647 170.008 260.201 169.347 259.716 168.602C256.726 164.182 250.869 156.411 247.303 156.803C241.976 157.449 239.309 162.276 243.037 167.871Z" fill="#1D99F2"/>
<path d="M258.694 201.384L256.012 206.557L252.514 200.185C252.514 200.185 255.712 196.042 257.718 197.879L258.694 201.384Z" fill="#CE7A63"/>
<path d="M250.762 207.925L248.125 202.53L252.514 200.185L256.012 206.55L250.762 207.925Z" fill="#CE7A63"/>
<path d="M158.924 233.867L193.306 238.979L193.583 266.803L185.012 274.843L147.917 267.972L149.578 238.302L158.924 233.867Z" fill="#1D99F2"/>
<path opacity="0.4" d="M193.582 266.803L190.246 269.94L189.501 270.631L185.012 274.843L147.91 267.972L149.578 238.302L153.567 236.411L154.797 235.827L158.924 233.867L193.306 238.979L193.582 266.803Z" fill="black"/>
<path opacity="0.2" d="M149.578 238.302L183.467 243.767L193.306 238.979L158.924 233.867L149.578 238.302Z" fill="white"/>
<path opacity="0.1" d="M183.467 243.767L185.012 274.843L193.582 266.803L193.306 238.979L183.467 243.767Z" fill="white"/>
<path d="M190.247 269.94L189.501 270.631L188.171 241.554L153.567 236.411L154.797 235.827L188.932 241.169L190.247 269.94Z" fill="#263238"/>
<path d="M165.35 237.595L167.495 236.611L176.196 237.787L174.22 238.979L165.35 237.595Z" fill="#263238"/>
<path d="M161.984 237.18C161.984 237.18 164.397 228.441 164.828 227.956C165.258 227.472 177.41 229.324 178.325 229.44C179.24 229.555 180.339 239.171 180.339 239.171L179.355 239.939L177.049 239.524C177.049 239.524 176.634 231.384 176.403 231.123C176.173 230.862 166.788 229.486 166.48 229.586C166.173 229.686 164.997 236.58 164.997 236.58L163.898 237.418L161.984 237.18Z" fill="#263238"/>
<path d="M192.614 262.268L189.224 264.636V263.936L188.971 258.441V257.78L188.917 256.604C188.917 256.604 189.363 257.618 190.024 258.817C190.647 260.13 191.528 261.303 192.614 262.268Z" fill="#1D99F2"/>
<path opacity="0.2" d="M191.753 262.245L189.194 263.936L188.94 258.441V257.78C189.424 259.102 190.423 261.285 191.753 262.245Z" fill="white"/>
<path opacity="0.2" d="M189.962 258.817C189.616 258.671 189.263 258.548 188.94 258.441L188.855 256.604C188.855 256.604 189.301 257.618 189.962 258.817Z" fill="black"/>
<path d="M195.504 256.411L194.52 260.977C192.965 259.556 191.023 258.628 188.94 258.31V257.626L188.748 253.368V252.922C188.748 252.922 192.845 253.752 195.504 256.411Z" fill="#1D99F2"/>
<path d="M193.306 247.418C191.912 248.806 190.296 249.952 188.525 250.808V250.293L188.479 248.94L188.402 246.688L188.364 245.597V245.281C189.238 244.584 190.05 243.812 190.792 242.976L193.306 247.418Z" fill="#1D99F2"/>
<path d="M187.672 239.309C187.005 239.861 186.418 240.502 185.927 241.215L185.381 241.139L184.612 241.023L183.421 240.854L182.276 240.685L181.868 240.624C182.441 238.935 183.604 237.511 185.143 236.611L187.672 239.309Z" fill="#1D99F2"/>
<path opacity="0.2" d="M185.012 237.18C183.613 237.949 182.706 239.77 182.299 240.685L183.444 240.854C183.357 240.725 183.312 240.572 183.313 240.416C183.313 240.202 183.398 239.997 183.55 239.845C183.701 239.694 183.906 239.609 184.121 239.609C184.335 239.609 184.54 239.694 184.691 239.845C184.843 239.997 184.928 240.202 184.928 240.416C184.928 240.533 184.902 240.648 184.852 240.753C184.801 240.859 184.727 240.951 184.636 241.023L185.404 241.139C185.848 240.441 186.363 239.792 186.941 239.202L185.012 237.18Z" fill="white"/>
<path opacity="0.2" d="M188.717 253.368L188.909 257.626C191.5 258.072 194.29 260.162 194.29 260.162L195.174 256.488C193.331 254.902 191.105 253.826 188.717 253.368ZM192.168 256.373C192.128 256.653 192.002 256.914 191.807 257.119C191.612 257.325 191.358 257.464 191.08 257.518C190.802 257.571 190.514 257.537 190.256 257.42C189.999 257.302 189.784 257.107 189.643 256.862C189.501 256.616 189.44 256.333 189.467 256.051C189.494 255.769 189.609 255.503 189.794 255.289C189.98 255.076 190.228 254.925 190.503 254.859C190.779 254.793 191.068 254.814 191.33 254.92C191.631 255.006 191.886 255.207 192.041 255.478C192.196 255.749 192.239 256.07 192.161 256.373H192.168Z" fill="white"/>
<path opacity="0.2" d="M190.623 243.767C189.977 244.492 189.219 245.109 188.379 245.597L188.417 246.688H188.471C188.748 246.72 189.004 246.853 189.189 247.062C189.374 247.27 189.477 247.539 189.477 247.818C189.477 248.097 189.374 248.366 189.189 248.574C189.004 248.783 188.748 248.916 188.471 248.948L188.517 250.301C189.992 249.505 191.37 248.54 192.622 247.426L190.623 243.767Z" fill="white"/>
<path d="M160.408 173.137C164.82 176.058 165.227 195.52 165.627 200.992C166.027 206.465 169.47 221.669 169.47 221.669L165.819 222.991C165.819 222.991 161.791 208.464 160.392 200.185C159.877 196.988 160.408 173.137 160.408 173.137Z" fill="#263238"/>
<path opacity="0.2" d="M169.478 221.676L165.835 222.991C165.835 222.991 161.807 208.471 160.408 200.185C160.36 199.872 160.33 199.556 160.316 199.24C160.154 196.934 160.147 191.799 160.193 186.703C160.254 179.901 160.408 173.137 160.408 173.137C162.975 174.835 164.19 182.138 164.828 189.017C165.066 191.584 165.227 194.098 165.35 196.234C165.466 198.225 165.55 199.893 165.627 200.992C166.027 206.473 169.478 221.676 169.478 221.676Z" fill="white"/>
<path opacity="0.2" d="M165.35 196.234C163.766 197.385 162.081 198.391 160.316 199.24C160.154 196.934 160.147 191.799 160.193 186.703L161.392 189.44L164.828 189.017C165.066 191.584 165.258 194.098 165.35 196.234Z" fill="black"/>
<path d="M171.991 191.108L177.295 188.187L178.302 193.913C178.302 193.913 172.921 195.858 171.961 194.32L171.991 191.108Z" fill="#FFB573"/>
<path d="M182.399 190.008L182.061 194.174L178.302 193.913L177.295 188.187L182.399 190.008Z" fill="#FFB573"/>
<path d="M136.05 145.197C136.05 145.197 137.687 139.778 146.242 140.531C154.797 141.284 157.003 148.986 154.697 155.089C153.3 158.65 153.375 162.62 154.905 166.127C154.431 165.911 154.012 165.592 153.678 165.193C153.344 164.794 153.104 164.325 152.975 163.821C152.85 164.873 153.026 165.939 153.483 166.895C153.483 166.895 142.245 169.124 136.572 167.456C137.448 166.179 137.833 164.629 137.656 163.091C137.656 163.091 137.372 165.604 136.357 166.45C136.357 166.45 137.426 163.498 136.864 161.423C136.303 159.347 132.914 159.117 132.306 153.621C131.699 148.125 133.744 144.635 136.05 145.197Z" fill="#263238"/>
<path d="M159.601 207.833C159.601 207.833 163.605 238.963 163.26 258.733C164.643 277.265 165.804 316.181 167.918 320.386C167.841 321.331 165.135 321.754 164.243 321.154C164.243 321.154 149.785 288.802 151.653 258.702C138.917 227.303 139.678 207.802 139.678 207.802L159.601 207.833Z" fill="#FFB573"/>
<path d="M154.182 207.833C154.182 207.833 145.081 242.968 141.476 260.224C137.687 278.341 133.79 300.193 133.751 320.831C132.737 321.431 132.391 322.492 130.339 321.861C130.339 321.861 120.692 280.416 128.863 261.023C125.273 218.102 136.626 207.833 136.626 207.833H154.182Z" fill="#FFB573"/>
<path d="M127.302 254.121C127.907 254.787 128.622 255.344 129.416 255.766C129.524 251.784 130.669 249.932 130.669 249.932C130.475 252.2 130.683 254.485 131.284 256.68C137.356 259.248 149.063 260.946 163.698 257.357C163.698 240.185 160.3 211.284 160.07 208.464C160.07 208.464 142.706 208.925 135.658 208.925C127.94 218.125 125.873 247.649 127.302 254.121Z" fill="#263238"/>
<path d="M130.339 321.861C130.339 321.861 128.179 322.446 127.941 325.643C127.702 328.841 128.609 337.634 128.609 337.634H129.416C129.416 337.634 129.186 329.663 129.501 328.226C129.755 332.392 132.737 337.634 136.68 337.634C138.087 337.634 135.035 331.27 134.535 327.396C134.036 323.522 133.89 322.169 133.89 322.169L130.339 321.861Z" fill="#263238"/>
<path d="M133.805 319.348L130.339 321.861C130.523 326.173 132.053 331.692 134.074 333.483C134.207 333.582 134.367 333.639 134.533 333.645C134.698 333.652 134.862 333.609 135.003 333.52C135.143 333.432 135.254 333.304 135.32 333.152C135.386 333 135.405 332.831 135.373 332.668C134.395 328.294 133.87 323.83 133.805 319.348Z" fill="#FFB573"/>
<path d="M164.928 321.861C164.928 321.861 162.768 322.446 162.537 325.643C162.306 328.841 163.206 337.634 163.206 337.634H163.974C163.974 337.634 163.736 329.663 164.059 328.226C164.305 332.392 167.287 337.634 171.238 337.634C172.637 337.634 169.586 331.27 169.094 327.396C168.892 325.533 168.574 323.684 168.14 321.861H164.928Z" fill="#263238"/>
<path d="M167.472 318.987C167.095 317.98 164.059 320.931 164.059 320.931C164.243 325.251 166.641 331.692 168.671 333.514C168.804 333.613 168.963 333.67 169.129 333.676C169.295 333.683 169.459 333.639 169.599 333.551C169.74 333.463 169.85 333.335 169.916 333.183C169.982 333.03 170.001 332.862 169.97 332.699C168.409 326.312 168.571 321.861 167.472 318.987Z" fill="#FFB573"/>
<path opacity="0.2" d="M127.302 254.121C127.907 254.787 128.622 255.344 129.416 255.766C129.524 251.784 130.669 249.932 130.669 249.932C130.475 252.2 130.683 254.485 131.284 256.68C137.356 259.248 149.063 260.946 163.698 257.357C163.698 240.185 160.3 211.284 160.07 208.464C160.07 208.464 142.706 208.925 135.658 208.925C127.94 218.125 125.873 247.649 127.302 254.121Z" fill="white"/>
<path d="M134.966 188.932H161.615C161.819 185.734 161.86 182.527 161.738 179.324C161.607 175.389 158.294 171.953 154.105 171.407C152.944 171.254 151.73 171.115 150.554 171.015C146.971 170.774 143.376 170.774 139.793 171.015C138.771 171.061 137.771 171.138 136.834 171.223C133.306 171.561 130.877 174.789 132.091 178.002C133.435 181.533 134.399 185.197 134.966 188.932Z" fill="#1D99F2"/>
<path opacity="0.7" d="M134.966 188.932H161.615C161.819 185.734 161.86 182.527 161.738 179.324C161.607 175.389 158.294 171.953 154.105 171.407C152.944 171.254 151.73 171.115 150.554 171.015C146.971 170.774 143.376 170.774 139.793 171.015C138.771 171.061 137.771 171.138 136.834 171.223C133.306 171.561 130.877 174.789 132.091 178.002C133.435 181.533 134.399 185.197 134.966 188.932Z" fill="white"/>
<path d="M139.67 170.585L151.054 184.474C151.054 184.474 153.267 177.318 152.099 171.169C152.099 171.169 157.11 171.115 160.408 173.137C160.408 173.137 165.22 181.031 160.408 203.329L161.807 213.967L153.728 216.404L151.077 208.679L147.871 216.803L132.352 212.437L136.711 204.236C136.711 204.236 135.296 185.389 131.038 176.772C131.069 176.788 131.745 170.5 139.67 170.585Z" fill="#263238"/>
<path d="M157.418 181.976L151.707 185.819L152.714 189.44C148.709 183.16 140.977 181.976 140.977 181.976L143.398 178.694H137.41C137.28 174.52 140.246 170.131 140.246 170.131L141.3 169.947C141.968 171.338 145.296 176.803 150.977 183.667C150.977 183.667 153.283 174.39 149.824 170.5C151.593 171.08 153.224 172.017 154.617 173.251C156.011 174.486 157.137 175.993 157.925 177.679L154.29 178.802L157.418 181.976Z" fill="#263238"/>
<path opacity="0.2" d="M157.418 181.976L151.707 185.819L152.714 189.44C148.709 183.16 140.977 181.976 140.977 181.976L143.398 178.694H137.41C137.28 174.52 140.246 170.131 140.246 170.131L141.3 169.947C141.968 171.338 145.296 176.803 150.977 183.667C150.977 183.667 153.283 174.39 149.824 170.5C151.593 171.08 153.224 172.017 154.617 173.251C156.011 174.486 157.137 175.993 157.925 177.679L154.29 178.802L157.418 181.976Z" fill="white"/>
<path d="M140.523 158.878C141.461 162.353 142.614 168.709 140.354 171.023C140.354 171.023 138.74 174.098 147.902 173.798C148.671 175.704 150.246 179.178 150.246 179.178C150.246 179.178 150.362 175.066 149.724 173.675C155.619 173.167 151.146 171 151.146 171C147.21 170.078 147.095 167.203 147.564 164.513L140.523 158.878Z" fill="#FFB573"/>
<path opacity="0.2" d="M143.39 161.184L147.564 164.528C147.443 165.159 147.379 165.799 147.372 166.442C145.881 166.234 143.728 164.605 143.452 163.06C143.32 162.443 143.299 161.808 143.39 161.184Z" fill="black"/>
<path d="M137.587 151.907C138.64 157.518 138.97 159.901 142.199 162.591C147.01 166.634 153.621 164.497 154.251 158.748C154.82 153.606 152.998 145.304 147.226 143.452C145.994 143.003 144.664 142.893 143.376 143.135C142.087 143.376 140.887 143.96 139.902 144.824C138.916 145.689 138.181 146.802 137.774 148.048C137.367 149.294 137.302 150.627 137.587 151.907Z" fill="#FFB573"/>
<path d="M142.376 147.864C139.301 151.853 145.635 156.442 139.301 156.173C132.967 155.904 135.527 146.949 139.301 144.897C143.075 142.845 142.376 147.864 142.376 147.864Z" fill="#263238"/>
<path d="M139.301 144.966C140.07 148.809 140.715 149.785 144.113 148.748C143.606 147.979 143.38 147.058 143.475 146.142C143.818 147.062 144.5 147.815 145.381 148.248C146.291 147.854 147.242 147.562 148.217 147.38C148.035 146.849 147.977 146.283 148.048 145.727C148.322 146.351 148.767 146.884 149.332 147.264C150.379 147.275 151.418 147.457 152.406 147.802C152.383 143.798 145.558 139.455 139.301 144.966Z" fill="#263238"/>
<path d="M146.434 152.845C146.503 153.321 146.803 153.682 147.11 153.659C147.418 153.636 147.602 153.237 147.533 152.76C147.464 152.283 147.164 151.922 146.864 151.945C146.565 151.968 146.365 152.368 146.434 152.845Z" fill="#263238"/>
<path d="M152.191 152.506C152.26 152.983 152.56 153.344 152.868 153.321C153.175 153.298 153.359 152.898 153.29 152.422C153.221 151.945 152.921 151.584 152.622 151.607C152.322 151.63 152.091 152.03 152.191 152.506Z" fill="#263238"/>
<path d="M152.46 151.645L153.529 151.23C153.529 151.23 153.083 152.191 152.46 151.645Z" fill="#263238"/>
<path d="M150.654 153.398C151.223 154.452 151.926 155.429 152.745 156.303C152.528 156.495 152.271 156.634 151.993 156.711C151.714 156.789 151.422 156.801 151.138 156.749L150.654 153.398Z" fill="#ED893E"/>
<path d="M148.74 158.694C148.996 158.716 149.253 158.716 149.508 158.694C149.544 158.688 149.576 158.669 149.597 158.64C149.619 158.612 149.628 158.576 149.624 158.54C149.617 158.503 149.596 158.469 149.567 158.445C149.537 158.422 149.5 158.409 149.462 158.41C148.869 158.458 148.272 158.37 147.717 158.155C147.162 157.939 146.663 157.6 146.257 157.164C146.23 157.139 146.194 157.125 146.157 157.125C146.12 157.125 146.084 157.139 146.057 157.164C146.044 157.177 146.033 157.191 146.026 157.208C146.019 157.224 146.015 157.242 146.015 157.26C146.015 157.278 146.019 157.296 146.026 157.313C146.033 157.329 146.044 157.344 146.057 157.356C146.755 158.119 147.711 158.595 148.74 158.694Z" fill="#263238"/>
<path d="M137.011 157.318C137.242 157.811 137.574 158.251 137.984 158.609C138.394 158.968 138.874 159.237 139.393 159.401C140.7 159.747 141.269 158.256 140.831 156.757C140.439 155.412 139.293 153.613 138.017 153.944C136.741 154.274 136.357 156.034 137.011 157.318Z" fill="#FFB573"/>
<path d="M144.835 150.293C144.873 150.294 144.91 150.287 144.945 150.273C144.979 150.258 145.01 150.236 145.035 150.208C145.256 149.951 145.538 149.753 145.854 149.632C146.171 149.511 146.513 149.472 146.849 149.516C146.884 149.523 146.92 149.522 146.955 149.514C146.989 149.507 147.022 149.492 147.051 149.471C147.08 149.45 147.104 149.424 147.122 149.393C147.14 149.363 147.152 149.329 147.156 149.293C147.162 149.219 147.142 149.145 147.098 149.084C147.054 149.024 146.991 148.981 146.918 148.963C146.493 148.902 146.06 148.949 145.657 149.097C145.255 149.246 144.895 149.493 144.612 149.816C144.561 149.87 144.533 149.942 144.533 150.016C144.533 150.09 144.561 150.162 144.612 150.216C144.641 150.245 144.676 150.267 144.715 150.28C144.753 150.293 144.795 150.298 144.835 150.293Z" fill="#263238"/>
<path d="M153.452 149.785C153.487 149.787 153.522 149.782 153.555 149.77C153.588 149.758 153.618 149.74 153.644 149.716C153.694 149.665 153.721 149.596 153.721 149.524C153.721 149.452 153.694 149.383 153.644 149.332C153.356 148.984 152.992 148.707 152.58 148.523C152.168 148.339 151.72 148.253 151.269 148.271C151.233 148.276 151.199 148.288 151.169 148.306C151.138 148.324 151.112 148.348 151.091 148.377C151.07 148.406 151.055 148.438 151.048 148.473C151.04 148.508 151.039 148.544 151.046 148.579C151.061 148.652 151.101 148.717 151.161 148.762C151.22 148.808 151.294 148.83 151.369 148.825C151.725 148.816 152.08 148.888 152.404 149.036C152.729 149.183 153.016 149.403 153.244 149.678C153.296 149.74 153.371 149.778 153.452 149.785Z" fill="#263238"/>
<path d="M146.734 151.984L147.802 151.569C147.802 151.569 147.356 152.499 146.734 151.984Z" fill="#263238"/>
<path d="M170.9 231.185L171.845 229.686C172.02 229.407 172.126 229.091 172.154 228.764C172.182 228.436 172.131 228.107 172.007 227.803L170.823 224.92C170.593 224.348 170.228 223.84 169.76 223.439C169.291 223.037 168.733 222.755 168.133 222.614L167.364 222.445C165.627 224.828 165.512 228.679 165.512 228.679L165.358 229.77C165.319 229.994 165.326 230.223 165.376 230.444C165.426 230.666 165.52 230.875 165.651 231.06C165.783 231.245 165.949 231.402 166.142 231.522C166.334 231.643 166.548 231.724 166.772 231.761L168.94 232.092C169.319 232.147 169.707 232.091 170.055 231.93C170.403 231.769 170.697 231.51 170.9 231.185Z" fill="#FFB573"/>
<path d="M159.939 209.532C151.814 210.408 143.618 210.393 135.496 209.486C135.412 209.474 135.331 209.443 135.261 209.395C135.19 209.347 135.132 209.283 135.091 209.208C135.05 209.133 135.027 209.05 135.024 208.965C135.021 208.879 135.038 208.795 135.074 208.717C135.273 208.264 135.466 207.802 135.665 207.349C135.706 207.246 135.779 207.159 135.873 207.101C135.967 207.043 136.078 207.017 136.188 207.026C144 207.872 151.881 207.872 159.693 207.026C159.833 207.016 159.971 207.06 160.077 207.151C160.184 207.242 160.25 207.371 160.262 207.51C160.308 207.979 160.354 208.456 160.408 208.932C160.417 209.003 160.411 209.074 160.392 209.142C160.373 209.21 160.341 209.274 160.298 209.329C160.254 209.385 160.2 209.432 160.139 209.466C160.077 209.501 160.009 209.523 159.939 209.532Z" fill="#263238"/>
<path d="M148.348 169.624C148.348 169.624 150.085 171.484 149.724 173.698L153.728 174.543C153.524 173.234 152.879 172.034 151.901 171.14C150.923 170.246 149.67 169.711 148.348 169.624Z" fill="#1D99F2"/>
<path d="M147.902 173.798C147.902 173.798 142.522 170.723 141.353 169.04L138.971 170.831C138.971 170.831 138.202 173.629 141.453 176.134L147.902 173.798Z" fill="#1D99F2"/>
<path opacity="0.6" d="M148.348 169.624C148.348 169.624 150.085 171.484 149.724 173.698L153.728 174.543C153.524 173.234 152.879 172.034 151.901 171.14C150.923 170.246 149.67 169.711 148.348 169.624Z" fill="white"/>
<path opacity="0.6" d="M147.902 173.798C147.902 173.798 142.522 170.723 141.353 169.04L138.971 170.831C138.971 170.831 138.202 173.629 141.453 176.134L147.902 173.798Z" fill="white"/>
<path d="M172.337 195.566C168.661 196.422 164.936 197.058 161.184 197.472C159.201 197.695 157.203 197.833 155.158 197.879C153.017 197.951 150.875 197.807 148.763 197.449C147.47 197.228 146.222 196.8 145.066 196.181L144.566 195.865L144.236 195.643L143.575 195.197C143.129 194.897 142.683 194.597 142.268 194.267C140.571 192.987 138.99 191.563 137.541 190.008C136.101 188.455 134.778 186.798 133.582 185.051C132.998 184.167 132.437 183.267 131.922 182.33C131.653 181.868 131.415 181.384 131.153 180.908L130.807 180.139C130.684 179.87 130.585 179.655 130.446 179.286C129.678 177.449 130.254 174.413 132.091 173.675C133.928 172.937 136.188 174.705 137.003 176.388L137.11 176.611L137.333 177.095L137.625 177.656C137.817 178.033 138.017 178.425 138.233 178.794C138.648 179.563 139.124 180.331 139.601 181.046C140.549 182.536 141.604 183.954 142.76 185.289C143.903 186.632 145.144 187.888 146.472 189.048C146.787 189.347 147.126 189.616 147.472 189.893L148.348 190.623C148.894 190.944 149.484 191.183 150.1 191.33C151.802 191.735 153.535 191.992 155.281 192.099C157.11 192.23 159.001 192.261 160.884 192.284C164.566 192.284 172.076 191.192 172.076 191.192L172.337 195.566Z" fill="#263238"/>
<path opacity="0.2" d="M172.337 195.566C168.661 196.422 164.936 197.058 161.184 197.472C159.201 197.695 157.203 197.833 155.158 197.879C153.017 197.951 150.875 197.807 148.763 197.449C147.47 197.228 146.222 196.8 145.066 196.181L144.566 195.865L144.236 195.643L143.575 195.197C143.129 194.897 142.683 194.597 142.268 194.267C140.571 192.987 138.99 191.563 137.541 190.008C136.101 188.455 134.778 186.798 133.582 185.051C132.998 184.167 132.437 183.267 131.922 182.33C131.653 181.868 131.415 181.384 131.153 180.908L130.807 180.139C130.684 179.87 130.585 179.655 130.446 179.286C129.678 177.449 130.254 174.413 132.091 173.675C133.928 172.937 136.188 174.705 137.003 176.388L137.11 176.611L137.333 177.095L137.625 177.656C137.817 178.033 138.017 178.425 138.233 178.794C138.648 179.563 139.124 180.331 139.601 181.046C140.549 182.536 141.604 183.954 142.76 185.289C143.903 186.632 145.144 187.888 146.472 189.048C146.787 189.347 147.126 189.616 147.472 189.893L148.348 190.623C148.894 190.944 149.484 191.183 150.1 191.33C151.802 191.735 153.535 191.992 155.281 192.099C157.11 192.23 159.001 192.261 160.884 192.284C164.566 192.284 172.076 191.192 172.076 191.192L172.337 195.566Z" fill="white"/>
<path d="M170.016 190.593L170.439 196.188L172.76 195.75L172.414 190.516L170.016 190.593Z" fill="#1D99F2"/>
<path opacity="0.7" d="M170.016 190.593L170.439 196.188L172.76 195.75L172.414 190.516L170.016 190.593Z" fill="white"/>
<path d="M170.308 221.269L164.828 222.476L165.589 224.713L170.723 223.629L170.308 221.269Z" fill="#1D99F2"/>
<path opacity="0.7" d="M170.308 221.269L164.828 222.476L165.589 224.713L170.723 223.629L170.308 221.269Z" fill="white"/>
</svg>
