<svg width="361" height="357" viewBox="0 0 361 357" fill="none" xmlns="http://www.w3.org/2000/svg">
<circle opacity="0.2" cx="169.87" cy="169.87" r="169.87" fill="#8ECCF9"/>
<circle opacity="0.2" cx="169.87" cy="186.87" r="169.87" fill="white"/>
<g clip-path="url(#clip0_2_4500)">
<path d="M253.175 351H56.5758C51.916 350.995 47.4486 349.143 44.1536 345.851C40.8587 342.558 39.0053 338.095 39 333.439V48.5613C39.0053 43.9053 40.8587 39.4416 44.1536 36.1494C47.4486 32.8571 51.916 31.0053 56.5758 31H253.175C257.835 31.0052 262.302 32.8571 265.597 36.1494C268.892 39.4416 270.746 43.9053 270.751 48.5613V333.439C270.746 338.095 268.892 342.558 265.597 345.851C262.302 349.143 257.835 350.995 253.175 351Z" fill="#3F3D56"/>
<path d="M253.521 339.795H56.2294C54.793 339.794 53.4159 339.223 52.4002 338.208C51.3845 337.193 50.8132 335.817 50.8115 334.382V47.6179C50.8132 46.1827 51.3845 44.8067 52.4002 43.7918C53.4159 42.777 54.793 42.2061 56.2294 42.2045H253.521C254.957 42.2061 256.334 42.777 257.35 43.7918C258.366 44.8067 258.937 46.1827 258.939 47.6179V334.382C258.937 335.817 258.366 337.193 257.35 338.208C256.334 339.223 254.957 339.794 253.521 339.795Z" fill="white"/>
<path d="M154.128 37.8721C154.954 37.8721 155.623 37.2033 155.623 36.3782C155.623 35.5531 154.954 34.8843 154.128 34.8843C153.302 34.8843 152.633 35.5531 152.633 36.3782C152.633 37.2033 153.302 37.8721 154.128 37.8721Z" fill="white"/>
<path d="M207.501 163.479L200.97 143.934L200.859 143.594L228.364 126.234L229.826 128.203L237.487 138.51L234.687 146.846L227.449 168.383L227.132 169.33L240.535 179.286C241.066 180.265 241.507 181.158 241.866 181.978C245.867 191.087 239.945 190.674 239.945 190.674L212.686 179L207.501 163.479Z" fill="#FFB7B7"/>
<path d="M221.932 167.117L220.73 163.519L214.833 145.857L213.604 142.175L212.572 139.094L226.021 130.603L240.077 121.734L249.199 134.01L246.435 142.241L245.091 146.24L243.013 152.426L238.845 164.83L252.248 174.786C253.262 176.563 254.062 178.453 254.633 180.418C254.866 181.238 254.976 182.087 254.961 182.94C254.983 183.376 254.912 183.812 254.752 184.218C254.593 184.625 254.35 184.994 254.037 185.299C253.725 185.605 253.352 185.841 252.941 185.992C252.531 186.143 252.093 186.205 251.657 186.174L224.399 174.5L221.932 167.117Z" fill="#FFB7B7"/>
<path opacity="0.15" d="M220.653 167.914L219.071 151.253L226.954 146.983L227.47 147.934L220.216 151.863L221.683 167.309L237.798 178.336L237.187 179.228L220.653 167.914Z" fill="black"/>
<path opacity="0.15" d="M237.847 167.356L237.204 168.226L253.468 180.232L254.111 179.363L237.847 167.356Z" fill="black"/>
<path d="M236.878 183.687L155.061 126.219L72.4082 183.152L153.828 217.505L236.878 183.687Z" fill="white"/>
<path d="M178.3 134.908L205.85 107.993L255.124 104.667L316.373 163.107L361 187.509L348.427 224.449L294.564 198.902C283.598 198.097 276.542 194.461 272.079 190.637C270.544 189.324 269.161 187.844 267.955 186.224C266.634 184.507 265.604 182.585 264.905 180.535L243.013 152.426L238.499 146.625L235.576 142.871L226.02 130.603L225.333 129.721L209.099 129.292L200.651 140.374L194.716 148.151C194.578 150.89 193.588 153.518 191.884 155.668C186.563 162.136 175.772 160.873 175.772 160.873L178.3 134.908Z" fill="#FFB7B7"/>
<path d="M72.7235 183.099H72.7824L106.573 197.516L152.806 217.242C152.987 217.318 153.181 217.357 153.377 217.358C153.573 217.359 153.767 217.322 153.948 217.248L201.647 197.475L236.268 183.123L236.321 183.099H236.38C236.926 183.1 237.45 183.317 237.836 183.703C238.223 184.089 238.44 184.612 238.441 185.158V274.565C238.44 275.111 238.223 275.634 237.836 276.02C237.45 276.406 236.926 276.623 236.38 276.624H72.7235C72.1772 276.623 71.6535 276.406 71.2672 276.02C70.881 275.634 70.6637 275.111 70.6631 274.565V185.158C70.6637 184.612 70.881 184.089 71.2672 183.703C71.6535 183.317 72.1772 183.1 72.7235 183.099Z" fill="white"/>
<path d="M72.5767 183.687C72.6368 183.688 72.6955 183.669 72.7447 183.635L154.149 126.989C154.397 126.818 154.691 126.726 154.992 126.727C155.294 126.727 155.588 126.82 155.835 126.992L236.653 183.634C236.717 183.679 236.796 183.696 236.873 183.683C236.949 183.669 237.017 183.626 237.062 183.562C237.107 183.498 237.125 183.419 237.111 183.342C237.098 183.266 237.055 183.197 236.991 183.153L156.173 126.511C155.827 126.269 155.415 126.14 154.993 126.139C154.571 126.138 154.159 126.267 153.812 126.507L72.4083 183.152C72.3569 183.188 72.3182 183.239 72.298 183.298C72.2778 183.358 72.277 183.422 72.2958 183.481C72.3146 183.541 72.352 183.593 72.4025 183.63C72.453 183.667 72.5141 183.687 72.5767 183.687L72.5767 183.687Z" fill="#3F3D56"/>
<path d="M232.034 185.695L154.912 128.585L77.2051 189.759L150.939 233.433L190.97 224.316L232.034 185.695Z" fill="#E6E6E6"/>
<path d="M187.59 260.409H225.691C226.162 260.409 226.615 260.222 226.949 259.889C227.283 259.556 227.47 259.104 227.471 258.633C227.472 258.162 227.285 257.709 226.952 257.375C226.619 257.041 226.168 256.853 225.696 256.852H187.59C187.118 256.852 186.666 257.039 186.332 257.372C185.998 257.705 185.81 258.156 185.81 258.628C185.809 259.099 185.995 259.552 186.328 259.886C186.661 260.22 187.113 260.408 187.585 260.409H187.59Z" fill="white"/>
<path d="M212.022 252.762H225.691C226.163 252.763 226.616 252.576 226.95 252.243C227.283 251.91 227.471 251.458 227.472 250.987C227.473 250.515 227.286 250.063 226.953 249.729C226.62 249.395 226.168 249.207 225.697 249.205H212.022C211.55 249.205 211.098 249.392 210.764 249.725C210.43 250.058 210.242 250.51 210.241 250.981C210.241 251.453 210.427 251.905 210.76 252.239C211.093 252.573 211.545 252.761 212.017 252.762H212.022Z" fill="white"/>
<path d="M153.828 217.505C154.118 217.505 154.405 217.449 154.673 217.34L202.236 197.62V135.896C202.236 135.35 202.019 134.827 201.632 134.441C201.246 134.055 200.722 133.838 200.176 133.837H108.929C108.382 133.838 107.859 134.055 107.472 134.441C107.086 134.827 106.869 135.35 106.868 135.896V197.663L106.958 197.702L152.958 217.33C153.234 217.446 153.529 217.505 153.828 217.505Z" fill="white"/>
<path d="M152.9 217.465L106.721 197.76V135.896C106.721 135.311 106.954 134.75 107.368 134.337C107.782 133.923 108.343 133.69 108.928 133.69H200.176C200.761 133.69 201.322 133.923 201.736 134.337C202.15 134.75 202.383 135.311 202.383 135.896V197.718L154.729 217.476C154.142 217.714 153.484 217.71 152.9 217.465H152.9ZM201.795 135.896C201.794 135.467 201.623 135.056 201.32 134.752C201.016 134.449 200.605 134.279 200.176 134.278H108.928C108.499 134.279 108.088 134.449 107.784 134.752C107.481 135.056 107.31 135.467 107.309 135.896V197.372L153.13 216.924C153.569 217.108 154.063 217.111 154.504 216.932L201.795 197.326L201.795 135.896Z" fill="#3F3D56"/>
<path d="M71.1045 185.158V274.565C71.1051 275.111 71.3224 275.634 71.7087 276.02C72.0949 276.406 72.6186 276.623 73.1649 276.624H236.822C237.368 276.623 237.892 276.406 238.278 276.02C238.664 275.634 238.881 275.111 238.882 274.565V185.158C238.881 184.612 238.664 184.089 238.278 183.703C237.892 183.317 237.368 183.1 236.822 183.099H236.763L236.71 183.123L202.089 197.475L154.39 217.248C154.208 217.322 154.014 217.359 153.818 217.358C153.622 217.357 153.428 217.318 153.248 217.242L107.015 197.516L73.2239 183.099H73.1649C72.6186 183.1 72.0949 183.317 71.7087 183.703C71.3224 184.089 71.1051 184.612 71.1045 185.158ZM71.6932 185.158C71.6941 184.778 71.8414 184.414 72.1045 184.14C72.3677 183.866 72.7264 183.704 73.106 183.687L107.015 198.154L153.015 217.783C153.527 217.997 154.103 218.001 154.616 217.792L202.089 198.11L236.878 183.687C237.258 183.703 237.617 183.864 237.881 184.138C238.145 184.412 238.293 184.778 238.293 185.158V274.565C238.293 274.955 238.138 275.329 237.862 275.605C237.586 275.881 237.212 276.036 236.822 276.036H73.1649C72.7746 276.036 72.4004 275.881 72.1244 275.605C71.8485 275.329 71.6933 274.955 71.6932 274.565V185.158Z" fill="#3F3D56"/>
<path d="M116.916 156.91H149.294C149.919 156.91 150.518 156.662 150.959 156.221C151.401 155.779 151.649 155.181 151.649 154.557C151.649 153.933 151.401 153.334 150.959 152.893C150.518 152.452 149.919 152.204 149.294 152.204H116.916C116.292 152.204 115.693 152.452 115.251 152.893C114.81 153.334 114.562 153.933 114.562 154.557C114.562 155.181 114.81 155.779 115.251 156.221C115.693 156.662 116.292 156.91 116.916 156.91Z" fill="white"/>
<path d="M116.936 146.91H132.536C133.161 146.91 133.76 146.662 134.201 146.221C134.643 145.78 134.891 145.181 134.891 144.557C134.891 143.933 134.643 143.335 134.201 142.894C133.76 142.452 133.161 142.205 132.536 142.205H116.936C116.311 142.205 115.712 142.452 115.271 142.894C114.829 143.335 114.581 143.933 114.581 144.557C114.581 145.181 114.829 145.78 115.271 146.221C115.712 146.662 116.311 146.91 116.936 146.91Z" fill="white"/>
<path d="M130.335 180.438H179.785C180.41 180.438 181.009 180.19 181.451 179.749C181.892 179.308 182.14 178.709 182.14 178.085C182.14 177.461 181.892 176.863 181.451 176.422C181.009 175.98 180.41 175.732 179.785 175.732H130.335C129.711 175.732 129.112 175.98 128.67 176.422C128.229 176.863 127.98 177.461 127.98 178.085C127.98 178.709 128.229 179.308 128.67 179.749C129.112 180.19 129.711 180.438 130.335 180.438Z" fill="#CCCCCC"/>
<path d="M130.335 191.32H179.785C180.41 191.32 181.009 191.072 181.451 190.631C181.892 190.19 182.14 189.591 182.14 188.967C182.14 188.343 181.892 187.745 181.451 187.303C181.009 186.862 180.41 186.614 179.785 186.614H130.335C129.711 186.614 129.112 186.862 128.67 187.303C128.229 187.745 127.98 188.343 127.98 188.967C127.98 189.591 128.229 190.19 128.67 190.631C129.112 191.072 129.711 191.32 130.335 191.32Z" fill="#CCCCCC"/>
<path opacity="0.1" d="M245.091 146.24L254.912 145.672L294.155 193.996L280.291 191.877L272.08 190.637C270.545 189.324 269.162 187.844 267.956 186.224L258.832 183.517L254.633 180.418C254.896 181.425 245.091 146.24 245.091 146.24Z" fill="black"/>
<path d="M182.31 144.702C182.591 142.895 183.577 141.272 185.052 140.189C186.527 139.105 188.371 138.649 190.181 138.919L200.651 140.374L213.604 142.175L223.614 143.565L235.576 142.871L246.435 142.24L252.85 141.871L295.505 194.396L258.832 183.517L254.633 180.418L236.249 166.851C236.249 166.851 230.226 165.742 220.73 163.519C219.317 163.184 203.333 159.176 195.824 156.996C194.369 156.573 193.065 156.13 191.885 155.668C183.513 152.376 181.838 148.155 182.31 144.702Z" fill="#FFB7B7"/>
<path opacity="0.15" d="M188.306 151.264C188.343 151.259 192.08 150.794 193.675 148.06C194.75 146.218 194.642 143.737 193.354 140.687L194.351 140.267C195.78 143.651 195.866 146.459 194.606 148.612C192.732 151.814 188.604 152.318 188.429 152.338L188.306 151.264Z" fill="black"/>
<path opacity="0.15" d="M226.092 143.962L226.089 142.881L245.329 142.851L225.046 130.18L225.619 129.262L249.092 143.925L226.092 143.962Z" fill="black"/>
</g>
<defs>
<clipPath id="clip0_2_4500">
<rect width="322" height="320" fill="white" transform="translate(39 31)"/>
</clipPath>
</defs>
</svg>
