<svg width="22" height="27" viewBox="0 0 22 27" fill="none" xmlns="http://www.w3.org/2000/svg">
<path fill-rule="evenodd" clip-rule="evenodd" d="M21.3501 10.5966C21.2826 7.62438 19.9997 4.78466 17.8342 2.88884C15.667 0.858153 12.7567 -0.0203078 9.84968 0.317673C5.11521 0.858822 1.32612 4.57879 0.784539 9.3159C0.378927 12.6972 1.6634 16.0794 4.301 18.3126C5.07758 19.0253 5.59302 19.9299 5.78627 20.8961L5.788 20.9031C5.84958 21.1494 5.85019 21.3985 5.85019 21.6V24.4667C5.85019 25.3495 6.58401 26.0834 7.46686 26.0834H7.86685V27H14.1335V26.0834H14.6002C15.483 26.0834 16.2169 25.3495 16.2169 24.4667V21.6C16.2169 21.3985 16.2176 21.1494 16.2792 20.9031L16.2806 20.8961C16.4748 19.9253 16.992 18.96 17.8252 18.3192L17.8325 18.3127C20.0646 16.3512 21.3502 13.5103 21.3502 10.6L21.3501 10.5966ZM10.0167 1.94911C12.5105 1.68682 14.9328 2.4088 16.7648 4.10994L16.767 4.11191C18.6017 5.75012 19.6502 8.10942 19.6502 10.5334C19.6502 13.0215 18.537 15.3805 16.6356 17.0197C15.708 17.8149 15.1022 18.8026 14.7555 19.9167H11.8169V12.3955L15.3457 8.86668L14.2002 7.72122L11.0002 10.9212L7.80019 7.72122L6.65472 8.86668L10.1835 12.3955V19.9167H7.24485C6.89878 18.8044 6.29322 17.8169 5.3628 17.0846C3.20116 15.1833 2.0884 12.3662 2.41587 9.48381C2.87438 5.55482 6.08472 2.40823 10.0167 1.94911ZM7.48352 22.1834V21.5504L14.5169 21.5508V22.1834H7.48352ZM7.48352 24.45V23.8167H14.5169V24.45H7.48352Z" fill="#1D99F2"/>
</svg>
