<svg width="48" height="48" viewBox="0 0 48 48" fill="none" xmlns="http://www.w3.org/2000/svg">
<path d="M24.2953 21.5155C24.2602 21.4706 24.2154 21.4344 24.1642 21.4095C24.1131 21.3845 24.0569 21.3716 24 21.3716C23.9431 21.3716 23.8869 21.3845 23.8357 21.4095C23.7846 21.4344 23.7398 21.4706 23.7047 21.5155L18.4547 28.1577C18.4114 28.2129 18.3845 28.2793 18.3772 28.3491C18.3698 28.4189 18.3823 28.4894 18.4131 28.5524C18.4439 28.6155 18.4918 28.6686 18.5514 28.7058C18.611 28.7429 18.6798 28.7625 18.75 28.7623H22.214V40.1248C22.214 40.3311 22.3828 40.4998 22.589 40.4998H25.4015C25.6078 40.4998 25.7765 40.3311 25.7765 40.1248V28.767H29.25C29.564 28.767 29.7375 28.4061 29.5453 28.1623L24.2953 21.5155Z" fill="#979797"/>
<path d="M38.0344 17.1891C35.8875 11.5266 30.4172 7.5 24.0094 7.5C17.6016 7.5 12.1312 11.5219 9.98438 17.1844C5.96719 18.2391 3 21.9 3 26.25C3 31.4297 7.19531 35.625 12.3703 35.625H14.25C14.4563 35.625 14.625 35.4563 14.625 35.25V32.4375C14.625 32.2312 14.4563 32.0625 14.25 32.0625H12.3703C10.7906 32.0625 9.30469 31.4344 8.19844 30.2953C7.09687 29.1609 6.51094 27.6328 6.5625 26.0484C6.60469 24.8109 7.02656 23.6484 7.79062 22.6688C8.57344 21.6703 9.67031 20.9437 10.8891 20.6203L12.6656 20.1562L13.3172 18.4406C13.7203 17.3719 14.2828 16.3734 14.9906 15.4688C15.6894 14.5721 16.5171 13.7838 17.4469 13.1297C19.3734 11.775 21.6422 11.0578 24.0094 11.0578C26.3766 11.0578 28.6453 11.775 30.5719 13.1297C31.5047 13.7859 32.3297 14.5734 33.0281 15.4688C33.7359 16.3734 34.2984 17.3766 34.7016 18.4406L35.3484 20.1516L37.1203 20.6203C39.6609 21.3047 41.4375 23.6156 41.4375 26.25C41.4375 27.8016 40.8328 29.2641 39.7359 30.3609C39.198 30.902 38.5581 31.331 37.8533 31.6231C37.1484 31.9151 36.3926 32.0645 35.6297 32.0625H33.75C33.5437 32.0625 33.375 32.2312 33.375 32.4375V35.25C33.375 35.4563 33.5437 35.625 33.75 35.625H35.6297C40.8047 35.625 45 31.4297 45 26.25C45 21.9047 42.0422 18.2484 38.0344 17.1891Z" fill="#979797"/>
</svg>
