<svg width="40" height="40" viewBox="0 0 40 40" fill="none" xmlns="http://www.w3.org/2000/svg">
<circle cx="20" cy="20" r="19.5" fill="white" stroke="#1D99F2"/>
<path d="M13 17.625V13.75C13 13.3344 13.3344 13 13.75 13H17.625C17.8313 13 18 13.1688 18 13.375V14.625C18 14.8312 17.8313 15 17.625 15H15V17.625C15 17.8313 14.8312 18 14.625 18H13.375C13.1688 18 13 17.8313 13 17.625ZM22 13.375V14.625C22 14.8312 22.1687 15 22.375 15H25V17.625C25 17.8313 25.1687 18 25.375 18H26.625C26.8313 18 27 17.8313 27 17.625V13.75C27 13.3344 26.6656 13 26.25 13H22.375C22.1687 13 22 13.1688 22 13.375ZM26.625 22H25.375C25.1687 22 25 22.1687 25 22.375V25H22.375C22.1687 25 22 25.1687 22 25.375V26.625C22 26.8313 22.1687 27 22.375 27H26.25C26.6656 27 27 26.6656 27 26.25V22.375C27 22.1687 26.8313 22 26.625 22ZM18 26.625V25.375C18 25.1687 17.8313 25 17.625 25H15V22.375C15 22.1687 14.8312 22 14.625 22H13.375C13.1688 22 13 22.1687 13 22.375V26.25C13 26.6656 13.3344 27 13.75 27H17.625C17.8313 27 18 26.8313 18 26.625Z" fill="#1D99F2"/>
</svg>
