<svg width="322" height="320" viewBox="0 0 322 320" fill="none" xmlns="http://www.w3.org/2000/svg">
<g clip-path="url(#clip0_17_4967)">
<path d="M214.175 320H17.5758C12.916 319.995 8.44859 318.143 5.15363 314.851C1.85867 311.558 0.00525988 307.095 0 302.439V17.5613C0.00525988 12.9053 1.85867 8.44163 5.15363 5.14939C8.44859 1.85715 12.916 0.00525553 17.5758 0H214.175C218.835 0.00524901 223.302 1.85714 226.597 5.14938C229.892 8.44162 231.746 12.9053 231.751 17.5613V302.439C231.746 307.095 229.892 311.558 226.597 314.851C223.302 318.143 218.835 319.995 214.175 320V320Z" fill="#3F3D56"/>
<path d="M214.521 308.795H17.2294C15.793 308.794 14.4159 308.223 13.4002 307.208C12.3845 306.193 11.8132 304.817 11.8115 303.382V16.6179C11.8132 15.1827 12.3845 13.8067 13.4002 12.7918C14.4159 11.777 15.793 11.2061 17.2294 11.2045H214.521C215.957 11.2061 217.334 11.777 218.35 12.7918C219.366 13.8067 219.937 15.1827 219.939 16.6179V303.382C219.937 304.817 219.366 306.193 218.35 307.208C217.334 308.223 215.957 308.794 214.521 308.795V308.795Z" fill="white"/>
<path d="M115.128 6.87214C115.954 6.87214 116.623 6.20329 116.623 5.37821C116.623 4.55313 115.954 3.88428 115.128 3.88428C114.302 3.88428 113.633 4.55313 113.633 5.37821C113.633 6.20329 114.302 6.87214 115.128 6.87214Z" fill="white"/>
<path d="M168.501 132.479L161.97 112.934L161.859 112.594L189.364 95.2344L190.826 97.2031L198.487 107.51L195.687 115.846L188.449 137.383L188.132 138.33L201.535 148.286C202.066 149.265 202.507 150.158 202.866 150.978C206.867 160.087 200.945 159.674 200.945 159.674L173.686 148L168.501 132.479Z" fill="#FFB7B7"/>
<path d="M182.932 136.117L181.73 132.519L175.833 114.857L174.604 111.175L173.572 108.094L187.021 99.6031L201.077 90.7344L210.199 103.01L207.435 111.241L206.091 115.24L204.013 121.426L199.845 133.83L213.248 143.786C214.262 145.563 215.062 147.453 215.633 149.418C215.866 150.238 215.976 151.087 215.961 151.94C215.983 152.376 215.912 152.812 215.752 153.218C215.593 153.625 215.35 153.994 215.037 154.299C214.725 154.605 214.352 154.841 213.941 154.992C213.531 155.143 213.093 155.205 212.657 155.174L185.399 143.5L182.932 136.117Z" fill="#FFB7B7"/>
<path opacity="0.15" d="M181.653 136.914L180.071 120.253L187.954 115.983L188.47 116.934L181.216 120.863L182.683 136.309L198.798 147.336L198.187 148.228L181.653 136.914Z" fill="black"/>
<path opacity="0.15" d="M198.847 136.356L198.204 137.226L214.468 149.232L215.111 148.363L198.847 136.356Z" fill="black"/>
<path d="M197.878 152.687L116.061 95.2188L33.4082 152.152L114.828 186.505L197.878 152.687Z" fill="white"/>
<path d="M139.3 103.908L166.85 76.9932L216.124 73.667L277.373 132.107L322 156.509L309.427 193.449L255.564 167.902C244.598 167.097 237.542 163.461 233.079 159.637C231.544 158.324 230.161 156.844 228.955 155.224C227.634 153.507 226.604 151.585 225.905 149.535L204.013 121.426L199.499 115.625L196.576 111.871L187.02 99.6032L186.333 98.7213L170.099 98.2918L161.651 109.374L155.716 117.151C155.578 119.89 154.588 122.518 152.884 124.668C147.563 131.136 136.772 129.873 136.772 129.873L139.3 103.908Z" fill="#FFB7B7"/>
<path d="M33.7235 152.099H33.7824L67.5734 166.516L113.806 186.242C113.987 186.318 114.181 186.357 114.377 186.358C114.573 186.359 114.767 186.322 114.948 186.248L162.647 166.475L197.268 152.123L197.321 152.099H197.38C197.926 152.1 198.45 152.317 198.836 152.703C199.223 153.089 199.44 153.612 199.441 154.158V243.565C199.44 244.111 199.223 244.634 198.836 245.02C198.45 245.406 197.926 245.623 197.38 245.624H33.7235C33.1772 245.623 32.6535 245.406 32.2672 245.02C31.881 244.634 31.6637 244.111 31.6631 243.565V154.158C31.6637 153.612 31.881 153.089 32.2672 152.703C32.6535 152.317 33.1772 152.1 33.7235 152.099V152.099Z" fill="white"/>
<path d="M33.5767 152.687C33.6368 152.688 33.6955 152.669 33.7447 152.635L115.149 95.9895C115.397 95.8179 115.691 95.7262 115.992 95.7267C116.294 95.7272 116.588 95.8199 116.835 95.9924L197.653 152.634C197.717 152.679 197.796 152.696 197.873 152.683C197.949 152.669 198.017 152.626 198.062 152.562C198.107 152.498 198.125 152.419 198.111 152.342C198.098 152.266 198.055 152.197 197.991 152.153L117.173 95.5107C116.827 95.2694 116.415 95.1396 115.993 95.1389C115.571 95.1382 115.159 95.2666 114.812 95.5068L33.4083 152.152C33.3569 152.188 33.3182 152.239 33.298 152.298C33.2778 152.358 33.277 152.422 33.2958 152.481C33.3146 152.541 33.352 152.593 33.4025 152.63C33.453 152.667 33.5141 152.687 33.5767 152.687L33.5767 152.687Z" fill="#3F3D56"/>
<path d="M193.034 154.695L115.912 97.5854L38.2051 158.759L111.939 202.433L151.97 193.316L193.034 154.695Z" fill="#E6E6E6"/>
<path d="M148.59 229.409H186.691C187.162 229.409 187.615 229.222 187.949 228.889C188.283 228.556 188.47 228.104 188.471 227.633C188.472 227.162 188.285 226.709 187.952 226.375C187.619 226.041 187.168 225.853 186.696 225.852H148.59C148.118 225.852 147.666 226.039 147.332 226.372C146.998 226.705 146.81 227.156 146.81 227.628C146.809 228.099 146.995 228.552 147.328 228.886C147.661 229.22 148.113 229.408 148.585 229.409H148.59Z" fill="white"/>
<path d="M173.022 221.762H186.691C187.163 221.763 187.616 221.576 187.95 221.243C188.283 220.91 188.471 220.458 188.472 219.987C188.473 219.515 188.286 219.063 187.953 218.729C187.62 218.395 187.168 218.207 186.697 218.205H173.022C172.55 218.205 172.098 218.392 171.764 218.725C171.43 219.058 171.242 219.51 171.241 219.981C171.241 220.453 171.427 220.905 171.76 221.239C172.093 221.573 172.545 221.761 173.017 221.762H173.022Z" fill="white"/>
<path d="M114.828 186.505C115.118 186.505 115.405 186.449 115.673 186.34L163.236 166.62V104.896C163.236 104.35 163.019 103.827 162.632 103.441C162.246 103.055 161.722 102.838 161.176 102.837H69.9286C69.3823 102.838 68.8586 103.055 68.4724 103.441C68.0861 103.827 67.8688 104.35 67.8682 104.896V166.663L67.9576 166.702L113.958 186.33C114.234 186.446 114.529 186.505 114.828 186.505V186.505Z" fill="white"/>
<path d="M113.9 186.465L67.7207 166.76V104.896C67.7214 104.311 67.9542 103.75 68.368 103.337C68.7819 102.923 69.343 102.69 69.9283 102.69H161.176C161.761 102.69 162.322 102.923 162.736 103.337C163.15 103.75 163.383 104.311 163.383 104.896V166.718L115.729 186.476C115.142 186.714 114.484 186.71 113.9 186.465H113.9ZM162.795 104.896C162.794 104.467 162.623 104.056 162.32 103.752C162.016 103.449 161.605 103.279 161.176 103.278H69.9283C69.4991 103.279 69.0876 103.449 68.7841 103.752C68.4806 104.056 68.3099 104.467 68.3094 104.896V166.372L114.13 185.924C114.569 186.108 115.063 186.111 115.504 185.932L162.795 166.326L162.795 104.896Z" fill="#3F3D56"/>
<path d="M32.1045 154.158V243.565C32.1051 244.111 32.3224 244.634 32.7087 245.02C33.0949 245.406 33.6186 245.623 34.1649 245.624H197.822C198.368 245.623 198.892 245.406 199.278 245.02C199.664 244.634 199.881 244.111 199.882 243.565V154.158C199.881 153.612 199.664 153.089 199.278 152.703C198.892 152.317 198.368 152.1 197.822 152.099H197.763L197.71 152.123L163.089 166.475L115.39 186.248C115.208 186.322 115.014 186.359 114.818 186.358C114.622 186.357 114.428 186.318 114.248 186.242L68.0148 166.516L34.2239 152.099H34.1649C33.6186 152.1 33.0949 152.317 32.7087 152.703C32.3224 153.089 32.1051 153.612 32.1045 154.158V154.158ZM32.6932 154.158C32.6941 153.778 32.8414 153.414 33.1045 153.14C33.3677 152.866 33.7264 152.704 34.106 152.687L68.0148 167.154L114.015 186.783C114.527 186.997 115.103 187.001 115.616 186.792L163.089 167.11L197.878 152.687C198.258 152.703 198.617 152.864 198.881 153.138C199.145 153.412 199.293 153.778 199.293 154.158V243.565C199.293 243.955 199.138 244.329 198.862 244.605C198.586 244.881 198.212 245.036 197.822 245.036H34.1649C33.7746 245.036 33.4004 244.881 33.1244 244.605C32.8485 244.329 32.6933 243.955 32.6932 243.565V154.158Z" fill="#3F3D56"/>
<path d="M77.9163 125.91H110.294C110.919 125.91 111.518 125.662 111.959 125.221C112.401 124.779 112.649 124.181 112.649 123.557C112.649 122.933 112.401 122.334 111.959 121.893C111.518 121.452 110.919 121.204 110.294 121.204H77.9163C77.2918 121.204 76.6928 121.452 76.2512 121.893C75.8096 122.334 75.5615 122.933 75.5615 123.557C75.5615 124.181 75.8096 124.779 76.2512 125.221C76.6928 125.662 77.2918 125.91 77.9163 125.91V125.91Z" fill="white"/>
<path d="M77.9358 115.91H93.5362C94.1607 115.91 94.7597 115.662 95.2013 115.221C95.6429 114.78 95.891 114.181 95.891 113.557C95.891 112.933 95.6429 112.335 95.2013 111.894C94.7597 111.452 94.1607 111.205 93.5362 111.205H77.9358C77.3113 111.205 76.7124 111.452 76.2708 111.894C75.8291 112.335 75.5811 112.933 75.5811 113.557C75.5811 114.181 75.8291 114.78 76.2708 115.221C76.7124 115.662 77.3113 115.91 77.9358 115.91V115.91Z" fill="white"/>
<path d="M91.3352 149.438H140.785C141.41 149.438 142.009 149.19 142.451 148.749C142.892 148.308 143.14 147.709 143.14 147.085C143.14 146.461 142.892 145.863 142.451 145.422C142.009 144.98 141.41 144.732 140.785 144.732H91.3352C90.7107 144.732 90.1118 144.98 89.6702 145.422C89.2286 145.863 88.9805 146.461 88.9805 147.085C88.9805 147.709 89.2286 148.308 89.6702 148.749C90.1118 149.19 90.7107 149.438 91.3352 149.438V149.438Z" fill="#CCCCCC"/>
<path d="M91.3352 160.32H140.785C141.41 160.32 142.009 160.072 142.451 159.631C142.892 159.19 143.14 158.591 143.14 157.967C143.14 157.343 142.892 156.745 142.451 156.303C142.009 155.862 141.41 155.614 140.785 155.614H91.3352C90.7107 155.614 90.1118 155.862 89.6702 156.303C89.2286 156.745 88.9805 157.343 88.9805 157.967C88.9805 158.591 89.2286 159.19 89.6702 159.631C90.1118 160.072 90.7107 160.32 91.3352 160.32V160.32Z" fill="#CCCCCC"/>
<path opacity="0.1" d="M206.091 115.24L215.912 114.672L255.155 162.996L241.291 160.877L233.08 159.637C231.545 158.324 230.162 156.844 228.956 155.224L219.832 152.517L215.633 149.418C215.896 150.425 206.091 115.24 206.091 115.24Z" fill="black"/>
<path d="M143.31 113.702C143.591 111.895 144.577 110.272 146.052 109.189C147.527 108.105 149.371 107.649 151.181 107.919L161.651 109.374L174.604 111.175L184.614 112.565L196.576 111.871L207.435 111.24L213.85 110.871L256.505 163.396L219.832 152.517L215.633 149.418L197.249 135.851C197.249 135.851 191.226 134.742 181.73 132.519C180.317 132.184 164.333 128.176 156.824 125.996C155.369 125.573 154.065 125.13 152.885 124.668C144.513 121.376 142.838 117.155 143.31 113.702Z" fill="#FFB7B7"/>
<path opacity="0.15" d="M149.306 120.264C149.343 120.259 153.08 119.794 154.675 117.06C155.75 115.218 155.642 112.737 154.354 109.687L155.351 109.267C156.78 112.651 156.866 115.459 155.606 117.612C153.732 120.814 149.604 121.318 149.429 121.338L149.306 120.264Z" fill="black"/>
<path opacity="0.15" d="M187.092 112.962L187.089 111.881L206.329 111.851L186.046 99.1796L186.619 98.2625L210.092 112.925L187.092 112.962Z" fill="black"/>
</g>
<defs>
<clipPath id="clip0_17_4967">
<rect width="322" height="320" fill="white"/>
</clipPath>
</defs>
</svg>
